<?xml version="1.0" encoding="UTF-8"?>
<!DOCTYPE svg PUBLIC "-//W3C//DTD SVG 1.1//EN" "http://www.w3.org/Graphics/SVG/1.1/DTD/svg11.dtd">
<svg xmlns="http://www.w3.org/2000/svg" version="1.1" width="1024px" height="1024px" style="shape-rendering:geometricPrecision; text-rendering:geometricPrecision; image-rendering:optimizeQuality; fill-rule:evenodd; clip-rule:evenodd" xmlns:xlink="http://www.w3.org/1999/xlink">
<g><path style="opacity:0.019" fill="#eefaf9" d="M 485.5,11.5 C 442.401,14.3846 400.068,22.0513 358.5,34.5C 369.115,30.1299 380.115,26.6299 391.5,24C 422.329,15.8965 453.663,11.7298 485.5,11.5 Z"/></g>
<g><path style="opacity:1" fill="#3cc7a9" d="M 485.5,11.5 C 504.167,11.5 522.833,11.5 541.5,11.5C 693.393,24.3569 816.56,90.3569 911,209.5C 947.457,258.747 974.624,312.747 992.5,371.5C 998.507,397.477 1003.84,423.477 1008.5,449.5C 1008.5,450.167 1008.5,450.833 1008.5,451.5C 1021.23,584.959 988.063,705.292 909,812.5C 813.389,932.995 688.556,998.162 534.5,1008C 366.556,1012.09 229.056,949.927 122,821.5C 38.2273,712.462 2.89399,589.129 16,451.5C 37.2886,299.688 110.789,180.521 236.5,94C 265.169,74.9088 295.502,58.9088 327.5,46C 330.167,45.6667 332.833,45.3333 335.5,45C 343.261,41.5345 350.928,38.0345 358.5,34.5C 400.068,22.0513 442.401,14.3846 485.5,11.5 Z"/></g>
<g><path style="opacity:1" fill="#1f7c68" d="M 477.5,24.5 C 609.582,18.0287 726.249,56.5287 827.5,140C 947.6,246.543 1004.1,380.376 997,541.5C 984.787,687.454 921.62,805.62 807.5,896C 683.375,986.759 545.708,1015.43 394.5,982C 266.685,947.809 167.519,874.976 97,763.5C 29.2257,647.516 10.2257,523.85 40,392.5C 84.5191,231.926 183.686,119.759 337.5,56C 382.685,39.0622 429.352,28.5622 477.5,24.5 Z"/></g>
<g><path style="opacity:1" fill="#f5f9f8" d="M 543.5,50.5 C 556.239,49.698 568.239,52.198 579.5,58C 582.273,60.3834 584.439,63.2167 586,66.5C 586.667,72.5 586.667,78.5 586,84.5C 582.25,97.8012 573.417,104.468 559.5,104.5C 552.187,103.55 544.854,102.884 537.5,102.5C 538.579,85.0371 540.579,67.7038 543.5,50.5 Z"/></g>
<g><path style="opacity:1" fill="#f4f9f8" d="M 451.5,51.5 C 457.842,51.3338 464.175,51.5005 470.5,52C 485.726,56.9273 491.893,67.4273 489,83.5C 486.098,94.7336 478.932,101.567 467.5,104C 460.194,104.942 452.86,105.442 445.5,105.5C 443.739,88.1817 442.072,70.8484 440.5,53.5C 444.387,53.3541 448.054,52.6874 451.5,51.5 Z"/></g>
<g><path style="opacity:1" fill="#f3f7f7" d="M 406.5,59.5 C 410.158,58.8724 412.658,60.2057 414,63.5C 418.347,79.0418 422.181,94.7085 425.5,110.5C 421.555,111.656 417.555,112.156 413.5,112C 402.992,102.99 392.659,93.8236 382.5,84.5C 382.167,85 381.833,85.5 381.5,86C 384.784,96.959 388.118,107.792 391.5,118.5C 391,119.881 390,120.547 388.5,120.5C 385.551,121.302 382.551,121.636 379.5,121.5C 375.821,104.646 371.655,87.9796 367,71.5C 371.071,70.0276 375.238,69.1943 379.5,69C 389.982,77.981 400.315,87.1476 410.5,96.5C 410.833,96.1667 411.167,95.8333 411.5,95.5C 408.134,84.1223 404.801,72.789 401.5,61.5C 403.553,61.5979 405.22,60.9313 406.5,59.5 Z"/></g>
<g><path style="opacity:1" fill="#f4f8f8" d="M 606.5,59.5 C 613.225,60.5143 619.892,61.8476 626.5,63.5C 625.908,66.1272 625.575,68.7938 625.5,71.5C 623.533,71.2606 621.699,71.5939 620,72.5C 617.253,83.4035 615.086,94.4035 613.5,105.5C 614.5,105.5 615.5,105.5 616.5,105.5C 616.037,108.482 615.704,111.482 615.5,114.5C 609.125,113.425 602.792,112.092 596.5,110.5C 595.679,107.554 595.679,104.554 596.5,101.5C 598.167,101.5 599.833,101.5 601.5,101.5C 603.512,90.942 605.845,80.442 608.5,70C 605.317,67.0815 604.65,63.5815 606.5,59.5 Z"/></g>
<g><path style="opacity:1" fill="#267e6b" d="M 553.5,60.5 C 571.732,60.8694 577.898,69.5361 572,86.5C 570.01,90.4905 566.843,92.9905 562.5,94C 558.514,94.4988 554.514,94.6655 550.5,94.5C 551.061,83.1306 552.061,71.7972 553.5,60.5 Z"/></g>
<g><path style="opacity:1" fill="#227d69" d="M 453.5,61.5 C 473.808,60.3053 480.641,69.3053 474,88.5C 469.285,93.5724 463.451,95.5724 456.5,94.5C 455.17,83.5329 454.17,72.5329 453.5,61.5 Z"/></g>
<g><path style="opacity:1" fill="#f3f8f7" d="M 659.5,74.5 C 664.257,75.19 668.924,76.19 673.5,77.5C 673.5,96.1667 673.5,114.833 673.5,133.5C 669.404,132.809 665.404,131.809 661.5,130.5C 662.065,125.678 661.399,121.178 659.5,117C 654.667,115.167 649.833,113.333 645,111.5C 641.837,114.48 638.67,117.48 635.5,120.5C 631.5,119.958 628.167,118.291 625.5,115.5C 636.856,101.814 648.19,88.1474 659.5,74.5 Z"/></g>
<g><path style="opacity:1" fill="#f5f9f8" d="M 326.5,87.5 C 340.341,99.6706 353.675,112.671 366.5,126.5C 363.215,128.772 359.715,130.772 356,132.5C 353.566,130.066 351.066,127.566 348.5,125C 346.833,124.333 345.167,124.333 343.5,125C 339.423,126.744 335.423,128.577 331.5,130.5C 331.257,134.824 330.924,139.157 330.5,143.5C 326.889,145.475 323.223,147.142 319.5,148.5C 318.001,129.853 317.168,111.186 317,92.5C 320.209,90.7232 323.376,89.0565 326.5,87.5 Z"/></g>
<g><path style="opacity:1" fill="#338471" d="M 661.5,87.5 C 662.491,93.979 662.824,100.646 662.5,107.5C 659.101,106.984 655.768,106.15 652.5,105C 651.643,104.311 650.977,103.478 650.5,102.5C 653.805,97.2008 657.472,92.2008 661.5,87.5 Z"/></g>
<g><path style="opacity:1" fill="#f5f9f8" d="M 712.5,100.5 C 725.693,100.116 736.693,104.783 745.5,114.5C 743.833,117.167 742.167,119.833 740.5,122.5C 735.251,116.25 728.584,112.583 720.5,111.5C 711.792,112.374 706.292,117.04 704,125.5C 702.283,135.932 706.449,142.599 716.5,145.5C 718.963,143.268 720.963,140.602 722.5,137.5C 720.295,135.474 717.795,133.808 715,132.5C 714.84,129.102 716.007,126.102 718.5,123.5C 725.032,126.929 731.366,130.596 737.5,134.5C 733.5,141.833 729.5,149.167 725.5,156.5C 715.848,157.005 707.181,154.172 699.5,148C 688.066,133.18 689.066,119.18 702.5,106C 705.767,103.871 709.101,102.038 712.5,100.5 Z"/></g>
<g><path style="opacity:1" fill="#2b7e6c" d="M 326.5,101.5 C 331.663,105.83 336.33,110.664 340.5,116C 336.912,117.923 333.246,119.756 329.5,121.5C 328.749,120.624 328.249,119.624 328,118.5C 327.627,112.811 327.127,107.145 326.5,101.5 Z"/></g>
<g><path style="opacity:1" fill="#3ac7a9" d="M 481.5,126.5 C 613.6,120.37 722.433,167.037 808,266.5C 889.963,372.358 912.63,490.025 876,619.5C 839.15,731.685 766.65,811.518 658.5,859C 579.032,890.756 497.698,896.423 414.5,876C 305.98,845.144 225.147,779.978 172,680.5C 131.819,597.718 121.153,511.052 140,420.5C 172.85,295.293 248.683,206.459 367.5,154C 404.28,139.471 442.28,130.304 481.5,126.5 Z"/></g>
<g><path style="opacity:1" fill="#f3f7f6" d="M 779.5,135.5 C 778.957,146.159 778.623,156.825 778.5,167.5C 777.334,170.83 777.334,174.163 778.5,177.5C 784.975,168.525 791.641,159.692 798.5,151C 802.195,151.699 805.195,153.699 807.5,157C 797.603,171.296 787.103,185.129 776,198.5C 773.316,196.32 770.483,194.32 767.5,192.5C 767.167,191.333 766.833,190.167 766.5,189C 767.451,175.482 768.284,161.982 769,148.5C 762.167,157.333 755.333,166.167 748.5,175C 744.422,174.804 741.088,172.971 738.5,169.5C 749.025,156.142 759.358,142.642 769.5,129C 770.908,128.685 772.241,129.018 773.5,130C 775.396,132.068 777.396,133.901 779.5,135.5 Z"/></g>
<g><path style="opacity:1" fill="#f3f7f6" d="M 239.5,137.5 C 241.017,137.511 242.184,138.177 243,139.5C 250.523,150.555 258.523,161.222 267,171.5C 271.728,167.774 276.728,164.441 282,161.5C 284.169,163.308 286.002,165.475 287.5,168C 279.357,174.135 271.191,180.302 263,186.5C 252.333,172.661 241.833,158.661 231.5,144.5C 234.239,142.149 236.905,139.816 239.5,137.5 Z"/></g>
<g><path style="opacity:1" fill="#85b6ac" d="M 779.5,135.5 C 780.578,146.191 780.244,156.858 778.5,167.5C 778.623,156.825 778.957,146.159 779.5,135.5 Z"/></g>
<g><path style="opacity:1" fill="#fcfbfb" d="M 163.5,570.5 C 158.466,538.01 157.132,505.344 159.5,472.5C 175.851,349.211 237.851,257.044 345.5,196C 423.906,155.827 506.24,145.16 592.5,164C 700.321,191.799 779.821,255.299 831,354.5C 873.412,448.043 876.745,543.043 841,639.5C 798.649,738.524 727.149,806.691 626.5,844C 524.95,876.714 427.617,867.381 334.5,816C 241.351,759.596 184.351,677.763 163.5,570.5 Z"/></g>
<g><path style="opacity:1" fill="#ed6b69" d="M 525.5,167.5 C 507.131,167.314 488.797,167.98 470.5,169.5C 477.256,167.882 484.256,167.048 491.5,167C 503.008,166.174 514.341,166.341 525.5,167.5 Z"/></g>
<g><path style="opacity:1" fill="#fc0603" d="M 525.5,167.5 C 541.293,167.697 556.96,169.197 572.5,172C 585.558,174.846 598.558,178.012 611.5,181.5C 615.94,183.538 620.607,185.204 625.5,186.5C 718.697,221.53 785.53,284.53 826,375.5C 848.326,430.435 856.159,487.435 849.5,546.5C 848.111,551.269 847.444,556.269 847.5,561.5C 831.83,646.866 790.497,716.866 723.5,771.5C 722.833,771.5 722.5,771.167 722.5,770.5C 795.285,700.051 827.451,613.718 819,511.5C 803.511,401.727 747.011,320.893 649.5,269C 596.636,243.523 540.97,233.356 482.5,238.5C 477.25,238.302 472.25,238.969 467.5,240.5C 466.833,240.5 466.167,240.5 465.5,240.5C 460.55,240.77 455.883,241.77 451.5,243.5C 363.472,262.081 295.639,309.415 248,385.5C 198.911,470.868 190.578,560.201 223,653.5C 237.779,691.086 258.612,724.753 285.5,754.5C 285.649,755.552 285.483,756.552 285,757.5C 284.329,756.748 283.496,756.414 282.5,756.5C 226.133,704.451 191.133,640.451 177.5,564.5C 176.857,558.31 175.857,552.31 174.5,546.5C 174.5,545.5 174.5,544.5 174.5,543.5C 174.303,536.974 173.636,530.641 172.5,524.5C 172.5,522.833 172.5,521.167 172.5,519.5C 172.572,504.493 172.905,489.493 173.5,474.5C 186.043,365.536 237.71,280.703 328.5,220C 340.742,212.379 353.409,205.545 366.5,199.5C 368.967,199.245 370.967,198.245 372.5,196.5C 389.002,188.956 406.335,182.956 424.5,178.5C 431.706,178.448 438.373,176.782 444.5,173.5C 453.046,171.515 461.713,170.181 470.5,169.5C 488.797,167.98 507.131,167.314 525.5,167.5 Z"/></g>
<g><path style="opacity:1" fill="#f4f9f8" d="M 200.5,170.5 C 217.238,178.703 233.905,187.203 250.5,196C 247.651,199.016 244.651,201.85 241.5,204.5C 237.718,202.096 233.718,200.596 229.5,200C 225.434,204.066 221.434,208.066 217.5,212C 219.423,215.178 221.089,218.512 222.5,222C 220.033,225.634 217.033,228.801 213.5,231.5C 206.265,214.631 198.932,197.798 191.5,181C 194.322,177.345 197.322,173.845 200.5,170.5 Z"/></g>
<g><path style="opacity:1" fill="#f0443a" d="M 444.5,173.5 C 438.373,176.782 431.706,178.448 424.5,178.5C 430.749,175.604 437.416,173.938 444.5,173.5 Z"/></g>
<g><path style="opacity:1" fill="#f39e9d" d="M 611.5,181.5 C 616.703,182.009 621.37,183.676 625.5,186.5C 620.607,185.204 615.94,183.538 611.5,181.5 Z"/></g>
<g><path style="opacity:1" fill="#f5f9f8" d="M 820.5,183.5 C 838.652,182.174 849.318,190.341 852.5,208C 850.71,225.791 840.876,235.624 823,237.5C 807.899,235.066 799.732,226.233 798.5,211C 798.235,206.128 799.402,201.628 802,197.5C 806.986,190.981 813.152,186.314 820.5,183.5 Z"/></g>
<g><path style="opacity:1" fill="#297e6c" d="M 204.5,184.5 C 210.186,187.094 215.686,190.094 221,193.5C 219.763,196.776 217.597,199.609 214.5,202C 213.668,202.688 213.002,202.521 212.5,201.5C 209.549,195.932 206.882,190.266 204.5,184.5 Z"/></g>
<g><path style="opacity:1" fill="#247e6a" d="M 823.5,194.5 C 839.686,194.559 844.519,201.892 838,216.5C 835.463,219.372 832.63,221.872 829.5,224C 816.971,228.132 810.471,223.632 810,210.5C 812.549,203.457 817.049,198.123 823.5,194.5 Z"/></g>
<g><path style="opacity:1" fill="#f07672" d="M 372.5,196.5 C 370.967,198.245 368.967,199.245 366.5,199.5C 368.033,197.755 370.033,196.755 372.5,196.5 Z"/></g>
<g><path style="opacity:1" fill="#f3f8f7" d="M 163.5,208.5 C 167.724,209.522 171.391,211.689 174.5,215C 160.367,221.978 157.7,231.978 166.5,245C 174.883,252.492 183.049,252.326 191,244.5C 193.377,240.71 195.377,236.71 197,232.5C 200.004,234.339 202.504,236.673 204.5,239.5C 197.636,259.767 184.303,266.267 164.5,259C 147.78,247.536 144.946,233.37 156,216.5C 158.705,213.964 161.205,211.297 163.5,208.5 Z"/></g>
<g><path style="opacity:1" fill="#f4f8f7" d="M 866.5,233.5 C 871.984,232.826 876.984,233.992 881.5,237C 886.427,241.05 890.26,245.884 893,251.5C 893.667,253.167 893.667,254.833 893,256.5C 890.636,258.363 888.136,260.029 885.5,261.5C 884.147,256.934 882.314,252.601 880,248.5C 877.683,245.903 874.85,245.07 871.5,246C 869.972,247.648 869.305,249.648 869.5,252C 871.294,258.034 871.794,264.2 871,270.5C 866.277,281.602 858.444,284.436 847.5,279C 840.54,272.902 836.373,265.402 835,256.5C 837.364,254.637 839.864,252.971 842.5,251.5C 843.894,258.199 846.894,264.032 851.5,269C 857.272,270.732 859.939,268.565 859.5,262.5C 857.785,255.921 857.285,249.254 858,242.5C 860.362,238.973 863.196,235.973 866.5,233.5 Z"/></g>
<g><path style="opacity:1" fill="#f29b98" d="M 482.5,238.5 C 477.731,239.889 472.731,240.556 467.5,240.5C 472.25,238.969 477.25,238.302 482.5,238.5 Z"/></g>
<g><path style="opacity:1" fill="#f5a29f" d="M 465.5,240.5 C 465.082,241.222 464.416,241.722 463.5,242C 459.49,242.501 455.49,243.001 451.5,243.5C 455.883,241.77 460.55,240.77 465.5,240.5 Z"/></g>
<g><path style="opacity:1" fill="#f2f7f6" d="M 128.5,254.5 C 131.223,255.352 133.89,256.519 136.5,258C 136.647,259.974 136.981,261.974 137.5,264C 146.344,269.516 155.177,275.016 164,280.5C 165.168,279.491 166.335,278.491 167.5,277.5C 169.657,279.412 171.991,281.079 174.5,282.5C 170.919,287.328 167.585,292.328 164.5,297.5C 163.833,297.833 163.167,298.167 162.5,298.5C 160.734,297.909 159.067,297.076 157.5,296C 156.903,294.111 156.569,292.278 156.5,290.5C 147.568,284.451 138.402,278.784 129,273.5C 125.996,275.91 123.162,275.577 120.5,272.5C 119.417,271.635 119.251,270.635 120,269.5C 123.089,264.594 125.923,259.594 128.5,254.5 Z"/></g>
<g><path style="opacity:1" fill="#fd0101" d="M 546.5,265.5 C 547.924,267.515 548.59,269.848 548.5,272.5C 549.286,283.482 549.619,294.482 549.5,305.5C 547.385,325.114 538.052,340.28 521.5,351C 502.006,359.414 483.339,369.414 465.5,381C 457.392,388.777 449.559,396.944 442,405.5C 437.402,413.364 433.902,421.698 431.5,430.5C 418.167,430.5 404.833,430.5 391.5,430.5C 391.5,398.5 391.5,366.5 391.5,334.5C 415.672,334.831 439.672,334.498 463.5,333.5C 464.498,310.006 464.831,286.339 464.5,262.5C 491.5,262.5 518.5,262.5 545.5,262.5C 545.263,263.791 545.596,264.791 546.5,265.5 Z"/></g>
<g><path style="opacity:1" fill="#eb3231" d="M 546.5,265.5 C 545.596,264.791 545.263,263.791 545.5,262.5C 518.5,262.5 491.5,262.5 464.5,262.5C 464.831,286.339 464.498,310.006 463.5,333.5C 463.5,309.5 463.5,285.5 463.5,261.5C 491.167,261.5 518.833,261.5 546.5,261.5C 546.5,262.833 546.5,264.167 546.5,265.5 Z"/></g>
<g><path style="opacity:0.032" fill="#ecfaf8" d="M 541.5,11.5 C 660.287,18.7564 763.62,61.923 851.5,141C 916.71,201.225 962.876,273.725 990,358.5C 991.153,362.787 991.987,367.121 992.5,371.5C 974.624,312.747 947.457,258.747 911,209.5C 816.56,90.3569 693.393,24.3569 541.5,11.5 Z"/></g>
<g><path style="opacity:1" fill="#f1f6f5" d="M 903.5,272.5 C 904.822,272.33 905.989,272.663 907,273.5C 912.667,284.167 918.333,294.833 924,305.5C 924.667,306.833 924.667,308.167 924,309.5C 921.815,311.54 919.315,312.874 916.5,313.5C 915.741,308.297 913.241,304.297 909,301.5C 896.561,307.052 884.561,313.386 873,320.5C 870.595,317.367 868.429,314.033 866.5,310.5C 878.245,303.432 890.245,296.766 902.5,290.5C 903.614,289.277 903.781,287.944 903,286.5C 901.081,283.539 899.248,280.539 897.5,277.5C 899.162,275.348 901.162,273.682 903.5,272.5 Z"/></g>
<g><path style="opacity:1" fill="#ed403a" d="M 548.5,272.5 C 550.049,278.587 550.716,284.92 550.5,291.5C 550.499,296.346 550.166,301.012 549.5,305.5C 549.619,294.482 549.286,283.482 548.5,272.5 Z"/></g>
<g><path style="opacity:1" fill="#148a7d" d="M 564.5,262.5 C 581.978,293.739 581.811,325.073 564,356.5C 558.121,365.38 550.621,372.546 541.5,378C 524.032,385.9 507.032,394.567 490.5,404C 471.687,416.476 459.52,433.643 454,455.5C 453.333,463.833 453.333,472.167 454,480.5C 463.058,510.658 462.058,510.991 451,481.5C 438.334,438.186 450.834,404.686 488.5,381C 502.743,374.879 516.743,368.212 530.5,361C 551.468,348.035 564.635,329.535 570,305.5C 570.667,297.5 570.667,289.5 570,281.5C 568.054,275.167 566.221,268.834 564.5,262.5 Z"/></g>
<g><path style="opacity:1" fill="#f3f8f7" d="M 113.5,294.5 C 128.181,294.089 139.348,300.089 147,312.5C 148.476,317.076 148.81,321.743 148,326.5C 143.917,334.657 140.417,342.99 137.5,351.5C 121.415,344.876 105.581,337.543 90,329.5C 92.8609,320.437 96.8609,311.77 102,303.5C 105.485,299.866 109.318,296.866 113.5,294.5 Z"/></g>
<g><path style="opacity:1" fill="#287f6c" d="M 113.5,307.5 C 122.492,306.745 129.992,309.745 136,316.5C 138.456,323.272 137.623,329.606 133.5,335.5C 132.635,336.583 131.635,336.749 130.5,336C 121.591,331.962 112.758,327.795 104,323.5C 103.448,320.581 104.115,317.914 106,315.5C 108.028,312.308 110.528,309.641 113.5,307.5 Z"/></g>
<g><path style="opacity:1" fill="#f3f7f6" d="M 929.5,323.5 C 930.675,323.281 931.675,323.614 932.5,324.5C 935.132,330.756 937.465,337.089 939.5,343.5C 936.574,344.461 933.574,345.127 930.5,345.5C 930.5,344.5 930.5,343.5 930.5,342.5C 920.06,345.816 909.727,349.649 899.5,354C 898.253,355.458 898.253,356.958 899.5,358.5C 896.683,361.187 893.516,362.187 890,361.5C 888.489,355.66 886.323,350.16 883.5,345C 885.624,341.938 888.624,340.438 892.5,340.5C 892.5,341.5 892.5,342.5 892.5,343.5C 902.853,339.771 913.186,335.937 923.5,332C 924.103,330.175 924.77,328.341 925.5,326.5C 927.261,325.965 928.594,324.965 929.5,323.5 Z"/></g>
<g><path style="opacity:1" fill="#fd0301" d="M 588.5,334.5 C 603.167,334.5 617.833,334.5 632.5,334.5C 632.5,366.5 632.5,398.5 632.5,430.5C 608.661,430.169 584.994,430.502 561.5,431.5C 560.502,455.328 560.169,479.328 560.5,503.5C 531.426,503.825 502.426,503.491 473.5,502.5C 468.104,482.399 468.271,462.399 474,442.5C 479.29,430.542 487.457,421.042 498.5,414C 517.957,405.441 536.623,395.607 554.5,384.5C 561.478,377.021 568.645,369.688 576,362.5C 581.418,353.754 585.585,344.421 588.5,334.5 Z"/></g>
<g><path style="opacity:1" fill="#f25c5b" d="M 463.5,333.5 C 439.672,334.498 415.672,334.831 391.5,334.5C 391.5,366.5 391.5,398.5 391.5,430.5C 404.833,430.5 418.167,430.5 431.5,430.5C 418.01,431.496 404.344,431.829 390.5,431.5C 390.5,398.833 390.5,366.167 390.5,333.5C 414.833,333.5 439.167,333.5 463.5,333.5 Z"/></g>
<g><path style="opacity:1" fill="#f3f8f7" d="M 79.5,352.5 C 82.7893,353.374 86.1226,354.041 89.5,354.5C 87.9938,360.187 86.3271,365.854 84.5,371.5C 87.6575,374.419 91.3242,375.586 95.5,375C 97.0648,370.242 98.3981,365.409 99.5,360.5C 103.074,360.691 106.407,361.691 109.5,363.5C 108.064,368.413 106.397,373.246 104.5,378C 108.065,380.402 112.065,381.902 116.5,382.5C 117.402,376.689 118.902,371.023 121,365.5C 124.662,364.274 127.829,365.107 130.5,368C 126.912,377.261 124.245,386.761 122.5,396.5C 105.69,392.129 89.0235,387.129 72.5,381.5C 72.1667,381 71.8333,380.5 71.5,380C 74.8688,371.023 77.5355,361.856 79.5,352.5 Z"/></g>
<g><path style="opacity:1" fill="#f4f8f7" d="M 920.5,365.5 C 944.437,364.102 956.437,375.435 956.5,399.5C 953.117,399.257 949.951,399.924 947,401.5C 946.807,380.34 936.974,373.507 917.5,381C 916,382.5 914.5,384 913,385.5C 911.103,394.259 912.936,402.093 918.5,409C 915.222,410.384 911.889,411.384 908.5,412C 901.947,403.249 899.447,393.415 901,382.5C 904.991,373.926 911.491,368.26 920.5,365.5 Z"/></g>
<g><path style="opacity:1" fill="#f26c69" d="M 730.5,634.5 C 730.5,546.167 730.5,457.833 730.5,369.5C 707.833,369.5 685.167,369.5 662.5,369.5C 662.833,461.002 662.499,552.335 661.5,643.5C 661.5,551.833 661.5,460.167 661.5,368.5C 684.833,368.5 708.167,368.5 731.5,368.5C 731.833,457.335 731.499,546.002 730.5,634.5 Z"/></g>
<g><path style="opacity:1" fill="#fd0201" d="M 363.5,639.5 C 363.352,677.141 374.519,710.808 397,740.5C 416.538,761.356 440.372,774.523 468.5,780C 477.446,781.577 486.446,782.743 495.5,783.5C 512.328,784.662 529.328,784.828 546.5,784C 551.617,782.495 556.617,780.995 561.5,779.5C 611.325,768.005 642.658,737.672 655.5,688.5C 657.23,684.117 658.23,679.45 658.5,674.5C 660.04,664.229 661.04,653.895 661.5,643.5C 662.499,552.335 662.833,461.002 662.5,369.5C 685.167,369.5 707.833,369.5 730.5,369.5C 730.5,457.833 730.5,546.167 730.5,634.5C 726.705,760.131 662.039,827.631 536.5,837C 507.855,839.771 479.522,838.604 451.5,833.5C 449.981,832.59 448.315,831.757 446.5,831C 437.926,830.031 429.593,828.031 421.5,825C 418.854,824.503 416.187,824.336 413.5,824.5C 409.452,822.511 405.452,820.344 401.5,818C 398.522,817.304 395.522,816.804 392.5,816.5C 348.866,795.686 320.033,762.02 306,715.5C 303.853,708.244 302.019,700.911 300.5,693.5C 300.13,688.578 299.13,683.911 297.5,679.5C 296.268,666.708 295.268,654.041 294.5,641.5C 294.5,550.833 294.5,460.167 294.5,369.5C 317.167,369.5 339.833,369.5 362.5,369.5C 362.167,459.668 362.501,549.668 363.5,639.5 Z"/></g>
<g><path style="opacity:0.094" fill="#e6f7f5" d="M 992.5,371.5 C 993.232,372.808 994.066,374.142 995,375.5C 997.424,386.964 1000.09,398.297 1003,409.5C 1005.65,422.727 1007.49,436.06 1008.5,449.5C 1003.84,423.477 998.507,397.477 992.5,371.5 Z"/></g>
<g><path style="opacity:1" fill="#f4f8f7" d="M 63.5,408.5 C 80.7581,411.351 98.0914,413.685 115.5,415.5C 115.276,419.179 114.942,422.846 114.5,426.5C 101.843,424.668 89.1761,423.168 76.5,422C 87.4341,428.736 98.7675,434.903 110.5,440.5C 111.293,444.12 111.293,447.787 110.5,451.5C 96.3796,453.183 82.3796,455.683 68.5,459C 81.7983,461.161 95.1316,462.994 108.5,464.5C 107.756,468.119 107.423,471.785 107.5,475.5C 90.0967,473.266 72.7634,470.599 55.5,467.5C 55.514,461.419 56.1807,455.419 57.5,449.5C 70.2285,447.733 82.8952,445.567 95.5,443C 84.563,437.196 73.563,431.363 62.5,425.5C 62.1667,424.667 61.8333,423.833 61.5,423C 62.5483,418.211 63.215,413.378 63.5,408.5 Z"/></g>
<g><path style="opacity:1" fill="#f17272" d="M 363.5,639.5 C 362.501,549.668 362.167,459.668 362.5,369.5C 339.833,369.5 317.167,369.5 294.5,369.5C 294.5,460.167 294.5,550.833 294.5,641.5C 293.501,550.668 293.167,459.668 293.5,368.5C 316.833,368.5 340.167,368.5 363.5,368.5C 363.5,458.833 363.5,549.167 363.5,639.5 Z"/></g>
<g><path style="opacity:1" fill="#f04846" d="M 588.5,334.5 C 603.324,333.504 618.324,333.171 633.5,333.5C 633.5,366.167 633.5,398.833 633.5,431.5C 609.5,431.5 585.5,431.5 561.5,431.5C 584.994,430.502 608.661,430.169 632.5,430.5C 632.5,398.5 632.5,366.5 632.5,334.5C 617.833,334.5 603.167,334.5 588.5,334.5 Z"/></g>
<g><path style="opacity:1" fill="#f8d8d8" d="M 561.5,431.5 C 585.5,431.5 609.5,431.5 633.5,431.5C 610.006,432.498 586.339,432.831 562.5,432.5C 562.831,456.672 562.498,480.672 561.5,504.5C 561.5,480.167 561.5,455.833 561.5,431.5 Z"/></g>
<g><path style="opacity:1" fill="#ed5a5a" d="M 561.5,431.5 C 561.5,455.833 561.5,480.167 561.5,504.5C 531.814,505.159 502.481,504.492 473.5,502.5C 502.426,503.491 531.426,503.825 560.5,503.5C 560.169,479.328 560.502,455.328 561.5,431.5 Z"/></g>
<g><path style="opacity:0.112" fill="#effaf8" d="M 358.5,34.5 C 350.928,38.0345 343.261,41.5345 335.5,45C 332.833,45.3333 330.167,45.6667 327.5,46C 295.502,58.9088 265.169,74.9088 236.5,94C 110.789,180.521 37.2886,299.688 16,451.5C 2.89399,589.129 38.2273,712.462 122,821.5C 229.056,949.927 366.556,1012.09 534.5,1008C 688.556,998.162 813.389,932.995 909,812.5C 988.063,705.292 1021.23,584.959 1008.5,451.5C 1022.11,570.866 997.276,681.533 934,783.5C 866.1,884.731 773.934,953.897 657.5,991C 600.094,1007.68 541.428,1014.34 481.5,1011C 345.66,1001.32 231.826,946.821 140,847.5C 47.6308,741.946 4.9641,618.613 12,477.5C 24.2092,330.227 87.0425,210.06 200.5,117C 238.228,87.9594 279.228,64.2927 323.5,46C 335.006,41.5752 346.673,37.7418 358.5,34.5 Z"/></g>
<g><path style="opacity:1" fill="#eff5f4" d="M 529.5,915.5 C 553.012,915.476 558.845,925.476 547,945.5C 542.5,950 538,954.5 533.5,959C 540.487,959.002 547.487,958.835 554.5,958.5C 554.5,961.833 554.5,965.167 554.5,968.5C 542.839,969.237 531.172,969.903 519.5,970.5C 519.335,967.15 519.502,963.817 520,960.5C 525.667,954.5 531.333,948.5 537,942.5C 540.761,938.548 542.094,933.881 541,928.5C 537.743,925.572 533.909,924.738 529.5,926C 526.461,926.353 523.795,927.52 521.5,929.5C 520.167,926.167 520.167,922.833 521.5,919.5C 524.358,918.339 527.025,917.006 529.5,915.5 Z"/></g>
<g><path style="opacity:1" fill="#f3f7f6" d="M 483.5,915.5 C 494.657,913.992 502.49,918.325 507,928.5C 509.665,942.196 507.165,954.696 499.5,966C 489.939,972.594 481.105,971.76 473,963.5C 471.803,960.911 470.803,958.244 470,955.5C 469.124,946.77 469.458,938.104 471,929.5C 473.663,923.345 477.829,918.679 483.5,915.5 Z"/></g>
<g><path style="opacity:1" fill="#2a806d" d="M 486.5,924.5 C 489.652,923.959 492.152,924.959 494,927.5C 496.469,938.053 495.803,948.387 492,958.5C 488.818,962.424 485.818,962.424 483,958.5C 479.785,948.887 479.785,939.221 483,929.5C 483.997,927.677 485.164,926.01 486.5,924.5 Z"/></g>
<g><path style="opacity:1" fill="#f3f8f7" d="M 576.5,910.5 C 590.764,908.915 599.264,915.248 602,929.5C 604.322,937.967 603.989,946.301 601,954.5C 595.052,964.927 586.552,967.76 575.5,963C 569.177,956.853 565.677,949.353 565,940.5C 561.403,927.399 565.236,917.399 576.5,910.5 Z"/></g>
<g><path style="opacity:1" fill="#257d6a" d="M 578.5,919.5 C 584.377,918.862 587.877,921.528 589,927.5C 591.258,935.366 591.924,943.366 591,951.5C 589.035,955.444 586.035,956.444 582,954.5C 575.548,943.184 574.381,931.517 578.5,919.5 Z"/></g>
<g><path style="opacity:1" fill="#f2f7f6" d="M 433.5,910.5 C 439.577,910.196 445.577,910.696 451.5,912C 461.162,917.946 462.995,925.779 457,935.5C 450.128,942.017 442.628,947.684 434.5,952.5C 436.22,953.934 438.22,954.767 440.5,955C 445.171,955.538 449.838,956.038 454.5,956.5C 454.296,959.518 453.963,962.518 453.5,965.5C 442.087,964.817 430.753,963.484 419.5,961.5C 419.457,958.09 419.957,954.757 421,951.5C 427.239,946.63 433.739,942.13 440.5,938C 445.827,934.511 448.327,929.677 448,923.5C 446.833,922.333 445.667,921.167 444.5,920C 439.245,918.953 434.245,919.453 429.5,921.5C 428.345,918.554 428.179,915.554 429,912.5C 430.622,911.901 432.122,911.234 433.5,910.5 Z"/></g>
<g><path style="opacity:1" fill="#f6f9f8" d="M 750.5,855.5 C 764.594,855.753 770.428,862.753 768,876.5C 760.433,887.23 751.766,888.23 742,879.5C 736.718,868.43 739.551,860.43 750.5,855.5 Z"/></g>
<g><path style="opacity:1" fill="#f6f9f8" d="M 271.5,855.5 C 285.562,855.724 291.395,862.724 289,876.5C 281.433,887.23 272.766,888.23 263,879.5C 257.388,868.267 260.221,860.267 271.5,855.5 Z"/></g>
<g><path style="opacity:1" fill="#f2362b" d="M 413.5,824.5 C 416.187,824.336 418.854,824.503 421.5,825C 429.593,828.031 437.926,830.031 446.5,831C 448.315,831.757 449.981,832.59 451.5,833.5C 438.3,832.366 425.633,829.366 413.5,824.5 Z"/></g>
<g><path style="opacity:1" fill="#f0473c" d="M 392.5,816.5 C 395.522,816.804 398.522,817.304 401.5,818C 405.452,820.344 409.452,822.511 413.5,824.5C 405.985,822.998 398.985,820.331 392.5,816.5 Z"/></g>
<g><path style="opacity:1" fill="#f24840" d="M 561.5,779.5 C 556.617,780.995 551.617,782.495 546.5,784C 529.328,784.828 512.328,784.662 495.5,783.5C 517.676,784.497 539.676,783.164 561.5,779.5 Z"/></g>
<g><path style="opacity:1" fill="#dc8e8d" d="M 308.5,776.5 C 311.625,779.234 314.958,781.734 318.5,784C 319.451,784.718 319.617,785.551 319,786.5C 314.825,783.842 310.992,780.842 307.5,777.5C 308.167,777.5 308.5,777.167 308.5,776.5 Z"/></g>
<g><path style="opacity:1" fill="#dc6e6c" d="M 722.5,770.5 C 722.5,771.167 722.833,771.5 723.5,771.5C 721.621,774.115 719.288,776.281 716.5,778C 714.945,779.289 713.279,779.956 711.5,780C 715.334,776.998 719,773.831 722.5,770.5 Z"/></g>
<g><path style="opacity:1" fill="#eb3931" d="M 285.5,754.5 C 292.55,762.516 300.216,769.85 308.5,776.5C 308.5,777.167 308.167,777.5 307.5,777.5C 298.571,771.203 290.238,764.203 282.5,756.5C 283.496,756.414 284.329,756.748 285,757.5C 285.483,756.552 285.649,755.552 285.5,754.5 Z"/></g>
<g><path style="opacity:1" fill="#88b8af" d="M 428.5,726.5 C 428.5,734.167 428.5,741.833 428.5,749.5C 483.833,749.5 539.167,749.5 594.5,749.5C 594.5,741.833 594.5,734.167 594.5,726.5C 595.492,734.316 595.826,742.316 595.5,750.5C 539.5,750.5 483.5,750.5 427.5,750.5C 427.174,742.316 427.508,734.316 428.5,726.5 Z"/></g>
<g><path style="opacity:1" fill="#f4f8f8" d="M 154.5,720.5 C 166.824,720.308 175.324,725.975 180,737.5C 180.667,741.833 180.667,746.167 180,750.5C 177.175,754.325 174.008,757.825 170.5,761C 161.564,766.715 152.731,772.548 144,778.5C 141.051,775.592 139.051,772.259 138,768.5C 147.16,761.919 156.494,755.586 166,749.5C 172.066,740.92 170.066,735.253 160,732.5C 157.747,732.631 155.581,733.131 153.5,734C 144.5,740.167 135.5,746.333 126.5,752.5C 123.812,749.638 121.479,746.472 119.5,743C 128.167,737 136.833,731 145.5,725C 148.592,723.454 151.592,721.954 154.5,720.5 Z"/></g>
<g><path style="opacity:1" fill="#f6f9f9" d="M 858.5,716.5 C 859.552,716.351 860.552,716.517 861.5,717C 875.37,726.096 889.037,735.43 902.5,745C 898.464,751.568 894.298,758.068 890,764.5C 880.804,773.079 872.471,772.412 865,762.5C 863.763,758.94 863.263,755.273 863.5,751.5C 854.183,752.752 844.85,752.752 835.5,751.5C 837.5,748.5 839.5,745.5 841.5,742.5C 849.479,741.668 857.479,741.168 865.5,741C 867.5,740.333 868.833,739 869.5,737C 863.778,733.477 858.445,729.477 853.5,725C 855.045,722.073 856.712,719.24 858.5,716.5 Z"/></g>
<g><path style="opacity:1" fill="#2a7f6d" d="M 876.5,742.5 C 881.12,743.942 885.12,746.442 888.5,750C 886.68,755.52 883.013,758.187 877.5,758C 873.139,755.774 871.639,752.274 873,747.5C 874.176,745.804 875.343,744.138 876.5,742.5 Z"/></g>
<g><path style="opacity:1" fill="#f2726e" d="M 658.5,674.5 C 658.23,679.45 657.23,684.117 655.5,688.5C 655.77,683.55 656.77,678.883 658.5,674.5 Z"/></g>
<g><path style="opacity:1" fill="#f8aba9" d="M 297.5,679.5 C 299.13,683.911 300.13,688.578 300.5,693.5C 298.044,689.274 297.044,684.607 297.5,679.5 Z"/></g>
<g><path style="opacity:1" fill="#f3f7f6" d="M 881.5,673.5 C 896.901,681.284 912.401,688.95 928,696.5C 924.628,705.912 920.128,714.912 914.5,723.5C 912.615,722.391 910.615,721.557 908.5,721C 907.919,720.107 907.585,719.107 907.5,718C 909.691,713.118 912.024,708.285 914.5,703.5C 911.04,700.493 907.207,699.16 903,699.5C 900.74,703.516 898.907,707.683 897.5,712C 893.621,712.559 890.621,711.226 888.5,708C 890.881,703.532 892.881,698.865 894.5,694C 891.727,692.173 888.894,690.339 886,688.5C 885.228,688.645 884.561,688.978 884,689.5C 881.628,694.412 879.128,699.245 876.5,704C 872.815,704.988 869.815,703.988 867.5,701C 871.789,691.588 876.455,682.422 881.5,673.5 Z"/></g>
<g><path style="opacity:1" fill="#a5c8c1" d="M 547.5,681.5 C 546.22,682.931 544.553,683.598 542.5,683.5C 542.5,681.5 542.5,679.5 542.5,677.5C 504.833,677.5 467.167,677.5 429.5,677.5C 429.5,676.167 429.5,674.833 429.5,673.5C 467.5,673.5 505.5,673.5 543.5,673.5C 543.335,676.518 543.502,679.518 544,682.5C 545.011,681.663 546.178,681.33 547.5,681.5 Z"/></g>
<g><path style="opacity:1" fill="#f2f7f6" d="M 138.5,668.5 C 140.017,668.511 141.184,669.177 142,670.5C 145.356,678.216 149.023,685.883 153,693.5C 153.667,694.5 153.667,695.5 153,696.5C 137.707,704.732 122.207,712.232 106.5,719C 105.368,716.256 103.868,713.756 102,711.5C 101.251,710.365 101.417,709.365 102.5,708.5C 114.843,702.078 127.343,696.078 140,690.5C 138.279,684.391 135.445,678.724 131.5,673.5C 133.687,671.578 136.02,669.912 138.5,668.5 Z"/></g>
<g><path style="opacity:1" fill="#418b7b" d="M 479.5,663.5 C 485.842,663.334 492.175,663.5 498.5,664C 495.323,665.945 491.823,666.779 488,666.5C 485.833,666.333 483.667,666.167 481.5,666C 480.244,665.583 479.577,664.75 479.5,663.5 Z"/></g>
<g><path style="opacity:1" fill="#f2f7f6" d="M 127.5,639.5 C 128.496,639.414 129.329,639.748 130,640.5C 132.318,646.769 134.485,653.103 136.5,659.5C 133.426,659.873 130.426,660.539 127.5,661.5C 127.5,660.5 127.5,659.5 127.5,658.5C 125.801,658.34 124.134,658.506 122.5,659C 113.245,662.798 103.911,666.298 94.5,669.5C 94.8333,671.5 95.1667,673.5 95.5,675.5C 92.4116,676.068 89.4116,676.068 86.5,675.5C 84.9438,670.722 83.1105,666.055 81,661.5C 80.5908,657.732 82.4241,655.732 86.5,655.5C 88.3805,655.925 89.8805,656.925 91,658.5C 101.473,655.172 111.64,651.172 121.5,646.5C 120.572,645.232 120.405,643.899 121,642.5C 123.294,641.578 125.461,640.578 127.5,639.5 Z"/></g>
<g><path style="opacity:1" fill="#f2f7f6" d="M 895.5,634.5 C 909.054,638.932 922.554,643.599 936,648.5C 936.945,648.095 937.612,647.428 938,646.5C 939.013,642.78 940.18,639.114 941.5,635.5C 942,635.167 942.5,634.833 943,634.5C 944.927,635.861 947.094,636.694 949.5,637C 950.554,638.388 950.72,639.888 950,641.5C 945.602,652.693 941.602,664.027 938,675.5C 934.93,676.492 931.93,676.159 929,674.5C 929.923,670.042 931.09,665.542 932.5,661C 932.167,660.5 931.833,660 931.5,659.5C 918.839,655.001 906.172,650.501 893.5,646C 893.043,645.586 892.709,645.086 892.5,644.5C 894.121,641.348 895.121,638.015 895.5,634.5 Z"/></g>
<g><path style="opacity:1" fill="#f5f9f8" d="M 107.5,579.5 C 109.5,579.5 111.5,579.5 113.5,579.5C 114.338,583.499 114.838,587.499 115,591.5C 105.5,601.667 96,611.833 86.5,622C 97.5576,620.087 108.558,617.587 119.5,614.5C 122.775,617.313 124.108,620.98 123.5,625.5C 106.523,629.496 89.5228,633.496 72.5,637.5C 72.0703,633.518 71.0703,629.685 69.5,626C 79.1721,615.662 88.8388,605.328 98.5,595C 87.2524,596.984 76.0857,599.484 65,602.5C 63.534,599.269 62.3674,595.935 61.5,592.5C 76.305,587.955 91.305,584.122 106.5,581C 107.056,580.617 107.389,580.117 107.5,579.5 Z"/></g>
<g><path style="opacity:1" fill="#94beb6" d="M 928.5,562.5 C 923.817,561.926 919.15,561.26 914.5,560.5C 914.167,563.833 913.833,567.167 913.5,570.5C 914.791,570.263 915.791,570.596 916.5,571.5C 915.167,571.5 913.833,571.5 912.5,571.5C 912.505,567.466 912.838,563.466 913.5,559.5C 918.795,559.678 923.795,560.678 928.5,562.5 Z"/></g>
<g><path style="opacity:1" fill="#f3f8f7" d="M 928.5,562.5 C 940.707,565.054 953.04,567.054 965.5,568.5C 965.578,572.954 964.911,577.287 963.5,581.5C 950.918,587.293 938.252,592.793 925.5,598C 936.297,601.233 947.297,603.399 958.5,604.5C 958.577,608.215 958.244,611.881 957.5,615.5C 940.096,612.933 922.763,609.933 905.5,606.5C 905.469,602.07 906.469,597.903 908.5,594C 921.126,588.69 933.793,583.357 946.5,578C 936.434,575.936 926.434,573.769 916.5,571.5C 915.791,570.596 914.791,570.263 913.5,570.5C 913.833,567.167 914.167,563.833 914.5,560.5C 919.15,561.26 923.817,561.926 928.5,562.5 Z"/></g>
<g><path style="opacity:1" fill="#f5aba9" d="M 849.5,546.5 C 849.556,551.731 848.889,556.731 847.5,561.5C 847.444,556.269 848.111,551.269 849.5,546.5 Z"/></g>
<g><path style="opacity:1" fill="#f08b88" d="M 174.5,546.5 C 175.857,552.31 176.857,558.31 177.5,564.5C 175.4,558.82 174.4,552.82 174.5,546.5 Z"/></g>
<g><path style="opacity:1" fill="#f3f8f7" d="M 104.5,516.5 C 105.765,517.514 106.431,519.014 106.5,521C 107.169,524.499 107.336,527.999 107,531.5C 99.8333,537.333 92.6667,543.167 85.5,549C 93.6234,549.758 101.623,549.258 109.5,547.5C 109.5,551.833 109.5,556.167 109.5,560.5C 92.198,561.996 74.8647,562.996 57.5,563.5C 57.3542,559.481 57.0209,555.481 56.5,551.5C 63.8807,551.686 71.2141,551.186 78.5,550C 70.7482,545.374 62.9149,540.874 55,536.5C 54.1725,532.129 54.3391,527.795 55.5,523.5C 63.7001,528.765 72.0334,533.765 80.5,538.5C 88.82,531.513 96.82,524.18 104.5,516.5 Z"/></g>
<g><path style="opacity:1" fill="#80b3a9" d="M 477.5,518.5 C 477.5,519.5 477.5,520.5 477.5,521.5C 485.833,521.5 494.167,521.5 502.5,521.5C 501.515,538.756 501.181,556.09 501.5,573.5C 500.503,557.008 500.17,540.342 500.5,523.5C 493.167,523.5 485.833,523.5 478.5,523.5C 476.568,522.024 476.235,520.357 477.5,518.5 Z"/></g>
<g><path style="opacity:1" fill="#83d7c5" d="M 159.5,472.5 C 157.132,505.344 158.466,538.01 163.5,570.5C 162.044,567.386 160.878,564.052 160,560.5C 157.517,534.279 156.851,507.945 158,481.5C 158.181,478.305 158.681,475.305 159.5,472.5 Z"/></g>
<g><path style="opacity:1" fill="#ed7e7c" d="M 172.5,524.5 C 173.636,530.641 174.303,536.974 174.5,543.5C 172.906,537.406 172.239,531.072 172.5,524.5 Z"/></g>
<g><path style="opacity:1" fill="#207c69" d="M 478.5,523.5 C 485.833,523.5 493.167,523.5 500.5,523.5C 500.17,540.342 500.503,557.008 501.5,573.5C 504.034,576.867 506.367,580.367 508.5,584C 513.155,584.499 517.821,584.666 522.5,584.5C 522.286,586.144 522.62,587.644 523.5,589C 529.5,589.333 535.5,589.667 541.5,590C 558.773,611.938 575.273,634.438 591,657.5C 601.012,677.271 597.512,694.104 580.5,708C 575.083,710.543 569.416,712.21 563.5,713C 562.533,717.401 562.2,721.901 562.5,726.5C 573.167,726.5 583.833,726.5 594.5,726.5C 594.5,734.167 594.5,741.833 594.5,749.5C 539.167,749.5 483.833,749.5 428.5,749.5C 428.5,741.833 428.5,734.167 428.5,726.5C 434.167,726.5 439.833,726.5 445.5,726.5C 445.5,723.833 445.5,721.167 445.5,718.5C 453.507,718.666 461.507,718.5 469.5,718C 474.981,713.846 480.814,710.346 487,707.5C 492.518,710.008 498.018,712.675 503.5,715.5C 504.496,709.537 504.829,703.537 504.5,697.5C 489.5,697.5 474.5,697.5 459.5,697.5C 459.5,692.833 459.5,688.167 459.5,683.5C 449.5,683.5 439.5,683.5 429.5,683.5C 429.5,681.5 429.5,679.5 429.5,677.5C 467.167,677.5 504.833,677.5 542.5,677.5C 542.5,679.5 542.5,681.5 542.5,683.5C 544.553,683.598 546.22,682.931 547.5,681.5C 558.872,675.598 563.039,666.265 560,653.5C 555.971,644.478 549.138,638.644 539.5,636C 528.172,635.5 516.838,635.333 505.5,635.5C 505.817,638.572 505.484,641.572 504.5,644.5C 503.264,645.246 501.93,645.579 500.5,645.5C 500.5,650.833 500.5,656.167 500.5,661.5C 492.833,661.5 485.167,661.5 477.5,661.5C 477.828,656.125 477.495,650.792 476.5,645.5C 473.122,644.409 469.789,643.409 466.5,642.5C 465.301,646.099 464.301,649.765 463.5,653.5C 459.848,652.503 456.182,652.336 452.5,653C 450.112,651.139 447.446,649.806 444.5,649C 443.978,648.439 443.645,647.772 443.5,647C 445.658,641.867 447.825,636.701 450,631.5C 448.424,625.708 449.757,620.708 454,616.5C 459.111,618.639 464.278,620.639 469.5,622.5C 470.167,610.833 470.833,599.167 471.5,587.5C 473.246,585.146 475.579,584.146 478.5,584.5C 478.5,564.167 478.5,543.833 478.5,523.5 Z"/></g>
<g><path style="opacity:1" fill="#e3f0ee" d="M 493.5,592.5 C 507.666,591.824 511.333,597.657 504.5,610C 493.064,613.562 487.898,609.396 489,597.5C 490.059,595.341 491.559,593.674 493.5,592.5 Z"/></g>
<g><path style="opacity:1" fill="#3c8877" d="M 494.5,595.5 C 504.02,594.899 506.687,598.899 502.5,607.5C 496.082,610.275 492.415,608.275 491.5,601.5C 491.628,599.045 492.628,597.045 494.5,595.5 Z"/></g>
<g><path style="opacity:1" fill="#317f6e" d="M 502.5,521.5 C 494.167,521.5 485.833,521.5 477.5,521.5C 477.5,520.5 477.5,519.5 477.5,518.5C 485.323,517.344 493.323,517.177 501.5,518C 502.337,519.011 502.67,520.178 502.5,521.5 Z"/></g>
<g><path style="opacity:1" fill="#f4f8f7" d="M 947.5,541.5 C 944.5,541.5 941.5,541.5 938.5,541.5C 938.5,535.833 938.5,530.167 938.5,524.5C 934.298,524.183 930.298,524.517 926.5,525.5C 926.167,531.5 925.833,537.5 925.5,543.5C 922.167,543.5 918.833,543.5 915.5,543.5C 916.043,532.841 916.377,522.175 916.5,511.5C 934.16,512.611 951.827,513.611 969.5,514.5C 969.25,524.503 968.916,534.503 968.5,544.5C 965.5,544.5 962.5,544.5 959.5,544.5C 959.5,538.167 959.5,531.833 959.5,525.5C 955.5,525.5 951.5,525.5 947.5,525.5C 947.5,530.833 947.5,536.167 947.5,541.5 Z"/></g>
<g><path style="opacity:1" fill="#8cbab0" d="M 926.5,525.5 C 930.298,524.517 934.298,524.183 938.5,524.5C 938.5,530.167 938.5,535.833 938.5,541.5C 941.5,541.5 944.5,541.5 947.5,541.5C 944.375,542.479 941.042,542.813 937.5,542.5C 937.5,536.833 937.5,531.167 937.5,525.5C 933.833,525.5 930.167,525.5 926.5,525.5 Z"/></g>
<g><path style="opacity:1" fill="#f29996" d="M 173.5,474.5 C 172.905,489.493 172.572,504.493 172.5,519.5C 171.834,513.509 171.5,507.343 171.5,501C 171.309,491.947 171.976,483.114 173.5,474.5 Z"/></g>
<g><path style="opacity:1" fill="#f3f8f7" d="M 933.5,452.5 C 961.464,450.796 973.464,463.796 969.5,491.5C 965.833,491.5 962.167,491.5 958.5,491.5C 963.505,476.826 958.672,467.826 944,464.5C 929.16,465.344 923.494,473.011 927,487.5C 928.411,489.65 929.245,491.984 929.5,494.5C 925.774,494.823 922.107,494.489 918.5,493.5C 910.045,474.432 915.045,460.766 933.5,452.5 Z"/></g>
</svg>
