<svg xmlns="http://www.w3.org/2000/svg" viewBox="0 0 500 500"><g id="freepik--background-simple--inject-83"><path d="M143,120.82c21.24-11.22,48.45-13.5,70.07-2,18.62,9.94,25.32,30.07,31.85,48.75,9.13,26.12,24.87,56.16,57.16,38.31,22.07-12.21,44.75-34.38,72.21-22.38,25,10.91,30.25,42.24,22.91,66C373.36,326.38,276.61,355.58,205.51,332,140.3,310.41,66.39,231.61,103.64,159.2,111.72,143.49,126.13,129.71,143,120.82Z" style="fill:#1D7C68"></path><path d="M143,120.82c21.24-11.22,48.45-13.5,70.07-2,18.62,9.94,25.32,30.07,31.85,48.75,9.13,26.12,24.87,56.16,57.16,38.31,22.07-12.21,44.75-34.38,72.21-22.38,25,10.91,30.25,42.24,22.91,66C373.36,326.38,276.61,355.58,205.51,332,140.3,310.41,66.39,231.61,103.64,159.2,111.72,143.49,126.13,129.71,143,120.82Z" style="fill:#fff;isolation:isolate;opacity:0.9"></path></g><g id="freepik--Shadow--inject-83"><ellipse id="freepik--path--inject-83" cx="250" cy="416.24" rx="193.89" ry="11.32" style="fill:#f5f5f5"></ellipse></g><g id="freepik--Table--inject-83"><path d="M399.19,265.87v22.5l7.09-3.74c2.39-1.26,4.12-4.86,4.43-9.19l.07-1.1c.32-4.5-1.69-8.47-4.28-8.47Zm7.91,16.24-6.32,3.33V268.8h5.81c1.7,0,3,2.6,2.81,5.56l-.24,3.47C409,279.84,408.21,281.52,407.1,282.11Z" style="fill:#263238"></path><path d="M399.19,265.87v22.5l7.09-3.74c2.39-1.26,4.12-4.86,4.43-9.19l.07-1.1c.32-4.5-1.69-8.47-4.28-8.47Zm7.91,16.24-6.32,3.33V268.8h5.81c1.7,0,3,2.6,2.81,5.56l-.24,3.47C409,279.84,408.21,281.52,407.1,282.11Z" style="fill:#fff;opacity:0.4"></path><polygon points="408.04 295.81 384.51 295.81 387.68 263.78 403.7 263.73 408.04 295.81" style="fill:#263238"></polygon><polygon points="408.04 295.81 384.51 295.81 387.68 263.78 403.7 263.73 408.04 295.81" style="fill:#fff;opacity:0.6000000000000001"></polygon><rect x="351.3" y="298.69" width="71.09" height="97.38" style="fill:#263238"></rect><rect x="351.3" y="298.69" width="71.09" height="97.38" style="fill:#fff;opacity:0.4"></rect><rect x="351.3" y="302.44" width="84.6" height="7.13" rx="3.09" style="fill:#263238"></rect><rect x="351.3" y="302.44" width="84.6" height="7.13" rx="3.09" style="fill:#fff;opacity:0.7000000000000001"></rect><rect x="400.88" y="304.04" width="35.02" height="16.4" rx="3.33" style="fill:#263238"></rect><rect x="400.88" y="304.04" width="35.02" height="16.4" rx="3.33" style="fill:#fff;opacity:0.5"></rect><path d="M419.51,301.57H354.18a2.88,2.88,0,0,1-2.88-2.88h0a2.88,2.88,0,0,1,2.88-2.88h65.33a2.88,2.88,0,0,1,2.88,2.88h0A2.88,2.88,0,0,1,419.51,301.57Z" style="fill:#263238"></path><path d="M419.51,301.57H354.18a2.88,2.88,0,0,1-2.88-2.88h0a2.88,2.88,0,0,1,2.88-2.88h65.33a2.88,2.88,0,0,1,2.88,2.88h0A2.88,2.88,0,0,1,419.51,301.57Z" style="fill:#fff;opacity:0.5"></path><rect x="410.76" y="366.53" width="25.14" height="29.54" style="fill:#263238"></rect><rect x="410.76" y="366.53" width="25.14" height="29.54" style="fill:#fff;opacity:0.6000000000000001"></rect><polygon points="377.94 295.81 370.27 295.81 368.27 278.01 379.44 278.01 377.94 295.81" style="fill:#263238"></polygon><polygon points="377.94 295.81 370.27 295.81 368.27 278.01 379.44 278.01 377.94 295.81" style="fill:#fff;opacity:0.6000000000000001"></polygon><rect x="351.3" y="341.66" width="59.07" height="54.38" style="fill:#263238"></rect><rect x="351.3" y="341.66" width="59.07" height="54.38" style="fill:#fff;opacity:0.7000000000000001"></rect><rect x="351.3" y="325.45" width="59.07" height="15.3" style="fill:#263238"></rect><rect x="351.3" y="325.45" width="59.07" height="15.3" style="fill:#fff;opacity:0.6000000000000001"></rect><rect x="355.71" y="358.79" width="3.43" height="19.8" style="fill:#263238"></rect><rect x="355.71" y="358.79" width="3.43" height="19.8" style="fill:#fff;opacity:0.4"></rect><rect x="371.49" y="327.3" width="18.69" height="4" style="fill:#263238"></rect><rect x="371.49" y="327.3" width="18.69" height="4" style="fill:#fff;opacity:0.4"></rect><rect x="413.45" y="307.06" width="9.88" height="2.52" style="fill:#263238"></rect><rect x="413.45" y="307.06" width="9.88" height="2.52" style="fill:#fff;opacity:0.4"></rect><polygon points="392.1 263.77 388.18 270.07 386.18 263.73 392.1 263.77" style="fill:#263238"></polygon><polygon points="392.1 263.77 388.18 270.07 386.18 263.73 392.1 263.77" style="fill:#fff;opacity:0.4"></polygon><path d="M403.64,263.73H387.45v-.08a5.89,5.89,0,0,1,5.81-5.26h4.57a5.89,5.89,0,0,1,5.81,5.34Z" style="fill:#263238"></path><path d="M403.64,263.73H387.45v-.08a5.89,5.89,0,0,1,5.81-5.26h4.57a5.89,5.89,0,0,1,5.81,5.34Z" style="fill:#fff;opacity:0.5"></path><path d="M349.85,409.25A5.15,5.15,0,1,0,355,404.1,5.14,5.14,0,0,0,349.85,409.25Z" style="fill:#263238"></path><path d="M353,409.25a2,2,0,1,0,2-2A2,2,0,0,0,353,409.25Z" style="opacity:0.30000000000000004"></path><path d="M355,409.25l-5.15-1.94a5.15,5.15,0,0,1,4.36-3.82,5.35,5.35,0,0,1,5.38,2.4Z" style="fill:#263238"></path><path d="M355,409.25l-5.15-1.94a5.15,5.15,0,0,1,4.36-3.82,5.35,5.35,0,0,1,5.38,2.4Z" style="fill:#fff;opacity:0.30000000000000004"></path><rect x="351.3" y="396.04" width="7.39" height="7.39" style="fill:#263238"></rect><rect x="351.3" y="396.04" width="7.39" height="7.39" style="fill:#fff;opacity:0.30000000000000004"></rect><path d="M401.08,409.25a5.15,5.15,0,1,0,5.15-5.15A5.15,5.15,0,0,0,401.08,409.25Z" style="fill:#263238"></path><path d="M404.19,409.25a2,2,0,1,0,2-2A2,2,0,0,0,404.19,409.25Z" style="opacity:0.30000000000000004"></path><path d="M406.23,409.25l-5.15-1.94a5.15,5.15,0,0,1,4.37-3.82,5.35,5.35,0,0,1,5.37,2.4Z" style="fill:#263238"></path><path d="M406.23,409.25l-5.15-1.94a5.15,5.15,0,0,1,4.37-3.82,5.35,5.35,0,0,1,5.37,2.4Z" style="fill:#fff;opacity:0.30000000000000004"></path><rect x="403.04" y="396.09" width="7.33" height="7.33" style="fill:#263238"></rect><rect x="403.04" y="396.09" width="7.33" height="7.33" style="fill:#fff;opacity:0.30000000000000004"></rect><path d="M427.34,409.25a5.15,5.15,0,1,0,5.15-5.15A5.15,5.15,0,0,0,427.34,409.25Z" style="fill:#263238"></path><path d="M430.45,409.25a2,2,0,1,0,2-2A2,2,0,0,0,430.45,409.25Z" style="opacity:0.30000000000000004"></path><path d="M432.49,409.25l-5.15-1.94a5.15,5.15,0,0,1,4.37-3.82,5.35,5.35,0,0,1,5.37,2.4Z" style="fill:#263238"></path><path d="M432.49,409.25l-5.15-1.94a5.15,5.15,0,0,1,4.37-3.82,5.35,5.35,0,0,1,5.37,2.4Z" style="fill:#fff;opacity:0.30000000000000004"></path><rect x="428.58" y="396.21" width="7.22" height="7.22" style="fill:#263238"></rect><rect x="428.58" y="396.21" width="7.22" height="7.22" style="fill:#fff;opacity:0.30000000000000004"></rect></g><g id="freepik--Device--inject-83"><path d="M175.27,253.31h38.1a0,0,0,0,1,0,0v1.54a6,6,0,0,1-6,6H181.23a6,6,0,0,1-6-6v-1.54a0,0,0,0,1,0,0Z" style="fill:#1D7C68"></path><path d="M175.27,253.31h38.1a0,0,0,0,1,0,0v1.54a6,6,0,0,1-6,6H181.23a6,6,0,0,1-6-6v-1.54a0,0,0,0,1,0,0Z" style="fill:#fff;opacity:0.30000000000000004"></path><rect x="187.23" y="260.81" width="14.18" height="138.75" style="fill:#263238"></rect><rect x="187.23" y="260.81" width="14.18" height="138.75" style="fill:#fff;opacity:0.5"></rect><rect x="160.53" y="399.56" width="67.57" height="6.07" style="fill:#263238"></rect><rect x="160.53" y="399.56" width="67.57" height="6.07" style="fill:#fff;opacity:0.30000000000000004"></rect><circle cx="228.11" cy="411" r="5.36" style="fill:#263238"></circle><circle cx="228.11" cy="411" r="2.66" style="opacity:0.30000000000000004"></circle><polygon points="222.75 408.31 225.52 411 228.11 411 228.11 405.63 222.75 405.63 222.75 408.31" style="fill:#263238"></polygon><polygon points="222.75 408.31 225.52 411 228.11 411 228.11 405.63 222.75 405.63 222.75 408.31" style="fill:#fff;opacity:0.2"></polygon><circle cx="160.53" cy="411" r="5.36" style="fill:#263238"></circle><circle cx="160.53" cy="411" r="2.66" style="opacity:0.30000000000000004"></circle><polygon points="165.9 408.31 163.12 411 160.53 411 160.53 405.63 165.9 405.63 165.9 408.31" style="fill:#263238"></polygon><polygon points="165.9 408.31 163.12 411 160.53 411 160.53 405.63 165.9 405.63 165.9 408.31" style="fill:#fff;opacity:0.2"></polygon><rect x="169.34" y="221.99" width="49.95" height="31.32" rx="7.05" style="fill:#1D7C68"></rect><rect x="169.34" y="221.99" width="49.95" height="31.32" rx="7.05" style="fill:#fff;opacity:0.5"></rect><rect x="175.34" y="224.9" width="29.1" height="20.82" style="fill:#e0e0e0"></rect><circle cx="215.92" cy="247.38" r="2.62" style="fill:#263238"></circle><ellipse cx="216.37" cy="240.41" rx="2.17" ry="0.9" style="fill:#263238"></ellipse><ellipse cx="216.37" cy="237.78" rx="2.17" ry="0.9" style="fill:#263238"></ellipse><ellipse cx="216.37" cy="235.16" rx="2.17" ry="0.9" style="fill:#263238"></ellipse><ellipse cx="216.37" cy="232.53" rx="2.17" ry="0.9" style="fill:#263238"></ellipse><ellipse cx="216.37" cy="229.91" rx="2.17" ry="0.9" style="fill:#263238"></ellipse><ellipse cx="216.37" cy="227.28" rx="2.17" ry="0.9" style="fill:#263238"></ellipse><circle cx="209.24" cy="251.73" r="0.83" style="fill:#263238"></circle><circle cx="205.64" cy="251.73" r="0.83" style="fill:#263238"></circle><rect x="169.34" y="220.61" width="41.1" height="29.4" rx="5.74" style="fill:#1D7C68"></rect><rect x="169.34" y="220.61" width="41.1" height="29.4" rx="5.74" style="fill:#fff;opacity:0.2"></rect><rect x="173.49" y="225.15" width="33" height="21.08" style="fill:#263238"></rect><rect x="173.49" y="225.15" width="33" height="21.08" style="fill:#fff;opacity:0.7000000000000001"></rect><path d="M183.26,237.2a1.5,1.5,0,0,1-.52-.59,2,2,0,0,1-.19-.92,2,2,0,0,1,.19-.92,1.43,1.43,0,0,1,.52-.59,1.52,1.52,0,0,1,.77-.2,1.5,1.5,0,0,1,.77.2,1.36,1.36,0,0,1,.52.59,2,2,0,0,1,.19.92,2,2,0,0,1-.19.92,1.42,1.42,0,0,1-.52.59,1.5,1.5,0,0,1-.77.2A1.52,1.52,0,0,1,183.26,237.2Zm1.14-1.51c0-.55-.12-.83-.37-.83s-.37.28-.37.83.12.83.37.83S184.4,236.24,184.4,235.69Z" style="fill:#1D7C68"></path><path d="M186.5,237.2a1.45,1.45,0,0,1-.53-.59,2.19,2.19,0,0,1-.19-.92,2.15,2.15,0,0,1,.19-.92,1.38,1.38,0,0,1,.53-.59,1.46,1.46,0,0,1,.76-.2,1.5,1.5,0,0,1,.77.2,1.38,1.38,0,0,1,.53.59,2.15,2.15,0,0,1,.19.92,2.19,2.19,0,0,1-.19.92,1.45,1.45,0,0,1-.53.59,1.5,1.5,0,0,1-.77.2A1.46,1.46,0,0,1,186.5,237.2Zm1.14-1.51c0-.55-.13-.83-.38-.83s-.37.28-.37.83.13.83.37.83S187.64,236.24,187.64,235.69Z" style="fill:#1D7C68"></path><path d="M183.65,243.31a1.36,1.36,0,0,1-.52-.59,2,2,0,0,1-.19-.92,2,2,0,0,1,.19-.91,1.31,1.31,0,0,1,.52-.59,1.41,1.41,0,0,1,.77-.21,1.44,1.44,0,0,1,.77.21,1.37,1.37,0,0,1,.52.59,2,2,0,0,1,.19.91,2,2,0,0,1-.19.92,1.35,1.35,0,0,1-1.29.79A1.41,1.41,0,0,1,183.65,243.31Zm1.14-1.51c0-.55-.12-.82-.37-.82s-.38.27-.38.82.13.83.38.83S184.79,242.35,184.79,241.8Z" style="fill:#1D7C68"></path><path d="M186.88,243.31a1.43,1.43,0,0,1-.52-.59,2,2,0,0,1-.19-.92,2,2,0,0,1,.19-.91,1.37,1.37,0,0,1,.52-.59,1.44,1.44,0,0,1,.77-.21,1.41,1.41,0,0,1,.77.21,1.31,1.31,0,0,1,.52.59,2,2,0,0,1,.19.91,2,2,0,0,1-.19.92,1.36,1.36,0,0,1-.52.59,1.41,1.41,0,0,1-.77.2A1.43,1.43,0,0,1,186.88,243.31ZM188,241.8c0-.55-.13-.82-.38-.82s-.37.27-.37.82.12.83.37.83S188,242.35,188,241.8Z" style="fill:#1D7C68"></path><path d="M191.84,243.31a1.38,1.38,0,0,1-.53-.59,2.15,2.15,0,0,1-.19-.92,2.11,2.11,0,0,1,.19-.91,1.33,1.33,0,0,1,.53-.59,1.38,1.38,0,0,1,.76-.21,1.41,1.41,0,0,1,.77.21,1.33,1.33,0,0,1,.53.59,2.11,2.11,0,0,1,.19.91,2.15,2.15,0,0,1-.19.92,1.38,1.38,0,0,1-.53.59,1.41,1.41,0,0,1-.77.2A1.37,1.37,0,0,1,191.84,243.31ZM193,241.8c0-.55-.13-.82-.38-.82s-.37.27-.37.82.12.83.37.83S193,242.35,193,241.8Z" style="fill:#1D7C68"></path><path d="M195.07,243.31a1.36,1.36,0,0,1-.52-.59,2,2,0,0,1-.19-.92,2,2,0,0,1,.19-.91,1.31,1.31,0,0,1,.52-.59,1.41,1.41,0,0,1,.77-.21,1.44,1.44,0,0,1,.77.21,1.37,1.37,0,0,1,.52.59,2,2,0,0,1,.19.91,2,2,0,0,1-.19.92,1.35,1.35,0,0,1-1.29.79A1.41,1.41,0,0,1,195.07,243.31Zm1.14-1.51c0-.55-.12-.82-.37-.82s-.38.27-.38.82.13.83.38.83S196.21,242.35,196.21,241.8Z" style="fill:#1D7C68"></path><path d="M192.38,237.2a1.45,1.45,0,0,1-.53-.59,2.19,2.19,0,0,1-.18-.92,2.16,2.16,0,0,1,.18-.92,1.38,1.38,0,0,1,.53-.59,1.5,1.5,0,0,1,.77-.2,1.46,1.46,0,0,1,.76.2,1.38,1.38,0,0,1,.53.59,2.15,2.15,0,0,1,.19.92,2.19,2.19,0,0,1-.19.92,1.45,1.45,0,0,1-.53.59,1.46,1.46,0,0,1-.76.2A1.5,1.5,0,0,1,192.38,237.2Zm1.14-1.51c0-.55-.12-.83-.37-.83s-.38.28-.38.83.13.83.38.83S193.52,236.24,193.52,235.69Z" style="fill:#1D7C68"></path><path d="M195.61,237.2a1.42,1.42,0,0,1-.52-.59,2,2,0,0,1-.19-.92,2,2,0,0,1,.19-.92,1.36,1.36,0,0,1,.52-.59,1.58,1.58,0,0,1,1.54,0,1.36,1.36,0,0,1,.52.59,2,2,0,0,1,.19.92,2,2,0,0,1-.19.92,1.42,1.42,0,0,1-.52.59,1.58,1.58,0,0,1-1.54,0Zm1.14-1.51c0-.55-.12-.83-.37-.83s-.37.28-.37.83.12.83.37.83S196.75,236.24,196.75,235.69Z" style="fill:#1D7C68"></path><path d="M190.28,240.7h.47l-.77,2.2h-.47Z" style="fill:#1D7C68"></path><rect x="174.62" y="229.28" width="18.08" height="0.23" style="fill:#1D7C68"></rect><polygon points="194.03 231.35 194.03 227.76 193.86 227.76 193.86 231.35 193.86 231.53 194.03 231.53 205 231.53 205 231.35 194.03 231.35" style="fill:#1D7C68"></polygon><path d="M197.32,216.41h-12.6a2.25,2.25,0,0,1-2.25-2.25h0a2.25,2.25,0,0,1,2.25-2.25h12.6a2.25,2.25,0,0,1,2.25,2.25h0A2.25,2.25,0,0,1,197.32,216.41Z" style="fill:#1D7C68"></path><path d="M197.32,216.41h-12.6a2.25,2.25,0,0,1-2.25-2.25h0a2.25,2.25,0,0,1,2.25-2.25h12.6a2.25,2.25,0,0,1,2.25,2.25h0A2.25,2.25,0,0,1,197.32,216.41Z" style="fill:#fff;opacity:0.1"></path><path d="M182.47,213h0v7.65h-1.8v-5.85A1.8,1.8,0,0,1,182.47,213Z" style="fill:#263238"></path><path d="M182.47,213h0v7.65h-1.8v-5.85A1.8,1.8,0,0,1,182.47,213Z" style="fill:#fff;opacity:0.30000000000000004"></path><path d="M199.57,213h0v7.65h1.8v-5.85A1.8,1.8,0,0,0,199.57,213Z" style="fill:#263238"></path><path d="M199.57,213h0v7.65h1.8v-5.85A1.8,1.8,0,0,0,199.57,213Z" style="fill:#fff;opacity:0.30000000000000004"></path></g><g id="freepik--Bed--inject-83"><rect x="91.95" y="322.94" width="102.44" height="13.2" style="fill:#263238"></rect><rect x="91.95" y="322.94" width="102.44" height="13.2" style="fill:#fff;opacity:0.2"></rect><circle cx="80.53" cy="404.47" r="11.42" style="fill:#263238"></circle><path d="M85.83,404.47a5.3,5.3,0,1,1-5.3-5.3A5.29,5.29,0,0,1,85.83,404.47Z" style="opacity:0.2"></path><rect x="79.95" y="353.11" width="253.16" height="7.1" transform="translate(-52.54 36.12) rotate(-8.87)" style="fill:#263238"></rect><rect x="79.95" y="353.11" width="253.16" height="7.1" transform="translate(-52.54 36.12) rotate(-8.87)" style="fill:#fff;opacity:0.30000000000000004"></rect><rect x="79.95" y="353.11" width="253.16" height="7.1" transform="translate(355.58 740.91) rotate(-171.13)" style="fill:#263238"></rect><rect x="79.95" y="353.11" width="253.16" height="7.1" transform="translate(355.58 740.91) rotate(-171.13)" style="fill:#fff;opacity:0.2"></rect><path d="M168.63,299.49,86,271.66a3.61,3.61,0,0,0-4.56,2.26l-4.81,14.29a4.66,4.66,0,0,0,2.94,5.91l82.29,28.71H331.29a3.62,3.62,0,0,0,3.62-3.62V302.4a2.91,2.91,0,0,0-2.92-2.91Z" style="fill:#263238"></path><path d="M69.27,336.14H63.82A3.84,3.84,0,0,1,60,332.3v-52a3.84,3.84,0,0,1,3.84-3.84h1.61a3.84,3.84,0,0,1,3.81,3.34l3.84,29.33a4.07,4.07,0,0,1,0,.5V332.3A3.84,3.84,0,0,1,69.27,336.14Z" style="fill:#1D7C68"></path><path d="M69.27,336.14H63.82A3.84,3.84,0,0,1,60,332.3v-52a3.84,3.84,0,0,1,3.84-3.84h1.61a3.84,3.84,0,0,1,3.81,3.34l3.84,29.33a4.07,4.07,0,0,1,0,.5V332.3A3.84,3.84,0,0,1,69.27,336.14Z" style="fill:#fff;opacity:0.5"></path><path d="M339.11,332.15h5.45a3.84,3.84,0,0,0,3.84-3.84v-52a3.84,3.84,0,0,0-3.84-3.84H343a3.84,3.84,0,0,0-3.8,3.34l-3.85,29.33a4.19,4.19,0,0,0,0,.5v22.64A3.84,3.84,0,0,0,339.11,332.15Z" style="fill:#1D7C68"></path><path d="M339.11,332.15h5.45a3.84,3.84,0,0,0,3.84-3.84v-52a3.84,3.84,0,0,0-3.84-3.84H343a3.84,3.84,0,0,0-3.8,3.34l-3.85,29.33a4.19,4.19,0,0,0,0,.5v22.64A3.84,3.84,0,0,0,339.11,332.15Z" style="fill:#fff;opacity:0.5"></path><rect x="73.11" y="322.94" width="102.44" height="13.2" style="fill:#1D7C68"></rect><rect x="73.11" y="322.94" width="102.44" height="13.2" style="fill:#fff;opacity:0.4"></rect><rect x="177.12" y="322.94" width="158.15" height="13.2" style="fill:#1D7C68"></rect><rect x="177.12" y="322.94" width="158.15" height="13.2" style="fill:#fff;opacity:0.4"></rect><rect x="79.71" y="377.17" width="255.2" height="13.34" style="fill:#1D7C68"></rect><rect x="79.71" y="377.17" width="255.2" height="13.34" style="fill:#fff;opacity:0.4"></rect><path d="M59.5,255l-10.44,28.2a11.7,11.7,0,0,0,6.92,15L158,336c4.82,1.78,34-12.83,25.83-22.09S153,277.13,136.36,271L74.53,248.11A11.7,11.7,0,0,0,59.5,255Zm75,29.12a5.14,5.14,0,0,1,6.91-2.93c8.21,3.69,15.68,10.09,22.67,18.28a5.15,5.15,0,0,1-5.73,8.16l-23.8-8.81a5.15,5.15,0,0,1-3-6.62Zm-68-23.44a6.16,6.16,0,0,1,7.92-3.64l37.06,13.72a6.15,6.15,0,0,1,4,6.11l-.3,5.61a6.16,6.16,0,0,1-8.3,5.44L68.3,273.65a6.16,6.16,0,0,1-3.64-7.92Z" style="fill:#1D7C68"></path><path d="M59.5,255l-10.44,28.2a11.7,11.7,0,0,0,6.92,15L158,336c4.82,1.78,34-12.83,25.83-22.09S153,277.13,136.36,271L74.53,248.11A11.7,11.7,0,0,0,59.5,255Zm75,29.12a5.14,5.14,0,0,1,6.91-2.93c8.21,3.69,15.68,10.09,22.67,18.28a5.15,5.15,0,0,1-5.73,8.16l-23.8-8.81a5.15,5.15,0,0,1-3-6.62Zm-68-23.44a6.16,6.16,0,0,1,7.92-3.64l37.06,13.72a6.15,6.15,0,0,1,4,6.11l-.3,5.61a6.16,6.16,0,0,1-8.3,5.44L68.3,273.65a6.16,6.16,0,0,1-3.64-7.92Z" style="fill:#fff;opacity:0.7000000000000001"></path><path d="M84.06,368.65h2.59A4.35,4.35,0,0,1,91,373v4.17a0,0,0,0,1,0,0H79.71a0,0,0,0,1,0,0V373A4.35,4.35,0,0,1,84.06,368.65Z" style="fill:#263238"></path><path d="M84.06,368.65h2.59A4.35,4.35,0,0,1,91,373v4.17a0,0,0,0,1,0,0H79.71a0,0,0,0,1,0,0V373A4.35,4.35,0,0,1,84.06,368.65Z" style="fill:#fff;opacity:0.1"></path><path d="M84.06,336.14h2.59A4.35,4.35,0,0,1,91,340.49v4.17a0,0,0,0,1,0,0H79.71a0,0,0,0,1,0,0v-4.17A4.35,4.35,0,0,1,84.06,336.14Z" transform="translate(170.7 680.8) rotate(180)" style="fill:#263238"></path><path d="M84.06,336.14h2.59A4.35,4.35,0,0,1,91,340.49v4.17a0,0,0,0,1,0,0H79.71a0,0,0,0,1,0,0v-4.17A4.35,4.35,0,0,1,84.06,336.14Z" transform="translate(170.7 680.8) rotate(180)" style="fill:#fff;opacity:0.1"></path><path d="M328.38,336.14H331a4.35,4.35,0,0,1,4.35,4.35v4.17a0,0,0,0,1,0,0H324a0,0,0,0,1,0,0v-4.17A4.35,4.35,0,0,1,328.38,336.14Z" transform="translate(659.34 680.8) rotate(180)" style="fill:#263238"></path><path d="M328.38,336.14H331a4.35,4.35,0,0,1,4.35,4.35v4.17a0,0,0,0,1,0,0H324a0,0,0,0,1,0,0v-4.17A4.35,4.35,0,0,1,328.38,336.14Z" transform="translate(659.34 680.8) rotate(180)" style="fill:#fff;opacity:0.1"></path><path d="M328.38,368.65H331a4.35,4.35,0,0,1,4.35,4.35v4.17a0,0,0,0,1,0,0H324a0,0,0,0,1,0,0V373A4.35,4.35,0,0,1,328.38,368.65Z" style="fill:#263238"></path><path d="M328.38,368.65H331a4.35,4.35,0,0,1,4.35,4.35v4.17a0,0,0,0,1,0,0H324a0,0,0,0,1,0,0V373A4.35,4.35,0,0,1,328.38,368.65Z" style="fill:#fff;opacity:0.1"></path><circle cx="206.48" cy="356.66" r="8.43" transform="matrix(0.92, -0.38, 0.38, 0.92, -120.77, 106.17)" style="fill:#263238"></circle><circle cx="206.48" cy="356.66" r="8.43" transform="matrix(0.92, -0.38, 0.38, 0.92, -120.77, 106.17)" style="fill:#fff;opacity:0.1"></circle><path d="M321,323.71H255.07c-17.69,0-48.5,17.93-59.36,23.78s11.42,29.68,16.55,29.68H321a11.7,11.7,0,0,0,11.71-11.7V335.41A11.7,11.7,0,0,0,321,323.71Zm-68.77,21.58a5.16,5.16,0,0,1-5.16,5.15H221.69a5.16,5.16,0,0,1-2.55-9.64c9.4-5.25,18.63-8.66,27.6-9.27a5.15,5.15,0,0,1,5.48,5.14Zm71.91-1.63a6.16,6.16,0,0,1-6.16,6.17H276.79a6.17,6.17,0,0,1-5.89-8l1.66-5.36a6.17,6.17,0,0,1,5.89-4.35H318a6.16,6.16,0,0,1,6.16,6.17Z" style="fill:#1D7C68"></path><path d="M321,323.71H255.07c-17.69,0-48.5,17.93-59.36,23.78s11.42,29.68,16.55,29.68H321a11.7,11.7,0,0,0,11.71-11.7V335.41A11.7,11.7,0,0,0,321,323.71Zm-68.77,21.58a5.16,5.16,0,0,1-5.16,5.15H221.69a5.16,5.16,0,0,1-2.55-9.64c9.4-5.25,18.63-8.66,27.6-9.27a5.15,5.15,0,0,1,5.48,5.14Zm71.91-1.63a6.16,6.16,0,0,1-6.16,6.17H276.79a6.17,6.17,0,0,1-5.89-8l1.66-5.36a6.17,6.17,0,0,1,5.89-4.35H318a6.16,6.16,0,0,1,6.16,6.17Z" style="fill:#fff;opacity:0.7000000000000001"></path><rect x="268.95" y="321.54" width="30.44" height="2.79" style="fill:#263238"></rect><rect x="268.95" y="321.54" width="30.44" height="2.79" style="fill:#fff;opacity:0.2"></rect><rect x="85.35" y="313.23" width="30.44" height="2.79" transform="translate(116.39 -15.3) rotate(20.47)" style="fill:#263238"></rect><rect x="85.35" y="313.23" width="30.44" height="2.79" transform="translate(116.39 -15.3) rotate(20.47)" style="fill:#fff;opacity:0.2"></rect><polygon points="91.95 394.46 83.58 405.94 79.71 405.94 79.71 390.51 91.95 390.51 91.95 394.46" style="fill:#263238"></polygon><polygon points="91.95 394.46 83.58 405.94 79.71 405.94 79.71 390.51 91.95 390.51 91.95 394.46" style="fill:#fff;opacity:0.1"></polygon><circle cx="334.09" cy="404.47" r="11.42" style="fill:#263238"></circle><path d="M328.79,404.47a5.3,5.3,0,1,0,5.3-5.3A5.3,5.3,0,0,0,328.79,404.47Z" style="opacity:0.2"></path><polygon points="322.68 394.46 331.05 405.94 334.92 405.94 334.92 390.51 322.68 390.51 322.68 394.46" style="fill:#263238"></polygon><polygon points="322.68 394.46 331.05 405.94 334.92 405.94 334.92 390.51 322.68 390.51 322.68 394.46" style="fill:#fff;opacity:0.1"></polygon></g><g id="freepik--Character--inject-83"><path d="M272.24,202.54c.11.36.3.92.47,1.39l.53,1.49c.37,1,.77,2,1.2,3a59.36,59.36,0,0,0,2.8,5.65,27.64,27.64,0,0,0,7.49,8.92l.51.35s0,0,0,0,0,0,.12.07A3.41,3.41,0,0,0,287,223a21,21,0,0,0,4.67-3.39,65.23,65.23,0,0,0,4.58-4.66c1.49-1.63,2.95-3.39,4.33-5.09l4,2.4a59.12,59.12,0,0,1-7.73,12.26,25.92,25.92,0,0,1-5.93,5.37,11.64,11.64,0,0,1-4.87,1.78,8.52,8.52,0,0,1-3.29-.3,7.92,7.92,0,0,1-1.59-.65c-.38-.2-.63-.35-.95-.54a27.48,27.48,0,0,1-6.28-5.17,39.75,39.75,0,0,1-4.64-6.18,52.56,52.56,0,0,1-3.48-6.64c-.49-1.14-1-2.29-1.39-3.45-.21-.58-.42-1.17-.61-1.77s-.37-1.15-.57-1.89Z" style="fill:#ce7a63"></path><path d="M282,217l-9.78,7.3s-.38-.41-1-1.13l-1.71-2c-3.8-4.63-9.35-13.08-9.4-17.22-.06-6.17,6.34-7.08,13.53-.76,3.1,2.72,4.72,7.24,6.3,10,.52.92,1,1.73,1.3,2.36Z" style="fill:#1D7C68"></path><path d="M282,217l-9.78,7.3s-.38-.41-1-1.13l-1.71-2c-3.8-4.63-9.35-13.08-9.4-17.22-.06-6.17,6.34-7.08,13.53-.76,3.1,2.72,4.72,7.24,6.3,10,.52.92,1,1.73,1.3,2.36Z" style="fill:#fff;opacity:0"></path><path d="M260.05,204.62c2.21-1.46,3.82,2.32,8.19,5.52,1.95,1.42,6.21,10.71,5.86,12.76l-1.88,1.4S260,210.77,260.05,204.62Z" style="opacity:0.2"></path><path d="M299.85,210.85,302,204l5.53,4.05s-3,6.06-5.07,5.51Z" style="fill:#ce7a63"></path><polygon points="307.8 201.43 310.91 205.25 307.51 208.09 301.98 204.04 307.8 201.43" style="fill:#ce7a63"></polygon><path d="M292,229.86s1.65-1.83.58-8.24-1.88-14.58-.43-15.42l13.38-7.73.49,23.05Z" style="fill:#1D7C68"></path><path d="M292,229.86s1.65-1.83.58-8.24-1.88-14.58-.43-15.42l13.38-7.73.49,23.05Z" style="fill:#fff;opacity:0.7000000000000001"></path><path d="M294.46,231.1l-1.61-24.37a.85.85,0,0,1,.41-.8l13.45-8.36a.38.38,0,0,1,.58.31l1,23.68a.83.83,0,0,1-.37.75l-12.87,9.08A.39.39,0,0,1,294.46,231.1Z" style="fill:#1D7C68"></path><path d="M300,200.83c-.17.07-.24.37-.27.62l.55-.32C300.21,201,300.13,200.76,300,200.83Z" style="fill:none"></path><path d="M300.64,200.9c-.12-.29-.41-.75-.91-.47a1.7,1.7,0,0,0-.61,1.35c-.7.42-1.37.81-1.82,1.09a.31.31,0,0,0-.14.29l.24,1.62a.44.44,0,0,0,.66.31l4.52-2.9a1,1,0,0,0,.47-1l-.13-1.27a.22.22,0,0,0-.33-.18Zm-.68-.07c.17-.07.25.12.28.3l-.55.32C299.72,201.2,299.79,200.9,300,200.83Z" style="fill:#263238"></path><path d="M269.79,252.82s8.36,50.38,10.83,67.95c2.72,19.24,7.81,88.43,7.81,88.43H277s-9.49-64.43-13.91-83.13c-4.8-20.31-15.37-73.25-15.37-73.25Z" style="fill:#1D7C68"></path><path d="M269.79,252.82s8.36,50.38,10.83,67.95c2.72,19.24,7.81,88.43,7.81,88.43H277s-9.49-64.43-13.91-83.13c-4.8-20.31-15.37-73.25-15.37-73.25Z" style="opacity:0.2"></path><path d="M256.37,273.48c4.28,10.68,4.76,28.83,3,36.26-2.62-12.21-5.62-26.82-7.93-38.18C252.28,268.65,253.78,267,256.37,273.48Z" style="opacity:0.2"></path><path d="M269.79,252.82h-33.1c-.23-2.95.45-12.57-.06-24.81a157.33,157.33,0,0,0-3.29-27c-.15-.67-.3-1.33-.46-2,0,0,1.68-.35,4.09-.7,2-.29,4.49-.59,6.95-.71a124.34,124.34,0,0,1,14.06,0c2.17.21,4.28.56,6,.89,2.16.43,3.43.8,3.43.8S275.52,218,269.79,252.82Z" style="fill:#1D7C68"></path><path d="M269.79,252.82h-33.1c-.23-2.95.45-12.57-.06-24.81a157.33,157.33,0,0,0-3.29-27c-.15-.67-.3-1.33-.46-2,0,0,1.68-.35,4.09-.7,2-.29,4.49-.59,6.95-.71a124.34,124.34,0,0,1,14.06,0c2.17.21,4.28.56,6,.89,2.16.43,3.43.8,3.43.8S275.52,218,269.79,252.82Z" style="fill:#fff;opacity:0"></path><polygon points="241.45 409.92 247.64 409.92 248.44 395.59 242.26 395.59 241.45 409.92" style="fill:#ce7a63"></polygon><path d="M248,409.2h-7a.45.45,0,0,0-.46.43l-.33,5.5a1.09,1.09,0,0,0,1.08,1.1c2.42-.05,3.58-.19,6.63-.19,1.89,0,9.88.2,12.48.2s2.52-2.57,1.42-2.8c-4.93-1.05-11-2.48-12.8-3.86A1.76,1.76,0,0,0,248,409.2Z" style="fill:#263238"></path><path d="M285.92,409.2H279a.44.44,0,0,0-.46.43l-.34,5.5a1.09,1.09,0,0,0,1.08,1.1c2.42-.05,3.58-.19,6.64-.19,1.88,0,9.87.2,12.47.2s2.53-2.57,1.42-2.8c-4.93-1.05-11-2.48-12.8-3.86A1.76,1.76,0,0,0,285.92,409.2Z" style="fill:#263238"></path><polygon points="242.25 395.59 248.45 395.59 248.03 402.98 241.84 402.98 242.25 395.59" style="opacity:0.2"></polygon><path d="M236.63,228a157.33,157.33,0,0,0-3.29-27c2.21-.19,6,0,6.62,3.6C240.64,208.45,239.79,217.48,236.63,228Z" style="opacity:0.2"></path><g style="opacity:0.2"><polygon points="242.25 395.59 248.45 395.59 248.03 402.98 241.84 402.98 242.25 395.59" style="opacity:0.2"></polygon></g><path d="M257.7,252.82s.59,47.2-.41,64.88c-1.1,19.37-7.16,91.5-7.16,91.5H239.21s.48-70.57-.21-89.74c-.74-20.81-2.66-66.64-2.66-66.64Z" style="fill:#1D7C68"></path><path d="M257.7,252.82s.59,47.2-.41,64.88c-1.1,19.37-7.16,91.5-7.16,91.5H239.21s.48-70.57-.21-89.74c-.74-20.81-2.66-66.64-2.66-66.64Z" style="opacity:0.2"></path><polygon points="270.53 214.68 260.78 216.33 259.76 210.85 269.51 209.23 270.53 214.68" style="fill:#fff"></polygon><path d="M235.4,247.82l6.16-1.08-3.16,7.14s-5.63,0-5.37-2.94Z" style="fill:#ce7a63"></path><polygon points="246.16 250.33 243.26 256.09 238.4 253.88 241.56 246.74 246.16 250.33" style="fill:#ce7a63"></polygon><path d="M238.88,208l-1.46,2.54c-.5.86-1,1.74-1.45,2.63q-1.42,2.64-2.75,5.33c-.85,1.8-1.67,3.6-2.41,5.41-.35.91-.71,1.82-1,2.72l-.47,1.36-.4,1.35-.09.34-.05.17c0,.06,0,0,0,0s0,.07-.05.15a4,4,0,0,0,0,.77,11.12,11.12,0,0,0,.49,2.32,40.25,40.25,0,0,0,2.11,5.3c1.68,3.59,3.72,7.22,5.72,10.76l-3.66,2.86a69.48,69.48,0,0,1-8.24-10.12,39,39,0,0,1-3.34-6,19.56,19.56,0,0,1-1.22-3.72,11.76,11.76,0,0,1-.25-2.35,8.82,8.82,0,0,1,.1-1.41l.06-.35,0-.21.09-.43a62.12,62.12,0,0,1,4.14-12.81c.88-2,1.84-4,2.86-5.91.52-1,1-1.92,1.59-2.87S230.31,204,231,203Z" style="fill:#ce7a63"></path><path d="M241.1,210.29a117.35,117.35,0,0,1-5.37,12.56c-.44.92-.85,1.73-1.19,2.39-.58,1.16-.95,1.87-.95,1.87l-12.53-7s.15-.52.44-1.41c.21-.67.5-1.54.85-2.55,2.09-6,6.35-16.57,10.53-17.18C239.14,198.11,243.63,202.78,241.1,210.29Z" style="fill:#1D7C68"></path><path d="M241.1,210.29a117.35,117.35,0,0,1-5.37,12.56c-.44.92-.85,1.73-1.19,2.39-.58,1.16-.95,1.87-.95,1.87l-12.53-7s.15-.52.44-1.41c.21-.67.5-1.54.85-2.55,2.09-6,6.35-16.57,10.53-17.18C239.14,198.11,243.63,202.78,241.1,210.29Z" style="fill:#fff;opacity:0"></path><path d="M244.22,181.84,248,185l5.13,4.26a16.79,16.79,0,0,0-.33,2.07c-.27,2.78.45,5.31,4.54,6.27.63,1.34-1.33,6.38-2.71,6.11-2.26.31-10.72-4.28-11.23-6C246.44,194.63,245.26,186.37,244.22,181.84Z" style="fill:#ce7a63"></path><path d="M253.11,189.22a16.79,16.79,0,0,0-.33,2.07c-1.91-.39-4.46-2.42-4.73-4.38A8.9,8.9,0,0,1,248,185Z" style="opacity:0.2"></path><path d="M256.59,166c3.05,1.38,4.75,10,.86,11.82S250.81,163.41,256.59,166Z" style="fill:#263238"></path><path d="M242.67,175.32c1.31,6,1.77,9.59,5.32,12.34a8,8,0,0,0,12.95-5.76c.47-5.6-1.75-14.5-8.08-16.21A8.1,8.1,0,0,0,242.67,175.32Z" style="fill:#ce7a63"></path><path d="M235.87,169.14c-2.93,1.29-1.27,5.3.72,7.85,2.77,3.54,5.69,5.19,7.68,3.56,1.79-.9,3-6.16,1.41-9.41,2.75-1.81,12.15,1.29,15.16-6.17,1.35-3.34-1.16-8.94-6.95-8.71a6.55,6.55,0,0,1-1.09,2.43,10.55,10.55,0,0,1-1.4,1.62,11.44,11.44,0,0,1-1.78,1.38A7.8,7.8,0,0,1,243.9,163C237.67,161.64,232.94,165.68,235.87,169.14Z" style="fill:#263238"></path><path d="M255.24,169.64a8.63,8.63,0,0,0,6.53-8.16C262.39,165.85,259,170.23,255.24,169.64Z" style="fill:#263238"></path><path d="M241.28,181.6a6.67,6.67,0,0,0,3.82,2.27c1.9.32,2.32-1.43,1.36-3.13-.87-1.53-2.9-3.54-4.6-3.09S240.05,180.12,241.28,181.6Z" style="fill:#ce7a63"></path><path d="M252.16,175.92c.08.49.4.86.73.82s.52-.47.44-1-.4-.87-.72-.83S252.09,175.42,252.16,175.92Z" style="fill:#263238"></path><path d="M257.76,175.25c.08.49.4.86.73.82s.52-.47.45-1-.4-.86-.73-.82S257.69,174.76,257.76,175.25Z" style="fill:#263238"></path><path d="M256,175.71a18.89,18.89,0,0,0,3,3.94,2.83,2.83,0,0,1-2.3.72Z" style="fill:#ba4d3c"></path><path d="M254.92,181.94a4.3,4.3,0,0,1-3.12-1.28.16.16,0,0,1,0-.21.13.13,0,0,1,.2,0,4.17,4.17,0,0,0,3.45,1.15.14.14,0,0,1,.16.12.16.16,0,0,1-.13.17Z" style="fill:#263238"></path><path d="M250.15,174.32a.23.23,0,0,1-.14,0,.29.29,0,0,1-.12-.39,2.8,2.8,0,0,1,2.2-1.49.28.28,0,0,1,.3.28.29.29,0,0,1-.27.31,2.21,2.21,0,0,0-1.71,1.18A.3.3,0,0,1,250.15,174.32Z" style="fill:#263238"></path><path d="M259.88,173.05a.31.31,0,0,1-.25-.13,2.46,2.46,0,0,0-1.85-1.12.3.3,0,0,1-.29-.3.29.29,0,0,1,.29-.29h0a3,3,0,0,1,2.33,1.38.29.29,0,0,1-.08.4A.27.27,0,0,1,259.88,173.05Z" style="fill:#263238"></path><circle cx="264.12" cy="226.5" r="2.05" style="fill:#263238"></circle><g style="opacity:0.6000000000000001"><circle cx="264.12" cy="226.5" r="2.05" style="fill:#fff"></circle></g><path d="M256.3,209.56a28.08,28.08,0,0,1,.43-3.78c.74-4.67,1.57-9.95-5.4-13a5.83,5.83,0,0,0-5.55.06c-3.56,2.14-4.48,8.35-4.66,10a4.07,4.07,0,0,0-3.4,1.21c-2.55,2.72-1.38,9-1.33,9.25a.4.4,0,0,0,.46.31.39.39,0,0,0,.31-.46c0-.06-1.15-6.13,1.13-8.56a3.4,3.4,0,0,1,3.13-.94,3.72,3.72,0,0,1,2.92,1.74c2,3.2-.27,9.55-.29,9.62a.39.39,0,0,0,.24.5.3.3,0,0,0,.13,0,.4.4,0,0,0,.37-.26c.1-.27,2.38-6.77.22-10.29A4.46,4.46,0,0,0,241.9,203c.18-1.51,1.07-7.47,4.29-9.4a5.07,5.07,0,0,1,4.83,0c6.41,2.77,5.66,7.52,4.94,12.11a27.92,27.92,0,0,0-.44,3.89c-.1,6.32,1.92,16.41,7.76,16.62l0-.79C257.83,225.18,256.22,214.63,256.3,209.56Z" style="fill:#263238"></path><path d="M256.3,209.56a28.08,28.08,0,0,1,.43-3.78c.74-4.67,1.57-9.95-5.4-13a5.83,5.83,0,0,0-5.55.06c-3.56,2.14-4.48,8.35-4.66,10a4.07,4.07,0,0,0-3.4,1.21c-2.55,2.72-1.38,9-1.33,9.25a.4.4,0,0,0,.46.31.39.39,0,0,0,.31-.46c0-.06-1.15-6.13,1.13-8.56a3.4,3.4,0,0,1,3.13-.94,3.72,3.72,0,0,1,2.92,1.74c2,3.2-.27,9.55-.29,9.62a.39.39,0,0,0,.24.5.3.3,0,0,0,.13,0,.4.4,0,0,0,.37-.26c.1-.27,2.38-6.77.22-10.29A4.46,4.46,0,0,0,241.9,203c.18-1.51,1.07-7.47,4.29-9.4a5.07,5.07,0,0,1,4.83,0c6.41,2.77,5.66,7.52,4.94,12.11a27.92,27.92,0,0,0-.44,3.89c-.1,6.32,1.92,16.41,7.76,16.62l0-.79C257.83,225.18,256.22,214.63,256.3,209.56Z" style="fill:#fff;opacity:0.2"></path><path d="M244.84,214.55l-1.08-.22s-.82,1.73-.14,2S245.21,215.46,244.84,214.55Z" style="fill:#263238"></path><g style="opacity:0.6000000000000001"><path d="M244.84,214.55l-1.08-.22s-.82,1.73-.14,2S245.21,215.46,244.84,214.55Z" style="fill:#fff"></path></g><path d="M236.6,212.62h1.1s.47,1.86-.25,2S236.06,213.43,236.6,212.62Z" style="fill:#263238"></path><g style="opacity:0.6000000000000001"><path d="M236.6,212.62h1.1s.47,1.86-.25,2S236.06,213.43,236.6,212.62Z" style="fill:#fff"></path></g><path d="M264.82,225.6a1.15,1.15,0,1,1-1.15-1.15A1.15,1.15,0,0,1,264.82,225.6Z" style="fill:#263238"></path><g style="opacity:0.7000000000000001"><path d="M264.82,225.6a1.15,1.15,0,1,1-1.15-1.15A1.15,1.15,0,0,1,264.82,225.6Z" style="fill:#fff"></path></g><path d="M252.74,191.8h-7.43a13.6,13.6,0,0,1-.58,3.47h8.79A5.68,5.68,0,0,1,252.74,191.8Z" style="fill:#ce7a63"></path></g><g id="freepik--serum-bag--inject-83"><rect x="119.55" y="128.45" width="2.45" height="277.05" style="fill:#263238"></rect><rect x="119.55" y="128.45" width="2.45" height="277.05" style="fill:#fff;opacity:0.5"></rect><polygon points="106.01 135.87 100.01 135.87 100.01 134.25 104.53 134.25 104.54 132.99 106.01 132.99 106.01 135.87" style="fill:#263238"></polygon><polygon points="106.01 135.87 100.01 135.87 100.01 134.25 104.53 134.25 104.54 132.99 106.01 132.99 106.01 135.87" style="fill:#fff;opacity:0.1"></polygon><polygon points="135.72 135.87 141.72 135.87 141.72 134.25 137.21 134.25 137.19 132.99 135.72 132.99 135.72 135.87" style="fill:#263238"></polygon><polygon points="135.72 135.87 141.72 135.87 141.72 134.25 137.21 134.25 137.19 132.99 135.72 132.99 135.72 135.87" style="fill:#fff;opacity:0.1"></polygon><path d="M126.53,292.76c-8.22,0-8.52-15.7-8.75-28.32-.06-2.72-.1-5.29-.23-7.42-.11-1.77-.31-4.41-.55-7.68-1.2-16.35-3.44-46.79-2.09-64.12,1.37-17.74-3.27-42.61-9.21-49.29a3.85,3.85,0,0,0-2.53-1.55,2,2,0,0,0-1.44.63c-5.24,4.91-6,32.62-6,32.9l-4.13,95.47-1.26-.06,4.13-95.45c0-1.15.81-28.52,6.43-33.78a3.21,3.21,0,0,1,2.35-1,5,5,0,0,1,3.43,2c6.23,7,10.94,31.89,9.51,50.22-1.34,17.24.9,47.62,2.1,63.94.24,3.27.44,5.92.55,7.7.13,2.15.18,4.73.23,7.47.21,11.42.51,27.08,7.49,27.08,5.88,0,7.28-8.86,8.76-18.23a92.79,92.79,0,0,1,2.63-12.86c3.79-12.12.44-79.72.41-80l1.26-.15c.12,1.11,3.4,68.14-.46,80.5a92.07,92.07,0,0,0-2.59,12.69C135,283.39,133.49,292.76,126.53,292.76Z" style="fill:#1D7C68"></path><circle cx="92.88" cy="412.54" r="3.78" style="fill:#263238"></circle><path d="M94.38,412.54a1.5,1.5,0,1,1-1.5-1.5A1.5,1.5,0,0,1,94.38,412.54Z" style="opacity:0.30000000000000004"></path><path d="M92.88,412.54l3.78-1.42a3.78,3.78,0,0,0-3.21-2.81,3.93,3.93,0,0,0-4,1.76Z" style="fill:#263238"></path><path d="M92.88,412.54l3.78-1.42a3.78,3.78,0,0,0-3.21-2.81,3.93,3.93,0,0,0-4,1.76Z" style="opacity:0.2"></path><circle cx="148.89" cy="412.54" r="3.78" style="fill:#263238"></circle><path d="M147.39,412.54a1.5,1.5,0,1,0,1.5-1.5A1.5,1.5,0,0,0,147.39,412.54Z" style="opacity:0.30000000000000004"></path><path d="M148.89,412.54l-3.78-1.42a3.78,3.78,0,0,1,3.2-2.81,3.92,3.92,0,0,1,3.95,1.76Z" style="fill:#263238"></path><path d="M148.89,412.54l-3.78-1.42a3.78,3.78,0,0,1,3.2-2.81,3.92,3.92,0,0,1,3.95,1.76Z" style="opacity:0.2"></path><rect x="89.2" y="263.3" width="3.1" height="9.29" style="fill:#263238"></rect><rect x="89.2" y="263.3" width="3.1" height="9.29" style="fill:#fff;opacity:0.1"></rect><polygon points="91.55 278.18 89.94 278.18 89.94 275.39 89.94 272.59 91.55 272.59 91.55 275.39 91.55 278.18" style="fill:#263238"></polygon><polygon points="91.55 278.18 89.94 278.18 89.94 275.39 89.94 272.59 91.55 272.59 91.55 275.39 91.55 278.18" style="fill:#fff;opacity:0.5"></polygon><polygon points="90.75 283.79 90.36 278.18 91.13 278.18 90.75 283.79" style="fill:#1D7C68"></polygon><polygon points="90.75 283.79 90.36 278.18 91.13 278.18 90.75 283.79" style="fill:#fff;opacity:0.5"></polygon><path d="M137,144.15l-1-.19c0-.05,1-5,1.18-7.13.26-2.64,1.27-3.58,2.06-3.58s1.44,1.29,1.91,3.82c.26,1.36.25,6.54.25,6.76h-1s0-5.3-.23-6.57a6.86,6.86,0,0,0-1-3c-.08,0-.76.66-1,2.7S137.07,143.94,137,144.15Z" style="fill:#1D7C68"></path><path d="M145.27,175.37c-.43,1.57-4.2,5.9-6.12,5.9s-6.47-3.2-7-5.26,1.57-6.11,1.85-9-1.21-15.29-1.06-18.07,1-3.84,2.27-4.9,6.85-1.23,7.83,0,2.2,2.27,2.2,4.48-1.56,16.43-1.49,18.7S145.7,173.81,145.27,175.37Z" style="fill:#1D7C68"></path><path d="M145.27,175.37c-.43,1.57-4.2,5.9-6.12,5.9s-6.47-3.2-7-5.26,1.57-6.11,1.85-9-1.21-15.29-1.06-18.07,1-3.84,2.27-4.9,6.85-1.23,7.83,0,2.2,2.27,2.2,4.48-1.56,16.43-1.49,18.7S145.7,173.81,145.27,175.37Z" style="fill:#fff;opacity:0.6000000000000001"></path><path d="M144.56,174.59c-.35,1.26-4.29,4.76-5.84,4.76s-4.94-2.95-5.34-4.62,1.33-6.31,1.56-8.67-1-12.35-.87-14.59c1-2.13,9.94-2.12,9.94-.34s-1.26,13.27-1.21,15.1S144.9,173.33,144.56,174.59Z" style="fill:#1D7C68"></path><path d="M144.56,174.59c-.35,1.26-4.29,4.76-5.84,4.76s-4.94-2.95-5.34-4.62,1.33-6.31,1.56-8.67-1-12.35-.87-14.59c1-2.13,9.94-2.12,9.94-.34s-1.26,13.27-1.21,15.1S144.9,173.33,144.56,174.59Z" style="fill:#fff;opacity:0.2"></path><path d="M142,144.05h-6.15a.9.9,0,0,1-.9-.9h0a.9.9,0,0,1,.9-.91H142a.9.9,0,0,1,.9.91h0A.9.9,0,0,1,142,144.05Z" style="fill:#1D7C68"></path><path d="M142,144.05h-6.15a.9.9,0,0,1-.9-.9h0a.9.9,0,0,1,.9-.91H142a.9.9,0,0,1,.9.91h0A.9.9,0,0,1,142,144.05Z" style="fill:#fff;opacity:0.2"></path><rect x="92.88" y="405.4" width="56.01" height="2.86" style="fill:#263238"></rect><rect x="92.88" y="405.4" width="56.01" height="2.86" style="fill:#fff;opacity:0.1"></rect><rect x="100.01" y="128.45" width="41.71" height="2.81" style="fill:#263238"></rect><rect x="100.01" y="128.45" width="41.71" height="2.81" style="fill:#fff;opacity:0.1"></rect><rect x="100.01" y="128.45" width="2.15" height="7.41" style="fill:#263238"></rect><rect x="100.01" y="128.45" width="2.15" height="7.41" style="fill:#fff;opacity:0.1"></rect><rect x="139.57" y="128.45" width="2.15" height="7.41" style="fill:#263238"></rect><rect x="139.57" y="128.45" width="2.15" height="7.41" style="fill:#fff;opacity:0.1"></rect></g></svg>