<svg xmlns="http://www.w3.org/2000/svg" viewBox="0 0 500 500"><g id="freepik--background-complete--inject-79"><rect y="382.4" width="500" height="0.25" style="fill:#ebebeb"></rect><rect x="416.78" y="398.49" width="33.12" height="0.25" style="fill:#ebebeb"></rect><rect x="322.53" y="401.21" width="8.69" height="0.25" style="fill:#ebebeb"></rect><rect x="396.59" y="389.21" width="19.19" height="0.25" style="fill:#ebebeb"></rect><rect x="52.46" y="390.89" width="43.19" height="0.25" style="fill:#ebebeb"></rect><rect x="104.56" y="390.89" width="6.33" height="0.25" style="fill:#ebebeb"></rect><rect x="131.47" y="395.11" width="93.68" height="0.25" style="fill:#ebebeb"></rect><path d="M237,337.8H43.91a5.71,5.71,0,0,1-5.7-5.71V60.66A5.71,5.71,0,0,1,43.91,55H237a5.71,5.71,0,0,1,5.71,5.71V332.09A5.71,5.71,0,0,1,237,337.8ZM43.91,55.2a5.46,5.46,0,0,0-5.45,5.46V332.09a5.46,5.46,0,0,0,5.45,5.46H237a5.47,5.47,0,0,0,5.46-5.46V60.66A5.47,5.47,0,0,0,237,55.2Z" style="fill:#ebebeb"></path><path d="M453.31,337.8H260.21a5.72,5.72,0,0,1-5.71-5.71V60.66A5.72,5.72,0,0,1,260.21,55h193.1A5.71,5.71,0,0,1,459,60.66V332.09A5.71,5.71,0,0,1,453.31,337.8ZM260.21,55.2a5.47,5.47,0,0,0-5.46,5.46V332.09a5.47,5.47,0,0,0,5.46,5.46h193.1a5.47,5.47,0,0,0,5.46-5.46V60.66a5.47,5.47,0,0,0-5.46-5.46Z" style="fill:#ebebeb"></path><rect x="75.39" y="114.81" width="112.9" height="266.44" style="fill:#ebebeb"></rect><rect x="84.35" y="130.85" width="23.21" height="111.85" style="fill:#f5f5f5"></rect><path d="M95.67,264A5.66,5.66,0,1,1,90,258.37,5.66,5.66,0,0,1,95.67,264Z" style="fill:#e0e0e0"></path><rect x="108.32" y="90.93" width="47.02" height="15.99" style="fill:#f5f5f5"></rect><polygon points="260.15 322.49 254.15 322.49 254.15 259.12 426.6 259.12 426.6 321.21 420.6 321.21 420.6 265.12 260.15 265.12 260.15 322.49" style="fill:#f5f5f5"></polygon><rect x="257.15" y="291.57" width="166.46" height="6" style="fill:#f5f5f5"></rect><rect x="257.15" y="262.12" width="166.46" height="32.45" rx="4.33" style="fill:#e0e0e0"></rect><path d="M229.14,312.39H418.59a5,5,0,0,1,5,5v4.75a0,0,0,0,1,0,0H224.13a0,0,0,0,1,0,0v-4.75A5,5,0,0,1,229.14,312.39Z" style="fill:#e0e0e0"></path><polygon points="227.13 382.52 221.13 382.52 221.13 319.16 393.58 319.16 393.58 381.25 387.58 381.25 387.58 325.16 227.13 325.16 227.13 382.52" style="fill:#f5f5f5"></polygon><polygon points="260.15 382.52 254.15 382.52 254.15 319.16 426.6 319.16 426.6 381.25 420.6 381.25 420.6 325.16 260.15 325.16 260.15 382.52" style="fill:#f5f5f5"></polygon><rect x="336.01" y="127.62" width="89.31" height="70.29" transform="translate(543.43 -217.9) rotate(90)" style="fill:#e6e6e6"></rect><rect x="347.12" y="119.72" width="67.09" height="86.1" transform="translate(761.33 325.53) rotate(180)" style="fill:#f0f0f0"></rect><path d="M364.4,160.08c2.61,2.88,3.25-2.83,3.25-2.83l7.44-12.63,1.62,13-5.59,40.18s-5.12,1.52-5.45,2.38,8.77,1.09,9.75,0-1-2.38-1-2.38l7-33.22.11.53,6.92,32.69s-1.94,1.29-1,2.38,10.07.86,9.75,0-5.45-2.38-5.45-2.38l-5.58-40.18,1.6-13,7.44,12.63s.65,5.71,3.25,2.83-1.95-5.46-1.95-5.46l-8.09-14-4.46-1.54-1-1.24s5.72-10.27-1.48-10.47v0h-.22v0c-7.2.2-1.49,10.47-1.49,10.47l-1,1.24-4.46,1.54-8.08,14S361.81,157.22,364.4,160.08Z" style="fill:#fafafa"></path><path d="M381.59,127.34v37.74l6.92,32.69s-1.94,1.29-1,2.38,10.07.86,9.75,0-5.45-2.38-5.45-2.38l-5.58-40.18,1.6-13,7.44,12.63s.65,5.71,3.25,2.83-1.95-5.46-1.95-5.46l-8.09-14-4.46-1.54-1-1.24S388.79,127.54,381.59,127.34Z" style="fill:#e6e6e6"></path><rect x="357.47" y="129.74" width="9.29" height="3.62" transform="translate(724.22 263.1) rotate(180)" style="fill:#e6e6e6"></rect><rect x="354.32" y="146.02" width="9.29" height="3.62" transform="translate(717.92 295.65) rotate(180)" style="fill:#e6e6e6"></rect><rect x="398.42" y="163.1" width="9.29" height="3.62" transform="translate(806.13 329.83) rotate(180)" style="fill:#e6e6e6"></rect><rect x="394.71" y="129.6" width="9.29" height="3.62" transform="translate(798.71 262.83) rotate(180)" style="fill:#e6e6e6"></rect><rect x="357.47" y="169.11" width="9.29" height="3.62" transform="translate(724.22 341.84) rotate(180)" style="fill:#e6e6e6"></rect><rect x="395.87" y="182.96" width="9.29" height="3.62" transform="translate(801.03 369.53) rotate(180)" style="fill:#e6e6e6"></rect><rect x="352.82" y="186.57" width="9.29" height="3.62" transform="translate(714.93 376.77) rotate(180)" style="fill:#e6e6e6"></rect><rect x="255.51" y="128.82" width="90.15" height="67.89" transform="translate(137.81 463.35) rotate(-90)" style="fill:#e6e6e6"></rect><rect x="268.24" y="119.29" width="64.68" height="86.95" style="fill:#f5f5f5"></rect><rect x="268.24" y="119.29" width="64.68" height="21.61" style="fill:#fafafa"></rect><rect x="268.24" y="160.9" width="64.68" height="23.76" style="fill:#fafafa"></rect><path d="M274.31,129.14a6.55,6.55,0,1,0,6.55-6.55A6.54,6.54,0,0,0,274.31,129.14Z" style="fill:#f5f5f5"></path><circle cx="322.96" cy="150.76" r="6.55" style="fill:#fafafa"></circle><path d="M273.53,173.85a6.55,6.55,0,1,0,6.55-6.55A6.56,6.56,0,0,0,273.53,173.85Z" style="fill:#f5f5f5"></path><circle cx="322.18" cy="195.47" r="6.55" style="fill:#fafafa"></circle></g><g id="freepik--Shadow--inject-79"><ellipse id="freepik--path--inject-79" cx="250" cy="416.24" rx="193.89" ry="11.32" style="fill:#f5f5f5"></ellipse></g><g id="freepik--Plant--inject-79"><path d="M398.22,395.54s-4.75-10.37.68-20.58,7-12.63,3.54-14.72-5.05,8.17-5.05,8.17a23.11,23.11,0,0,1-.51-14.45c2.41-7.39,3.92-19.43.63-20.72s-.62,15-3.48,20.58a48.19,48.19,0,0,1-2.79-12.13c-.39-5.94.22-15.42-2.37-17.85s-4.26-.75-1.71,12.35A137.14,137.14,0,0,1,389.69,360s-5.64-17.19-9.42-17.69-3.78,5.06-.54,9.89,9.48,13.48,10.51,17.93c0,0-6.19-12.94-11.75-9s4.84,11.77,9.48,14.59,7.86,20.52,7.86,20.52Z" style="fill:#1D7C68"></path><path d="M398.22,395.54s-4.75-10.37.68-20.58,7-12.63,3.54-14.72-5.05,8.17-5.05,8.17a23.11,23.11,0,0,1-.51-14.45c2.41-7.39,3.92-19.43.63-20.72s-.62,15-3.48,20.58a48.19,48.19,0,0,1-2.79-12.13c-.39-5.94.22-15.42-2.37-17.85s-4.26-.75-1.71,12.35A137.14,137.14,0,0,1,389.69,360s-5.64-17.19-9.42-17.69-3.78,5.06-.54,9.89,9.48,13.48,10.51,17.93c0,0-6.19-12.94-11.75-9s4.84,11.77,9.48,14.59,7.86,20.52,7.86,20.52Z" style="isolation:isolate;opacity:0.2"></path><path d="M394.47,399.79s4.63-10.44-.92-20.57-7.15-12.52-3.72-14.66,5.15,8.09,5.15,8.09a23.06,23.06,0,0,0,.33-14.46c-2.5-7.35-4.15-19.37-.88-20.71s.81,15,3.73,20.53a48.29,48.29,0,0,0,2.65-12.17c.32-5.94-.41-15.41,2.16-17.88s4.25-.81,1.85,12.32a137.89,137.89,0,0,0-2.25,23.79s5.43-17.27,9.21-17.83,3.84,5,.66,9.89-9.32,13.61-10.29,18.08c0,0,6-13,11.64-9.15s-4.7,11.85-9.3,14.74-7.62,20.64-7.62,20.64Z" style="fill:#1D7C68"></path><polygon points="415.81 392.35 377.6 392.35 380.69 419.69 412.71 419.69 415.81 392.35" style="fill:#263238"></polygon></g><g id="freepik--character-2--inject-79"><path d="M238.6,224.7l2.24-2a3.47,3.47,0,0,1,3.1-.8l5.14,1.17a6.5,6.5,0,0,1,4.58,3.85l.5,1.2c-3.49,3.57-9.9,4.85-9.9,4.85l-1.78.57a2.89,2.89,0,0,1-3.71-1.81l-1.18-3.52A3.37,3.37,0,0,1,238.6,224.7Z" style="fill:#ebb376"></path><path d="M290.11,194.51c-1.37,10.68-2.87,21.38-4.9,32-4.43,11-28.73,5-37.51,2.65a2.49,2.49,0,0,1,.89-4.87c5.51.44,11.2.79,16.71.73a51.37,51.37,0,0,0,7.84-.59,8.93,8.93,0,0,0,3.83-1.32c.08-.09-.13,0-.24.3l-.23.93c1-10.4,2.17-20.79,3.7-31.13,1.15-6.4,10.49-5.15,9.91,1.34Z" style="fill:#e9b376"></path><path d="M289.54,178.69c-8.25.88-12,7-15.52,20.76,3.08,4.53,15,7.62,15,7.62S296.12,186.63,289.54,178.69Z" style="fill:#1D7C68"></path><path d="M292.33,189.51c-.15,8.43-3.32,17.56-3.32,17.56s-1.25-.32-3.05-.92c-3.74-1.23-9.86-3.64-11.94-6.7,3.5-13.78,7.27-19.88,15.53-20.76C291.73,181.32,292.4,185.33,292.33,189.51Z" style="fill:#fff;opacity:0.6000000000000001"></path><path d="M292.33,189.51c-.15,8.43-3.32,17.56-3.32,17.56s-1.25-.32-3.05-.92A15.1,15.1,0,0,1,292.33,189.51Z" style="isolation:isolate;opacity:0.1"></path><path d="M322.39,281c1.31,3.5,2.52,7,3.62,10.51,5.56,17.57,8.4,38.46,8.4,38.46,14.86,30,25.29,75.17,25.29,75.17L354.2,407l-36.13-80.33L307.34,299Z" style="fill:#ebb376"></path><path d="M359.93,400.93c-.33-.65-8.13,3.78-8.13,3.78s-2.51,7.44-6.77,10.91-.17,5.05,5.21,2.44,9.48-4.61,13.3-6.46S363.39,407.65,359.93,400.93Z" style="fill:#263238"></path><path d="M348.56,408.82a1.16,1.16,0,0,1-.8.15c-.22-.05-.5-.22-.61-.76a.93.93,0,0,1,.16-.75,3.77,3.77,0,0,1,1.71-1.08c-.82,0-1.6-.17-1.83-.59-.15-.26-.08-.58.2-.93a1.35,1.35,0,0,1,1-.53c1.3-.08,2.88,1.46,3,1.54a.17.17,0,0,1,.06.08h0a.17.17,0,0,1,0,.07h0a.22.22,0,0,1,0,.08h0a.22.22,0,0,1-.05.08A10.88,10.88,0,0,1,348.56,408.82Zm0-1.73a2.2,2.2,0,0,0-.87.63.5.5,0,0,0-.09.4c.07.35.21.38.26.4.53.12,1.79-1,2.73-2.11A9.69,9.69,0,0,0,348.57,407.09Zm-.49-2.2a.91.91,0,0,0-.32.27c-.09.1-.22.3-.16.4.2.36,1.65.42,3.06.3a3.86,3.86,0,0,0-2.22-1.06A.87.87,0,0,0,348.08,404.89Z" style="fill:#1D7C68"></path><path d="M298.33,280.78a125.64,125.64,0,0,0,8.61,30.27c4.48,10.41,9.43,18.07,13,26,6.36,14,22.81,47.21,22.81,47.21l11-8.31S336.22,333.59,335,325.28c-.77-5.38-1.51-34.31-1.94-54-.23-10.75-.37-18.76-.37-18.76l-31.45-25.11A129.32,129.32,0,0,0,298.33,280.78Z" style="fill:#1D7C68"></path><path d="M298.33,280.78a125.64,125.64,0,0,0,8.61,30.27c4.48,10.41,9.43,18.07,13,26,6.36,14,22.81,47.21,22.81,47.21l11-8.31S336.22,333.59,335,325.28c-.77-5.38-1.51-34.31-1.94-54-.23-10.75-.37-18.76-.37-18.76l-31.45-25.11A129.32,129.32,0,0,0,298.33,280.78Z" style="fill:#fff;isolation:isolate;opacity:0.5"></path><path d="M306.94,311.05c4.48,10.41,9.43,18.07,13,26,6.36,14,22.81,47.21,22.81,47.21l11-8.31S336.22,333.59,335,325.28c-.77-5.38-1.51-34.31-1.94-54l-9.31-19.55-12.07,4.85,3.94,15.16Z" style="isolation:isolate;opacity:0.2"></path><path d="M318.45,343.09c-8.29,31.57-23.87,69-23.87,69l-5.4-2.1L305,343.09Z" style="fill:#ebb376"></path><path d="M297.44,409c.15-.71-8.68-2.28-8.68-2.28s-6.68,4.13-12.17,4.08-3.36,3.78,2.45,5.2l14.37,3.51C297.53,420.55,295.81,416.41,297.44,409Z" style="fill:#263238"></path><path d="M283.65,407.85a1.25,1.25,0,0,1-.72-.39.87.87,0,0,1,0-1,.94.94,0,0,1,.6-.48,3.74,3.74,0,0,1,2,.27c-.62-.55-1.13-1.16-1-1.63.06-.3.31-.5.75-.59a1.38,1.38,0,0,1,1.13.25c1.06.77,1.29,3,1.3,3.08a.14.14,0,0,1,0,.09h0a.09.09,0,0,1,0,.07h0l-.06.06h0a.19.19,0,0,1-.08,0A11,11,0,0,1,283.65,407.85Zm1.11-1.33a2.24,2.24,0,0,0-1.07-.06.49.49,0,0,0-.33.24c-.17.32-.08.44-.05.47.32.44,2,.35,3.45.12A10.37,10.37,0,0,0,284.76,406.52Zm1-2a.75.75,0,0,0-.42,0c-.14,0-.36.09-.39.21-.07.4,1,1.38,2.18,2.18a4,4,0,0,0-1-2.23A.84.84,0,0,0,285.79,404.52Z" style="fill:#1D7C68"></path><path d="M334.54,224s12.19,25.71,7.88,50-17.33,55.41-20.84,63S305,389.24,305,389.24l-11.34-3.69s10.13-44.4,13.31-59.87c1.51-7.31,14.38-59.34,14.38-59.34s-22.06-16.39-20.5-42Z" style="fill:#1D7C68"></path><path d="M334.54,224s12.19,25.71,7.88,50-17.33,55.41-20.84,63S305,389.24,305,389.24l-11.34-3.69s10.13-44.4,13.31-59.87c1.51-7.31,14.38-59.34,14.38-59.34s-22.06-16.39-20.5-42Z" style="fill:#fff;isolation:isolate;opacity:0.5"></path><path d="M310.78,152.88a6.16,6.16,0,0,1,4.38-.82c4.28.81,5.3,5,4.72,8.11a7.13,7.13,0,0,1-4.85,5.46c-3.37.84-6.34-2.27-7.21-4.62A6.67,6.67,0,0,1,310.78,152.88Z" style="fill:#263238"></path><path d="M297,243.7l13.82,4.67,2.57-8.4,2.79,7.75,25.09-5.84c-2.14-15.41-10.74-27.69-12.08-32.35-1.87-6.44-3.32-18.77-2.05-26.74v0a5.92,5.92,0,0,0-5.36-6.82c-2.43-.19-4.86-.29-7.31-.29a102.89,102.89,0,0,0-14.46.85c-6.16,1-13.13,2.84-13.13,2.84s-1,.41-.52,7c.41,5.8,1.52,23.79,13.35,39Z" style="fill:#1D7C68"></path><path d="M341.23,241.88l-25.09,5.84-2.8-7.75-2.56,8.4-13.84-4.67,2.74-18.33c-11.84-15.23-12.95-33.22-13.35-39-.44-6.62.52-7,.52-7s7-1.87,13.12-2.84a103,103,0,0,1,14.46-.85q3.68,0,7.32.29a5.92,5.92,0,0,1,5.35,6.82.09.09,0,0,1,0,0,54.69,54.69,0,0,0-.34,11.25,77.12,77.12,0,0,0,2.39,15.49,26.6,26.6,0,0,0,1.54,3.63C333.64,219.17,339.51,229.52,341.23,241.88Z" style="fill:#fff;isolation:isolate;opacity:0.6000000000000001"></path><path d="M311,187.91s-5.52,4.79-7.13,17.1l-6.23-17.21-4.28,1.3s3.29-15.6,14-15.89,9.9,15.9,9.9,15.9Z" style="fill:#1D7C68"></path><path d="M311,187.91s-5.52,4.79-7.13,17.1l-6.23-17.21-4.28,1.3s3.29-15.6,14-15.89,9.9,15.9,9.9,15.9Z" style="fill:#fff;isolation:isolate;opacity:0.5"></path><path d="M295.5,170.35s3.92,2.54,4.59,4.21a1.87,1.87,0,0,1,.1.33,23.15,23.15,0,0,1,.4,2.89c-3,6.44,2.75,17.55,2.75,17.55a69.44,69.44,0,0,1,9.83-18.3c-6.29-2.47-7.49-14.52-7.49-14.52l-3.05,2.35Z" style="fill:#ebb376"></path><path d="M295.5,170.35s3.92,2.54,4.59,4.21a1.87,1.87,0,0,1,.1.33,12.82,12.82,0,0,0,5-10.9l-2.55.87Z" style="isolation:isolate;opacity:0.2"></path><path d="M281.27,160.07a.27.27,0,0,1-.16-.06c-1.58-1.37-6.4-6.43-1.94-13.87,3.89-6.48,12-4.31,12-4.29a.25.25,0,0,1-.13.48c-.08,0-7.8-2.1-11.49,4.06-4.27,7.11.33,11.94,1.84,13.25a.24.24,0,0,1,0,.35A.27.27,0,0,1,281.27,160.07Z" style="fill:#263238"></path><path d="M288,141.74s-6.46.2-8.24,5.66-.46,11.58,9.13,18.19c4.69,3.23,16.34-3.08,16.34-3.08l.93,2.82a24.06,24.06,0,0,0,4.21-3.91c3.77-4.42,2.8-19.07-7.66-21.93C291.76,136.5,288,141.74,288,141.74Z" style="fill:#263238"></path><path d="M294.15,143.56c-8.22,1.12-10.26,5.88-9.71,14.42.69,10.68,4.06,17.87,14,14.22C312,167.23,307.78,141.71,294.15,143.56Z" style="fill:#ebb376"></path><path d="M289.69,156.8a17.6,17.6,0,0,1-1.93,3.73,2.3,2.3,0,0,0,2.29.64Z" style="fill:#d58745"></path><path d="M294.62,155.44c.08.68.5,1.19,1,1.14s.75-.64.68-1.32-.51-1.18-1-1.13S294.55,154.77,294.62,155.44Z" style="fill:#263238"></path><path d="M295.49,154.14l-1.53-.41S294.83,154.88,295.49,154.14Z" style="fill:#263238"></path><path d="M286.19,156.25c.08.68.51,1.18,1,1.13s.75-.64.68-1.31-.51-1.19-1-1.14S286.12,155.57,286.19,156.25Z" style="fill:#263238"></path><path d="M287.06,154.94l-1.53-.41S286.4,155.69,287.06,154.94Z" style="fill:#263238"></path><path d="M297.66,150.87a.38.38,0,0,1-.24-.09,4,4,0,0,0-3.4-.68.35.35,0,0,1-.43-.25.35.35,0,0,1,.25-.43,4.6,4.6,0,0,1,4.06.84.35.35,0,0,1,0,.5A.36.36,0,0,1,297.66,150.87Z" style="fill:#263238"></path><path d="M284.73,151.7a.35.35,0,0,1-.23-.62,4.22,4.22,0,0,1,3.49-1.2.36.36,0,0,1,.27.43.34.34,0,0,1-.42.26,3.56,3.56,0,0,0-2.87,1A.36.36,0,0,1,284.73,151.7Z" style="fill:#263238"></path><path d="M305,156.18s-4.76-6.22-4.89-11.51c0,0-17.18-4.43-15.73,12.19,0,0-3.59-14.45,10.48-16.69s17.32,17.13,10.86,24.27C305.73,164.44,308,160.08,305,156.18Z" style="fill:#263238"></path><path d="M303.9,158.1a3.63,3.63,0,0,1,3.43-3.82c2.58-.07,4.51,5-1.65,7.1C304.79,161.69,304.16,160.87,303.9,158.1Z" style="fill:#ebb376"></path><path d="M290.49,163.62a20.79,20.79,0,0,1,.83,3,5.06,5.06,0,0,0,.55,0c2.48-.11,3.59-1,4.07-1.91a3.3,3.3,0,0,0,.33-1.48,3.15,3.15,0,0,0-.11-.86,11.82,11.82,0,0,1-4.82,1.23Z" style="fill:#263238"></path><path d="M291.34,163.57l.26.87c2.34-.11,4-.5,4.67-1.24a3.15,3.15,0,0,0-.11-.86A11.82,11.82,0,0,1,291.34,163.57Z" style="fill:#fff"></path><path d="M291.87,166.59c2.48-.11,3.59-1,4.07-1.91a8,8,0,0,0-2.73.67A3,3,0,0,0,291.87,166.59Z" style="fill:#de5753"></path><path d="M312.36,151.35l-.59-12.78L314,135a33.31,33.31,0,0,0-18.22-1.32l-7.82,8S303.06,138,312.36,151.35Z" style="fill:#1D7C68"></path><path d="M288,141.74a24.82,24.82,0,0,1,16.7,2.51,23.09,23.09,0,0,1,7.68,7.1l-.6-12.78L314,135a33.31,33.31,0,0,0-18.22-1.32Z" style="fill:#fff;isolation:isolate;opacity:0.6000000000000001"></path><path d="M304.69,144.25a23.09,23.09,0,0,1,7.68,7.1l-.6-12.78L314,135Z" style="isolation:isolate;opacity:0.1"></path><polygon points="288.4 208 299.39 207.25 298.61 201.12 287.62 201.87 288.4 208" style="fill:#1D7C68"></polygon><polygon points="288.99 207.52 298.44 206.88 297.77 201.6 288.32 202.24 288.99 207.52" style="fill:#fff;isolation:isolate;opacity:0.5"></polygon><polygon points="292.79 199.46 293.84 202.42 292.08 202.42 292.08 199.46 292.79 199.46" style="fill:#263238"></polygon><path d="M330.68,213.16C319,212,320,196.38,320,196.38a42.79,42.79,0,0,1,6.71-2.34,77.12,77.12,0,0,0,2.39,15.49A26.6,26.6,0,0,0,330.68,213.16Z" style="isolation:isolate;opacity:0.1"></path><path d="M288.63,224.7l2.24-2a3.48,3.48,0,0,1,3.1-.8l5.15,1.17a6.5,6.5,0,0,1,4.57,3.85l.5,1.2c-3.49,3.57-9.89,4.85-9.89,4.85l-1.79.57a2.89,2.89,0,0,1-3.71-1.81l-1.17-3.52A3.34,3.34,0,0,1,288.63,224.7Z" style="fill:#ebb376"></path><path d="M332.91,191.52c3,11.08,4.33,22.61,2.56,34-3.09,12.33-29,5.89-37.74,3.58a2.49,2.49,0,0,1,.89-4.87c5.51.44,11.2.79,16.71.73a51.6,51.6,0,0,0,7.85-.59,8.94,8.94,0,0,0,3.82-1.32c.08-.09-.13,0-.24.3l-.23.93a85.2,85.2,0,0,0-1.63-22.62c-.45-2.5-1-5.18-1.65-7.58-1.38-6.34,7.69-8.77,9.66-2.58Z" style="fill:#e9b376"></path><path d="M321.57,176.31c8.26.88,12,7,15.53,20.76-3.08,4.53-15,7.62-15,7.62S315,184.25,321.57,176.31Z" style="fill:#1D7C68"></path><path d="M321.57,176.31c8.26.88,12,7,15.53,20.76-3.08,4.53-15,7.62-15,7.62S315,184.25,321.57,176.31Z" style="fill:#fff;opacity:0.6000000000000001"></path></g><g id="freepik--character-1--inject-79"><path d="M138.87,402.92c-3.77,0-6.85,3.76-6.85,8.39s3.08,8.38,6.85,8.38,6.85-3.76,6.85-8.38S142.65,402.92,138.87,402.92Z" style="fill:#2e353a"></path><path d="M138.87,416.7c-2.08,0-3.85-2.47-3.85-5.39s1.77-5.39,3.85-5.39,3.85,2.46,3.85,5.39S141,416.7,138.87,416.7Z" style="fill:#1D7C68"></path><path d="M137.93,411.71v-9.48h6.79l-3.56,10a1.66,1.66,0,0,1-1.57,1.1h0A1.66,1.66,0,0,1,137.93,411.71Z" style="fill:#2e353a"></path><path d="M137.93,411.71v-9.48h6.79l-3.56,10a1.66,1.66,0,0,1-1.57,1.1h0A1.66,1.66,0,0,1,137.93,411.71Z" style="fill:#fff;opacity:0.30000000000000004"></path><path d="M163,308.67h-4V294.08a6.76,6.76,0,0,1,6.76-6.76h71.15v4H165.78a2.77,2.77,0,0,0-2.76,2.76Z" style="fill:#263238"></path><path d="M201.85,419.69c-21.37,0-38.76-21.31-38.76-47.5s17.39-47.51,38.76-47.51,38.77,21.31,38.77,47.51S223.23,419.69,201.85,419.69Zm0-90c-18.62,0-33.76,19.07-33.76,42.51s15.14,42.5,33.76,42.5,33.77-19.06,33.77-42.5S220.47,329.68,201.85,329.68Z" style="fill:#2e353a"></path><path d="M201.85,329.18c-18.89,0-34.26,19.3-34.26,43s15.37,43,34.26,43,34.27-19.29,34.27-43S220.75,329.18,201.85,329.18Zm7.07,35.6,13.75-17.6a40.07,40.07,0,0,1,5.15,10.4L210,366.85A13.35,13.35,0,0,0,208.92,364.78Zm-6.07-4.29V335.22a22.52,22.52,0,0,1,9.33,2.53l-7.66,23.19A7.36,7.36,0,0,0,202.85,360.49Zm-2,0a8.21,8.21,0,0,0-1.53.4l-7.4-23.34a22.32,22.32,0,0,1,8.93-2.33Zm-7,6.21-17.76-9.6a39.76,39.76,0,0,1,5-9.92l13.75,17.6A12.81,12.81,0,0,0,193.81,366.7Zm-.63,1.93a15.19,15.19,0,0,0-.39,2.56H173.6A46.78,46.78,0,0,1,175.44,359Zm-.39,4.56a15.28,15.28,0,0,0,.35,2.39l-17.85,9.27a47.28,47.28,0,0,1-1.69-11.66Zm1,4.33a12.62,12.62,0,0,0,1,2.08L181,397.2a39.61,39.61,0,0,1-5.15-10.4Zm7.1,6.36v25.28a22.43,22.43,0,0,1-9.32-2.53l7.66-23.19A7.26,7.26,0,0,0,200.85,383.88Zm2,0a7.4,7.4,0,0,0,1.54-.39l7.4,23.34a22.37,22.37,0,0,1-8.94,2.33Zm7.05-6.2,17.75,9.6a39.74,39.74,0,0,1-5,9.92l-13.75-17.6A12.81,12.81,0,0,0,209.9,377.68Zm.63-1.94a14,14,0,0,0,.38-2.55H230.1a46.78,46.78,0,0,1-1.83,12.15Zm.38-4.55a14.31,14.31,0,0,0-.35-2.4l17.86-9.26a47.21,47.21,0,0,1,1.68,11.66Zm10.51-25.67-13.76,17.61a10.33,10.33,0,0,0-1.36-1.21L214,338.75A29.8,29.8,0,0,1,221.42,345.52Zm-31.29-7,7.39,23.31a9.91,9.91,0,0,0-1.48,1.29l-13.76-17.61A29.56,29.56,0,0,1,190.13,338.53Zm-7.85,60.32L196,381.25a10.24,10.24,0,0,0,1.37,1.2l-7.66,23.18A29.83,29.83,0,0,1,182.28,398.85Zm31.3,7-7.4-23.31a9.44,9.44,0,0,0,1.48-1.29l13.76,17.6A29.39,29.39,0,0,1,213.58,405.85Z" style="fill:#1D7C68"></path><g style="isolation:isolate;opacity:0.2"><path d="M201.85,329.18c-18.89,0-34.26,19.3-34.26,43s15.37,43,34.26,43,34.27-19.29,34.27-43S220.75,329.18,201.85,329.18Zm7.07,35.6,13.75-17.6a40.07,40.07,0,0,1,5.15,10.4L210,366.85A13.35,13.35,0,0,0,208.92,364.78Zm-6.07-4.29V335.22a22.52,22.52,0,0,1,9.33,2.53l-7.66,23.19A7.36,7.36,0,0,0,202.85,360.49Zm-2,0a8.21,8.21,0,0,0-1.53.4l-7.4-23.34a22.32,22.32,0,0,1,8.93-2.33Zm-7,6.21-17.76-9.6a39.76,39.76,0,0,1,5-9.92l13.75,17.6A12.81,12.81,0,0,0,193.81,366.7Zm-.63,1.93a15.19,15.19,0,0,0-.39,2.56H173.6A46.78,46.78,0,0,1,175.44,359Zm-.39,4.56a15.28,15.28,0,0,0,.35,2.39l-17.85,9.27a47.28,47.28,0,0,1-1.69-11.66Zm1,4.33a12.62,12.62,0,0,0,1,2.08L181,397.2a39.61,39.61,0,0,1-5.15-10.4Zm7.1,6.36v25.28a22.43,22.43,0,0,1-9.32-2.53l7.66-23.19A7.26,7.26,0,0,0,200.85,383.88Zm2,0a7.4,7.4,0,0,0,1.54-.39l7.4,23.34a22.37,22.37,0,0,1-8.94,2.33Zm7.05-6.2,17.75,9.6a39.74,39.74,0,0,1-5,9.92l-13.75-17.6A12.81,12.81,0,0,0,209.9,377.68Zm.63-1.94a14,14,0,0,0,.38-2.55H230.1a46.78,46.78,0,0,1-1.83,12.15Zm.38-4.55a14.31,14.31,0,0,0-.35-2.4l17.86-9.26a47.21,47.21,0,0,1,1.68,11.66Zm10.51-25.67-13.76,17.61a10.33,10.33,0,0,0-1.36-1.21L214,338.75A29.8,29.8,0,0,1,221.42,345.52Zm-31.29-7,7.39,23.31a9.91,9.91,0,0,0-1.48,1.29l-13.76-17.61A29.56,29.56,0,0,1,190.13,338.53Zm-7.85,60.32L196,381.25a10.24,10.24,0,0,0,1.37,1.2l-7.66,23.18A29.83,29.83,0,0,1,182.28,398.85Zm31.3,7-7.4-23.31a9.44,9.44,0,0,0,1.48-1.29l13.76,17.6A29.39,29.39,0,0,1,213.58,405.85Z"></path></g><path d="M227.91,325.31H159a8.26,8.26,0,0,0-8.26,8.26v64.57a3.7,3.7,0,0,1-3.7,3.7H131.91a2,2,0,0,0,0,4h15.14a7.71,7.71,0,0,0,7.7-7.7V374.19h73.16a2,2,0,0,0,2-2V327.31A2,2,0,0,0,227.91,325.31Zm-2,44.88H154.75V333.57a4.26,4.26,0,0,1,4.26-4.26h66.9Z" style="fill:#2e353a"></path><path d="M227.91,325.31H159a8.26,8.26,0,0,0-8.26,8.26v64.57a3.7,3.7,0,0,1-3.7,3.7H131.91a2,2,0,0,0,0,4h15.14a7.71,7.71,0,0,0,7.7-7.7V374.19h73.16a2,2,0,0,0,2-2V327.31A2,2,0,0,0,227.91,325.31Zm-2,44.88H154.75V333.57a4.26,4.26,0,0,1,4.26-4.26h66.9Z" style="fill:#fff;opacity:0.30000000000000004"></path><path d="M232.53,238.55V303h-77a7.52,7.52,0,0,0-7.52,7.52V343.9h80.46a9.09,9.09,0,0,0,9.1-9.09V238.55Z" style="fill:#2e353a"></path><path d="M232.53,238.55V303h-77a7.52,7.52,0,0,0-7.52,7.52V343.9h80.46a9.09,9.09,0,0,0,9.1-9.09V238.55Z" style="fill:#fff;opacity:0.30000000000000004"></path><path d="M154.68,327.18H261a0,0,0,0,1,0,0v14.64a0,0,0,0,1,0,0H147.09a0,0,0,0,1,0,0v-7A7.59,7.59,0,0,1,154.68,327.18Z" style="fill:#263238"></path><path d="M268.55,339.74H147a2.08,2.08,0,0,0-2.08,2.08h0A2.08,2.08,0,0,0,147,343.9H268.55a2.09,2.09,0,0,0,2.08-2h0A2.08,2.08,0,0,0,268.55,339.74Z" style="fill:#2e353a"></path><path d="M268.55,339.74H147a2.08,2.08,0,0,0-2.08,2.08h0A2.08,2.08,0,0,0,147,343.9H268.55a2.09,2.09,0,0,0,2.08-2h0A2.08,2.08,0,0,0,268.55,339.74Z" style="fill:#fff;opacity:0.30000000000000004"></path><path d="M234.32,240.45H277a0,0,0,0,1,0,0v86.09a13.2,13.2,0,0,1-13.2,13.2H234.32a0,0,0,0,1,0,0V240.45A0,0,0,0,1,234.32,240.45Z" style="fill:#263238"></path><rect x="109.28" y="398.47" width="39.63" height="6.36" rx="2.48" style="fill:#2e353a"></rect><rect x="109.28" y="398.47" width="39.63" height="6.36" rx="2.48" style="fill:#fff;opacity:0.2"></rect><path d="M268.36,370.78,229.65,357l38.71-13.77a1.5,1.5,0,1,0-1-2.82l-42.18,15-42.17-15a1.5,1.5,0,1,0-1,2.82L220.7,357,182,370.78a1.5,1.5,0,1,0,1,2.82l42.17-15,42.18,15a1.5,1.5,0,1,0,1-2.82Z" style="fill:#2e353a"></path><path d="M268.36,370.78,229.65,357l38.71-13.77a1.5,1.5,0,1,0-1-2.82l-42.18,15-42.17-15a1.5,1.5,0,1,0-1,2.82L220.7,357,182,370.78a1.5,1.5,0,1,0,1,2.82l42.17-15,42.18,15a1.5,1.5,0,1,0,1-2.82Z" style="fill:#fff;opacity:0.30000000000000004"></path><path d="M235,248.06a1.5,1.5,0,0,1-1.5-1.5V235.07a8.56,8.56,0,0,1,8.15-8.56l9.69-.47a1.5,1.5,0,0,1,.14,3l-9.68.47a5.56,5.56,0,0,0-5.3,5.56v11.49A1.5,1.5,0,0,1,235,248.06Z" style="fill:#263238"></path><path d="M176.89,402.92c-3.77,0-6.84,3.76-6.84,8.39s3.07,8.38,6.84,8.38,6.85-3.76,6.85-8.38S180.67,402.92,176.89,402.92Z" style="fill:#2e353a"></path><path d="M176.89,416.7c-2.08,0-3.84-2.47-3.84-5.39s1.76-5.39,3.84-5.39,3.85,2.46,3.85,5.39S179,416.7,176.89,416.7Z" style="fill:#1D7C68"></path><path d="M176,411.71v-9.48h6.79l-3.57,10a1.65,1.65,0,0,1-1.56,1.1h0A1.66,1.66,0,0,1,176,411.71Z" style="fill:#2e353a"></path><path d="M176,411.71v-9.48h6.79l-3.57,10a1.65,1.65,0,0,1-1.56,1.1h0A1.66,1.66,0,0,1,176,411.71Z" style="fill:#fff;opacity:0.6000000000000001"></path><path d="M201.84,286l-3.25,5.74s-47.87.07-57.26,9.56-21.66,39-21.66,39l18.26,6.86L158.31,318l63.56,4.19,6.21-37.08Z" style="fill:#263238"></path><path d="M228.09,285.08l-6.21,37.08-36.59-2.41-27-1.78-8.55,12.25-11.84,17-18.27-6.86s12.27-29.5,21.67-39,57.26-9.56,57.26-9.56l3.25-5.74Z" style="fill:#fff;opacity:0.2"></path><path d="M185.29,319.75l-27-1.78-8.55,12.25c-1.27-6.91-2.65-22.58,1-27.84,4.71-6.82,35.48-8.53,49.87-7.56C209.12,295.39,200,308.85,185.29,319.75Z" style="isolation:isolate;opacity:0.2"></path><path d="M211.16,229.89c-2.16,13.67-4.42,27.19-8.44,40.54-2.53,8.19-23.87,15.07-31.67,17.47a3.08,3.08,0,0,1-2.45-5.6c5.18-3.08,10.45-6.16,15.41-9.32,2.58-1.67,7-4.57,8.23-6.26a3.12,3.12,0,0,0-.18.42c0-.07.12-.52.14-.61,2.72-12.64,4.42-25.82,6.76-38.61,1.65-7.89,13.11-6.07,12.2,2Z" style="fill:#dd8a7d"></path><path d="M207,217.13c-7,1-10.9,6.56-13.78,30.27l18.2,4.3s5.34-14.37,5.14-21.21S207,217.13,207,217.13Z" style="fill:#1D7C68"></path><path d="M211.4,251.7l-2.27-.54-10.54-2.49-5.38-1.27c2.87-23.71,6.72-29.28,13.77-30.27,0,0,9.37,6.53,9.57,13.36S211.4,251.7,211.4,251.7Z" style="fill:#fff;isolation:isolate;opacity:0.2"></path><path d="M209.13,251.16l-10.54-2.49c.94-4.28,3.7-14.52,8.93-16.18S217.38,247.29,209.13,251.16Z" style="isolation:isolate;opacity:0.2"></path><polygon points="173.15 394.26 182.93 391.88 182.31 382.33 181.71 373.58 169.79 375.15 171.56 385.27 173.15 394.26" style="fill:#e4897b"></polygon><polygon points="171.61 385.47 182.35 382.51 181.74 373.67 169.8 375.19 171.61 385.47" style="isolation:isolate;opacity:0.2"></polygon><path d="M183.3,389.29c-.05-.74-11.74.26-11.74.26s-7,6-13.95,7.52-2.92,4.68,4.9,4.41l19.34-.7C187.41,400.58,183.8,397,183.3,389.29Z" style="fill:#2e353a"></path><path d="M249,285.65s4.41,30.51-5.86,41.53-62.5-4.81-64.08-4S182.93,379,182.93,379l-15.34,2.23S150.93,325,151.3,308.67s56-14.5,56-14.5l3.21-8.52Z" style="fill:#2e353a"></path><path d="M249,285.65s4.41,30.51-5.86,41.53-62.5-4.81-64.08-4S182.93,379,182.93,379l-15.34,2.23S150.93,325,151.3,308.67s56-14.5,56-14.5l3.21-8.52Z" style="fill:#fff;opacity:0.2"></path><path d="M249.21,286c1.25-26.89,9.16-64.94,9.16-64.94-21.94-5.29-51.4-4-51.4-4-5.74,20.53-5.63,53.66-5.13,68.9Z" style="fill:#1D7C68"></path><path d="M249.2,286c.41-8.67,1.5-18.5,2.8-27.84.74-5.32,1.55-10.48,2.33-15.18,2.11-12.63,4-21.92,4-21.92-21.94-5.29-51.39-4-51.39-4-5.74,20.53-5.64,53.66-5.14,68.9Z" style="fill:#fff;isolation:isolate;opacity:0.2"></path><path d="M254.33,243c-.78,4.7-1.59,9.86-2.33,15.18a21.49,21.49,0,0,1-.91-18.22Z" style="isolation:isolate;opacity:0.2"></path><path d="M241,218.12c-4.06,3.69-14,2.33-14,2.33s-6.21-1.7-4.91-3.64c3.66-.61,5.43-2.31,6.16-4.5a10.43,10.43,0,0,0,.37-4.17,23.39,23.39,0,0,0-.3-2.34l12.29-9.1C239,202.71,237,213.77,241,218.12Z" style="fill:#e4897b"></path><path d="M237.73,202.49c-.49,7.37-6.55,9.41-9.52,9.82a10.43,10.43,0,0,0,.37-4.17Z" style="isolation:isolate;opacity:0.2"></path><path d="M218.91,177.8s-3.38,11.49,2.23,16.86,8.6-16.49,8.6-16.49Z" style="fill:#263238"></path><path d="M238,206.45a10.73,10.73,0,0,1-12.79,2.46,11.94,11.94,0,0,1-6-6.44,11.28,11.28,0,0,1-.41-1.2c-2.09-7.59-1.35-20.27,6.88-23.94a11.66,11.66,0,0,1,16.45,11.11C241.84,197,242.12,202,238,206.45Z" style="fill:#e4897b"></path><path d="M229.22,191.25c.07.69-.32,1.27-.78,1.28s-.84-.54-.86-1.23.33-1.26.78-1.28S229.19,190.55,229.22,191.25Z" style="fill:#263238"></path><path d="M221.39,191.51c.07.69-.33,1.27-.78,1.28s-.84-.54-.87-1.23.33-1.26.78-1.28S221.36,190.86,221.39,191.51Z" style="fill:#263238"></path><path d="M223.89,191.77a24.55,24.55,0,0,1-3.12,6,4,4,0,0,0,3.36.51Z" style="fill:#de5753"></path><path d="M218.37,188.26a.42.42,0,0,0,.43,0,3.29,3.29,0,0,1,2.9-.44.39.39,0,0,0,.53-.21.4.4,0,0,0-.21-.53h0a4,4,0,0,0-3.67.51.39.39,0,0,0-.13.55h0A.57.57,0,0,0,218.37,188.26Z" style="fill:#263238"></path><path d="M230.66,188.07a.46.46,0,0,0,.23-.09.4.4,0,0,0-.06-.57h0a4.06,4.06,0,0,0-3.64-.8.41.41,0,0,0-.25.52h0a.41.41,0,0,0,.51.25h0a3.31,3.31,0,0,1,2.87.68A.4.4,0,0,0,230.66,188.07Z" style="fill:#263238"></path><path d="M235.46,178l-.51,3.75a2.79,2.79,0,0,1,1.35,3.54c-1.26,3.14.47,8.06,2.86,10.05,0,0,.09-1.37,1.24-1s.73,7.46-1.57,10.83c0,0,3.45-3,5.48-10.48,1.88-6.88,2.18-12.64.8-15.34Z" style="fill:#263238"></path><path d="M246,195.29a8.08,8.08,0,0,1-4.51,4.25c-2.66,1-4.23-1.33-3.7-4,.5-2.34,2.46-5.76,5.24-5.59S247.06,192.88,246,195.29Z" style="fill:#e4897b"></path><path d="M235,181.78s-19.53,3.88-15.7-8.42c0,0,10.87-4.6,19.44-1.76s6.65,11.85,6.65,11.85Z" style="fill:#263238"></path><path d="M224.9,202.42a.45.45,0,0,1-.19,0,.39.39,0,0,1-.13-.52c.07-.11,1.7-2.66,6.2-2.83a.38.38,0,1,1,0,.75c-4.08.15-5.53,2.38-5.59,2.48A.37.37,0,0,1,224.9,202.42Z" style="fill:#263238"></path><path d="M219.74,203.76s3,4.13,7.18,4.23,11.13-7.52,15.15-7.27l1.11,1.33s-1.19,9.48,0,11.72,5.14,4.75,5.14,4.75v.64s-10.28,9.59-22.68,7.11S214.52,217,214.52,217l1.23-.84s3.65-1.73,4.46-4.23-1.45-7.35-1.45-7.35Z" style="fill:#1D7C68"></path><path d="M219.74,203.76s3,4.13,7.18,4.23,11.13-7.52,15.15-7.27l1.11,1.33s-1.19,9.48,0,11.72,5.14,4.75,5.14,4.75v.64s-10.28,9.59-22.68,7.11S214.52,217,214.52,217l1.23-.84s3.65-1.73,4.46-4.23-1.45-7.35-1.45-7.35Z" style="fill:#fff;opacity:0.6000000000000001"></path><path d="M240,201.11l1,1.75s-.43,8.2,0,10.84,4.46,6.14,4.46,6.14v1.56l-.53-1.37a9.68,9.68,0,0,1-4.88-7.45,38.23,38.23,0,0,1,.45-9.34Z" style="isolation:isolate;opacity:0.1"></path><polygon points="238.1 207.4 242.04 205.99 242.04 207.97 238.1 209.42 238.1 207.4" style="fill:#fff"></polygon><polyline points="244.16 216.14 244.02 216.22 240.46 218.17 241.6 220.03 245.42 217.53" style="fill:#fff"></polyline><path d="M169.25,281.75l-8.35,1,5.57,9.06s6.92-2.39,6-6.21Z" style="fill:#e4897b"></path><polygon points="155.98 287.55 160.94 294.82 166.47 291.77 160.9 282.71 155.98 287.55" style="fill:#e4897b"></polygon><path d="M262.91,228.65c2.61,10.22,7.56,32.75-2.75,39.87-9.48,5.71-25.54,2.07-35.47-.94a3.07,3.07,0,0,1,1.22-6c2.66.13,5.45.28,8.15.31,6.16,0,12.87.26,18.55-1.86a5.32,5.32,0,0,0,1.23-.71c-.39.26.12-.43.25-1.45,1-8.53-1.37-17.8-3.15-26.18-1.56-7.85,9.56-10.68,12-3Z" style="fill:#dd8a7d"></path><path d="M258.37,221.09c6.17,2,8.72,9.36,10.61,28.91l-17.08,1.5s-5-13.95-4.1-21.42S258.37,221.09,258.37,221.09Z" style="fill:#1D7C68"></path><path d="M258.37,221.09c6.17,2,8.72,9.36,10.61,28.91l-17.08,1.5s-5-13.95-4.1-21.42S258.37,221.09,258.37,221.09Z" style="fill:#fff;isolation:isolate;opacity:0.2"></path><path d="M212.72,255.7c-3.95.22-5.54,7.46-5.14,13.1s11.47,4.84,11.47,4.84,25.32,5.67,38.5,2.5,11.34-21.62,11.34-21.62-2-1-9.62-1.51-8.32.85-8.32.85,1,3.27-1.48,4.33S222.21,255.18,212.72,255.7Z" style="fill:#1D7C68"></path><path d="M212.72,255.7c-3.95.22-5.54,7.46-5.14,13.1s11.47,4.84,11.47,4.84,25.32,5.67,38.5,2.5,11.34-21.62,11.34-21.62-2-1-9.62-1.51-8.32.85-8.32.85,1,3.27-1.48,4.33S222.21,255.18,212.72,255.7Z" style="fill:#fff;opacity:0.6000000000000001"></path><path d="M213.6,216.6s2.1,10.75,9.08,25.17c7.55,15.62,22.74,24.75,22.74,24.75l-3.35,2.28s-14.22-10.61-22.63-26.1a85.54,85.54,0,0,1-8.7-25.76Z" style="fill:#263238"></path><path d="M242.83,269.75l3.78-2.48s5.91,2,10,1.53,7.09-.54,9.66,1.94a17.48,17.48,0,0,1-14.93,7.31c-10.29-.19-13.63-.95-13.63-.95a3.67,3.67,0,0,1,.77-2.7C239.49,273.31,242.83,269.75,242.83,269.75Z" style="fill:#1D7C68"></path><path d="M242.72,270.88a1.19,1.19,0,0,1-.92-.43l-.62-.75a1.15,1.15,0,0,1-.27-.93,1.2,1.2,0,0,1,.51-.82h0l3.25-2.25a1.2,1.2,0,0,1,1.5.11l.74.69a1.17,1.17,0,0,1,.37,1,1.15,1.15,0,0,1-.51.89l-3.38,2.31A1.18,1.18,0,0,1,242.72,270.88Zm-.74-2.11a.2.2,0,0,0-.08.14.26.26,0,0,0,0,.15l.62.75a.2.2,0,0,0,.27,0l3.37-2.3a.2.2,0,0,0,.09-.15.2.2,0,0,0-.06-.16l-.74-.69a.2.2,0,0,0-.25,0Z" style="fill:#fff"></path><path d="M125.34,321.11l25.41,12.46s-29.1,51.77-33.84,54.55-36.64-7.93-36.78-11.89,3.54-11.12,3.54-11.12l18.47,1.59Z" style="fill:#1D7C68"></path><path d="M125.34,321.11l25.41,12.46s-29.1,51.77-33.84,54.55-36.64-7.93-36.78-11.89,3.54-11.12,3.54-11.12l18.47,1.59Z" style="fill:#fff;opacity:0.6000000000000001"></path><path d="M203,308.67h-4V294.08a6.77,6.77,0,0,1,6.77-6.76H277v4H205.81a2.77,2.77,0,0,0-2.77,2.76Z" style="fill:#263238"></path><g style="opacity:0.4"><path d="M203,308.67h-4V294.08a6.77,6.77,0,0,1,6.77-6.76H277v4H205.81a2.77,2.77,0,0,0-2.77,2.76Z" style="fill:#fff"></path></g><path d="M277,248.06a1.5,1.5,0,0,1-1.5-1.5V235.07a8.56,8.56,0,0,1,8.15-8.56l9.69-.47a1.5,1.5,0,1,1,.14,3l-9.68.47a5.56,5.56,0,0,0-5.3,5.56v11.49A1.5,1.5,0,0,1,277,248.06Z" style="fill:#263238"></path><path d="M274.53,241.08V303h-77a7.52,7.52,0,0,0-7.52,7.52V343.9h80.46a9.09,9.09,0,0,0,9.1-9.09V241.08a2.54,2.54,0,0,0-2.54-2.53h0A2.54,2.54,0,0,0,274.53,241.08Z" style="fill:#2e353a"></path><path d="M274.53,241.08V303h-77a7.52,7.52,0,0,0-7.52,7.52V343.9h80.46a9.09,9.09,0,0,0,9.1-9.09V241.08a2.54,2.54,0,0,0-2.54-2.53h0A2.54,2.54,0,0,0,274.53,241.08Z" style="fill:#fff;opacity:0.4"></path><path d="M267.91,325.31H199a8.26,8.26,0,0,0-8.26,8.26v64.57a3.7,3.7,0,0,1-3.7,3.7H167.92a2,2,0,0,0,0,4h19.13a7.71,7.71,0,0,0,7.7-7.7V374.19h73.16a2,2,0,0,0,2-2V327.31A2,2,0,0,0,267.91,325.31Zm-2,44.88H194.75V333.57a4.26,4.26,0,0,1,4.26-4.26h66.9Z" style="fill:#2e353a"></path><path d="M267.91,325.31H199a8.26,8.26,0,0,0-8.26,8.26v64.57a3.7,3.7,0,0,1-3.7,3.7H167.92a2,2,0,0,0,0,4h19.13a7.71,7.71,0,0,0,7.7-7.7V374.19h73.16a2,2,0,0,0,2-2V327.31A2,2,0,0,0,267.91,325.31Zm-2,44.88H194.75V333.57a4.26,4.26,0,0,1,4.26-4.26h66.9Z" style="fill:#fff;opacity:0.6000000000000001"></path><rect x="151.3" y="398.47" width="36.62" height="6.36" rx="2.48" style="fill:#2e353a"></rect><rect x="151.3" y="398.47" width="36.62" height="6.36" rx="2.48" style="fill:#fff;opacity:0.4"></rect><path d="M267.85,419.69c-21.37,0-38.76-21.31-38.76-47.5s17.39-47.51,38.76-47.51,38.77,21.31,38.77,47.51S289.23,419.69,267.85,419.69Zm0-90c-18.62,0-33.76,19.07-33.76,42.51s15.14,42.5,33.76,42.5,33.77-19.06,33.77-42.5S286.47,329.68,267.85,329.68Z" style="fill:#2e353a"></path><path d="M267.85,415.19c-18.89,0-34.26-19.29-34.26-43s15.37-43,34.26-43,34.27,19.3,34.27,43S286.75,415.19,267.85,415.19Zm0-80c-15.58,0-28.26,16.6-28.26,37s12.68,37,28.26,37,28.27-16.6,28.27-37S283.44,335.18,267.85,335.18Z" style="fill:#1D7C68"></path><ellipse cx="267.85" cy="372.19" rx="9.1" ry="11.77" style="fill:#1D7C68"></ellipse><rect x="266.85" y="332.18" width="2" height="80.01" style="fill:#1D7C68"></rect><rect x="236.59" y="371.19" width="62.54" height="2" style="fill:#1D7C68"></rect><rect x="266.85" y="336.29" width="2" height="71.81" transform="translate(-172.39 243.89) rotate(-38.01)" style="fill:#1D7C68"></rect><rect x="231.95" y="371.19" width="71.81" height="2" transform="translate(-190.34 353.95) rotate(-51.98)" style="fill:#1D7C68"></rect><rect x="229.05" y="371.19" width="77.62" height="2" transform="translate(-169.53 509.89) rotate(-71.73)" style="fill:#1D7C68"></rect><rect x="266.85" y="339.45" width="2" height="65.49" transform="translate(-186.95 430.71) rotate(-61.59)" style="fill:#1D7C68"></rect><rect x="266.85" y="333.3" width="2" height="77.78" transform="translate(-99.97 98.37) rotate(-17.59)" style="fill:#1D7C68"></rect><rect x="235.21" y="371.19" width="65.29" height="2" transform="translate(-141.39 165.32) rotate(-27.44)" style="fill:#1D7C68"></rect></g></svg>