<svg class="animated" id="freepik_stories-doctor" xmlns="http://www.w3.org/2000/svg" viewBox="0 0 500 500" version="1.1" xmlns:xlink="http://www.w3.org/1999/xlink" xmlns:svgjs="http://svgjs.com/svgjs"><style>svg#freepik_stories-doctor:not(.animated) .animable {opacity: 0;}svg#freepik_stories-doctor.animated #freepik--Shadow--inject-2 {animation: 1s 1 forwards cubic-bezier(.36,-0.01,.5,1.38) slideUp;animation-delay: 0s;}svg#freepik_stories-doctor.animated #freepik--Heart--inject-2 {animation: 0.5s 1 forwards cubic-bezier(.36,-0.01,.5,1.38) slideUp,1.5s Infinite  linear heartbeat;animation-delay: 0s,0.5s;}            @keyframes slideUp {                0% {                    opacity: 0;                    transform: translateY(30px);                }                100% {                    opacity: 1;                    transform: inherit;                }            }                    @keyframes heartbeat {                0% {                    transform: scale(1);                }                10% {                    transform: scale(1.1);                }                30% {                    transform: scale(1);                }                40% {                    transform: scale(1);                }                50% {                    transform: scale(1.1);                }                60% {                    transform: scale(1);                }                100% {                    transform: scale(1);                }            }        .animator-hidden { display: none; }</style><g id="freepik--background-complete--inject-2" class="animable" style="transform-origin: 250px 228.23px;"><rect y="382.4" width="500" height="0.25" style="fill: rgb(235, 235, 235); transform-origin: 250px 382.525px;" id="el6dbr8aqli3r" class="animable"></rect><rect x="416.78" y="398.49" width="33.12" height="0.25" style="fill: rgb(235, 235, 235); transform-origin: 433.34px 398.615px;" id="elat91tzlw4n" class="animable"></rect><rect x="322.53" y="401.21" width="8.69" height="0.25" style="fill: rgb(235, 235, 235); transform-origin: 326.875px 401.335px;" id="elkvk561qan6l" class="animable"></rect><rect x="396.59" y="389.21" width="19.19" height="0.25" style="fill: rgb(235, 235, 235); transform-origin: 406.185px 389.335px;" id="eln4j81atm02" class="animable"></rect><rect x="52.46" y="390.89" width="43.19" height="0.25" style="fill: rgb(235, 235, 235); transform-origin: 74.055px 391.015px;" id="elez8zwob3pmg" class="animable"></rect><rect x="104.56" y="390.89" width="6.33" height="0.25" style="fill: rgb(235, 235, 235); transform-origin: 107.725px 391.015px;" id="el3fow65n25lh" class="animable"></rect><rect x="131.47" y="395.11" width="93.68" height="0.25" style="fill: rgb(235, 235, 235); transform-origin: 178.31px 395.235px;" id="elqdh3fjig8xs" class="animable"></rect><path d="M237,337.8H43.91a5.71,5.71,0,0,1-5.7-5.71V60.66A5.71,5.71,0,0,1,43.91,55H237a5.71,5.71,0,0,1,5.71,5.71V332.09A5.71,5.71,0,0,1,237,337.8ZM43.91,55.2a5.46,5.46,0,0,0-5.45,5.46V332.09a5.46,5.46,0,0,0,5.45,5.46H237a5.47,5.47,0,0,0,5.46-5.46V60.66A5.47,5.47,0,0,0,237,55.2Z" style="fill: rgb(235, 235, 235); transform-origin: 140.46px 196.4px;" id="eltnadknvba1" class="animable"></path><path d="M453.31,337.8H260.21a5.72,5.72,0,0,1-5.71-5.71V60.66A5.72,5.72,0,0,1,260.21,55h193.1A5.71,5.71,0,0,1,459,60.66V332.09A5.71,5.71,0,0,1,453.31,337.8ZM260.21,55.2a5.47,5.47,0,0,0-5.46,5.46V332.09a5.47,5.47,0,0,0,5.46,5.46h193.1a5.47,5.47,0,0,0,5.46-5.46V60.66a5.47,5.47,0,0,0-5.46-5.46Z" style="fill: rgb(235, 235, 235); transform-origin: 356.75px 196.4px;" id="elwnp1ukgjft" class="animable"></path><rect x="66.96" y="111.23" width="59.65" height="88.92" style="fill: rgb(230, 230, 230); transform-origin: 96.785px 155.69px;" id="elp3u29najhe" class="animable"></rect><g id="elg6a3roci4dl"><rect x="126.62" y="111.23" width="0.94" height="88.92" style="fill: rgb(224, 224, 224); transform-origin: 127.09px 155.69px; transform: rotate(180deg);" class="animable" id="el8uibkwp8g2j"></rect></g><g id="el4421shpzeky"><rect x="55.71" y="129.24" width="82.17" height="52.9" style="fill: rgb(250, 250, 250); transform-origin: 96.795px 155.69px; transform: rotate(90deg);" class="animable" id="elp05neb6gbsi"></rect></g><g id="eladwxe54dce"><circle cx="96.79" cy="138.95" r="14.14" style="fill: rgb(240, 240, 240); transform-origin: 96.79px 138.95px; transform: rotate(-45deg);" class="animable" id="elwhi9dsrnznn"></circle></g><rect x="79.34" y="161.27" width="34.89" height="3.57" style="fill: rgb(235, 235, 235); transform-origin: 96.785px 163.055px;" id="el51q4iyig1hu" class="animable"></rect><rect x="79.34" y="170.77" width="34.89" height="3.57" style="fill: rgb(235, 235, 235); transform-origin: 96.785px 172.555px;" id="el6js6axrdgk" class="animable"></rect><rect x="79.34" y="180.26" width="34.89" height="3.57" style="fill: rgb(235, 235, 235); transform-origin: 96.785px 182.045px;" id="el7inigqswgu" class="animable"></rect><rect x="141.92" y="124.04" width="59.65" height="88.92" style="fill: rgb(230, 230, 230); transform-origin: 171.745px 168.5px;" id="el9x2sf8l78kj" class="animable"></rect><g id="ele45dsme2xht"><rect x="201.58" y="124.04" width="0.94" height="88.92" style="fill: rgb(224, 224, 224); transform-origin: 202.05px 168.5px; transform: rotate(180deg);" class="animable" id="eltlja0z8v27"></rect></g><g id="elg7v2igx2g"><rect x="130.67" y="142.05" width="82.17" height="52.9" style="fill: rgb(250, 250, 250); transform-origin: 171.755px 168.5px; transform: rotate(90deg);" class="animable" id="el4janwt2njmc"></rect></g><g id="elael00h2291a"><circle cx="171.75" cy="151.75" r="14.14" style="fill: rgb(240, 240, 240); transform-origin: 171.75px 151.75px; transform: rotate(-76.72deg);" class="animable" id="el5a3pnbcyr6o"></circle></g><rect x="154.3" y="174.08" width="34.89" height="3.57" style="fill: rgb(235, 235, 235); transform-origin: 171.745px 175.865px;" id="elof32i2gjpqm" class="animable"></rect><rect x="154.3" y="183.57" width="34.89" height="3.57" style="fill: rgb(235, 235, 235); transform-origin: 171.745px 185.355px;" id="elok2b4bt7xre" class="animable"></rect><rect x="154.3" y="193.06" width="34.89" height="3.57" style="fill: rgb(235, 235, 235); transform-origin: 171.745px 194.845px;" id="elp6t0n3ovtbk" class="animable"></rect><rect x="151.24" y="250" width="260.69" height="2.78" style="fill: rgb(235, 235, 235); transform-origin: 281.585px 251.39px;" id="el2hda8qidten" class="animable"></rect><g id="elshssbl0o0c"><rect x="411.93" y="250" width="21.11" height="2.78" style="fill: rgb(224, 224, 224); transform-origin: 422.485px 251.39px; transform: rotate(180deg);" class="animable" id="eld5n3syu7z4"></rect></g><rect x="154.81" y="252.78" width="257.11" height="129.62" style="fill: rgb(245, 245, 245); transform-origin: 283.365px 317.59px;" id="el7l1yx2cu4rm" class="animable"></rect><rect x="211.04" y="252.78" width="1.44" height="129.62" style="fill: rgb(230, 230, 230); transform-origin: 211.76px 317.59px;" id="elqdcxrc1zji" class="animable"></rect><rect x="279.04" y="279.14" width="1.44" height="103.26" style="fill: rgb(230, 230, 230); transform-origin: 279.76px 330.77px;" id="elz4rfmra89w" class="animable"></rect><g id="elc4lw0nr10ka"><rect x="182.56" y="327.57" width="1.44" height="56.94" style="fill: rgb(230, 230, 230); transform-origin: 183.28px 356.04px; transform: rotate(90deg);" class="animable" id="elrlmdyabdjbd"></rect></g><g id="elibmitum3u6a"><rect x="182.56" y="301.93" width="1.44" height="56.94" style="fill: rgb(230, 230, 230); transform-origin: 183.28px 330.4px; transform: rotate(90deg);" class="animable" id="elpofbancl4e"></rect></g><g id="elx58vuowpwj"><rect x="182.56" y="276.3" width="1.44" height="56.94" style="fill: rgb(230, 230, 230); transform-origin: 183.28px 304.77px; transform: rotate(90deg);" class="animable" id="eldfxi0dibhms"></rect></g><g id="el6b1z59zq5r"><rect x="282.65" y="150.58" width="1.44" height="257.11" style="fill: rgb(230, 230, 230); transform-origin: 283.37px 279.135px; transform: rotate(90deg);" class="animable" id="el2uu1bapw4de"></rect></g><g id="el5qy6hodoqyg"><rect x="411.93" y="252.78" width="18.47" height="129.62" style="fill: rgb(235, 235, 235); transform-origin: 421.165px 317.59px; transform: rotate(180deg);" class="animable" id="elt0vxn8kqnk"></rect></g><rect x="325.27" y="76.71" width="91" height="129.58" style="fill: rgb(250, 250, 250); transform-origin: 370.77px 141.5px;" id="eldf18jb60dvk" class="animable"></rect><path d="M417.27,78.27h-93a1.55,1.55,0,0,1-1.55-1.56h0a1.54,1.54,0,0,1,1.55-1.55h93a1.55,1.55,0,0,1,1.56,1.55h0A1.56,1.56,0,0,1,417.27,78.27Z" style="fill: rgb(235, 235, 235); transform-origin: 370.775px 76.715px;" id="elfsn8m0g523f" class="animable"></path><path d="M417.27,207.85h-93a1.55,1.55,0,0,1-1.55-1.56h0a1.54,1.54,0,0,1,1.55-1.55h93a1.55,1.55,0,0,1,1.56,1.55h0A1.56,1.56,0,0,1,417.27,207.85Z" style="fill: rgb(235, 235, 235); transform-origin: 370.775px 206.295px;" id="el96eu24ionfc" class="animable"></path><rect x="356.77" y="108.71" width="28" height="42.5" rx="10.59" style="fill: rgb(240, 240, 240); transform-origin: 370.77px 129.96px;" id="el9c64a22jyao" class="animable"></rect><path d="M362.77,194.38h0a6,6,0,0,1-6-6V143.05a6,6,0,0,1,6-6h0a6,6,0,0,1,6,6v45.33A6,6,0,0,1,362.77,194.38Z" style="fill: rgb(240, 240, 240); transform-origin: 362.77px 165.715px;" id="elkajc5u2qnb" class="animable"></path><rect x="347.48" y="113.86" width="7.17" height="34.24" rx="3.58" style="fill: rgb(240, 240, 240); transform-origin: 351.065px 130.98px;" id="el6nqzuhzilc7" class="animable"></rect><path d="M390.48,148.11h0a3.6,3.6,0,0,1-3.58-3.59V117.45a3.6,3.6,0,0,1,3.58-3.59h0a3.61,3.61,0,0,1,3.59,3.59v27.07A3.61,3.61,0,0,1,390.48,148.11Z" style="fill: rgb(240, 240, 240); transform-origin: 390.485px 130.985px;" id="el422ln94rope" class="animable"></path><path d="M378.77,194.38h0a6,6,0,0,1-6-6V143.05a6,6,0,0,1,6-6h0a6,6,0,0,1,6,6v45.33A6,6,0,0,1,378.77,194.38Z" style="fill: rgb(240, 240, 240); transform-origin: 378.77px 165.715px;" id="elac72cfbofv" class="animable"></path><g id="el6ttjehhu1rp"><circle cx="370.77" cy="95.88" r="8.83" style="fill: rgb(240, 240, 240); transform-origin: 370.77px 95.88px; transform: rotate(-45deg);" class="animable" id="els49d9tjpnjb"></circle></g><rect x="339.27" y="224.67" width="41.89" height="25.33" style="fill: rgb(245, 245, 245); transform-origin: 360.215px 237.335px;" id="elr60exio2qw" class="animable"></rect><g id="elx9gbrvw6btb"><rect x="381.16" y="224.67" width="10.32" height="25.33" style="fill: rgb(235, 235, 235); transform-origin: 386.32px 237.335px; transform: rotate(180deg);" class="animable" id="elzcjyio3gds"></rect></g><polygon points="368.22 234.91 362.63 234.91 362.63 229.33 357.8 229.33 357.8 234.91 352.22 234.91 352.22 239.75 357.8 239.75 357.8 245.33 362.63 245.33 362.63 239.75 368.22 239.75 368.22 234.91" style="fill: rgb(255, 255, 255); transform-origin: 360.22px 237.33px;" id="elm8gbl39k7nk" class="animable"></polygon><path d="M302.59,250h-4V205.19a15.11,15.11,0,1,0-30.22,0h-4a19.11,19.11,0,1,1,38.22,0Z" style="fill: rgb(235, 235, 235); transform-origin: 283.48px 218.04px;" id="el97s97w8w52b" class="animable"></path><rect x="306.04" y="243.44" width="4" height="6.56" style="fill: rgb(235, 235, 235); transform-origin: 308.04px 246.72px;" id="el7v7uywxbdau" class="animable"></rect><rect x="178.83" y="247.67" width="4" height="2.33" style="fill: rgb(235, 235, 235); transform-origin: 180.83px 248.835px;" id="eldw11blyc1i8" class="animable"></rect><rect x="171.74" y="247.67" width="4" height="2.33" style="fill: rgb(235, 235, 235); transform-origin: 173.74px 248.835px;" id="elte0m1d9s9v" class="animable"></rect><rect x="85.74" y="309.27" width="52.07" height="73.13" style="fill: rgb(245, 245, 245); transform-origin: 111.775px 345.835px;" id="elq6y6xyaehg" class="animable"></rect><rect x="87.76" y="307.44" width="48.02" height="1.84" style="fill: rgb(230, 230, 230); transform-origin: 111.77px 308.36px;" id="elrcyma00cgi" class="animable"></rect><path d="M102.23,290.94h19.08a16.5,16.5,0,0,1,16.5,16.5H85.74A16.49,16.49,0,0,1,102.23,290.94Z" style="fill: rgb(245, 245, 245); transform-origin: 111.775px 299.19px;" id="elo3949567af8" class="animable"></path><path d="M92.66,374.38H87.15a8,8,0,0,0-8,8h21.56A8,8,0,0,0,92.66,374.38Z" style="fill: rgb(230, 230, 230); transform-origin: 89.93px 378.38px;" id="eluhl8x0kl4db" class="animable"></path></g><g id="freepik--Shadow--inject-2" class="animable animator-hidden" style="transform-origin: 250px 416.24px;"><ellipse id="freepik--path--inject-2" cx="250" cy="416.24" rx="193.89" ry="11.32" style="fill: rgb(245, 245, 245); transform-origin: 250px 416.24px;" class="animable"></ellipse></g><g id="freepik--Character--inject-2" class="animable" style="transform-origin: 235.805px 253.626px;"><path d="M191.71,146.13l-4.54-5.56-6.34,4s2.9,3.1,6.42,7.43Z" style="fill: rgb(181, 91, 82); transform-origin: 186.27px 146.285px;" id="el71hzsrp8off" class="animable"></path><path d="M248.32,146.58c-.26.56-.44.9-.66,1.33l-.63,1.2c-.43.79-.85,1.57-1.3,2.34q-1.32,2.3-2.77,4.52a80.45,80.45,0,0,1-6.42,8.67,52.65,52.65,0,0,1-8.3,7.9,34.9,34.9,0,0,1-5.36,3.26l-1.51.67-1.59.59c-.53.19-1.1.33-1.66.49l-.42.12-.6.13c-.44.09-.87.15-1.29.2a15.34,15.34,0,0,1-4.58-.24,20,20,0,0,1-3.61-1.07,31.79,31.79,0,0,1-5.56-2.95,65.21,65.21,0,0,1-8.53-6.86c-2.57-2.39-4.95-4.86-7.23-7.38-1.14-1.27-2.27-2.53-3.37-3.83s-2.15-2.55-3.29-4l11.06-8.58c.86,1.09,1.89,2.34,2.88,3.49s2,2.33,3.06,3.46c2.1,2.25,4.25,4.42,6.46,6.41a48.63,48.63,0,0,0,6.71,5.16,17.27,17.27,0,0,0,3,1.53c.86.33,1.5.32,1.31.27h-.1s-.08,0,0,0l.17-.05c.22-.09.43-.14.66-.23l.67-.29.7-.35a19.91,19.91,0,0,0,2.84-1.91,34.77,34.77,0,0,0,5.49-5.75,62.25,62.25,0,0,0,4.77-7.19q1.1-1.92,2.07-3.9c.33-.65.65-1.31,1-2l.44-1c.13-.3.3-.69.37-.87Z" style="fill: #1D7C68; transform-origin: 213.98px 158.972px;" id="elrfl6c2eonjt" class="animable"></path><g id="elngqtrq5lsbg"><path d="M248.32,146.58c-.26.56-.44.9-.66,1.33l-.63,1.2c-.43.79-.85,1.57-1.3,2.34q-1.32,2.3-2.77,4.52a80.45,80.45,0,0,1-6.42,8.67,52.65,52.65,0,0,1-8.3,7.9,34.9,34.9,0,0,1-5.36,3.26l-1.51.67-1.59.59c-.53.19-1.1.33-1.66.49l-.42.12-.6.13c-.44.09-.87.15-1.29.2a15.34,15.34,0,0,1-4.58-.24,20,20,0,0,1-3.61-1.07,31.79,31.79,0,0,1-5.56-2.95,65.21,65.21,0,0,1-8.53-6.86c-2.57-2.39-4.95-4.86-7.23-7.38-1.14-1.27-2.27-2.53-3.37-3.83s-2.15-2.55-3.29-4l11.06-8.58c.86,1.09,1.89,2.34,2.88,3.49s2,2.33,3.06,3.46c2.1,2.25,4.25,4.42,6.46,6.41a48.63,48.63,0,0,0,6.71,5.16,17.27,17.27,0,0,0,3,1.53c.86.33,1.5.32,1.31.27h-.1s-.08,0,0,0l.17-.05c.22-.09.43-.14.66-.23l.67-.29.7-.35a19.91,19.91,0,0,0,2.84-1.91,34.77,34.77,0,0,0,5.49-5.75,62.25,62.25,0,0,0,4.77-7.19q1.1-1.92,2.07-3.9c.33-.65.65-1.31,1-2l.44-1c.13-.3.3-.69.37-.87Z" style="fill: rgb(255, 255, 255); opacity: 0.8; transform-origin: 213.98px 158.972px;" class="animable" id="elqwp8a3nxnbj"></path></g><polygon points="246.1 306.4 278.38 306.4 266.14 245.22 250.33 245.22 246.1 306.4" style="fill: #1D7C68; transform-origin: 262.24px 275.81px;" id="el6ycesvp2utd" class="animable"></polygon><g id="elczktfjkermk"><polygon points="246.1 306.4 278.38 306.4 266.14 245.22 250.33 245.22 246.1 306.4" style="fill: rgb(255, 255, 255); opacity: 0.6; transform-origin: 262.24px 275.81px;" class="animable" id="el4e7tjicxx8y"></polygon></g><polygon points="253.02 407.1 244.79 407.1 244.44 388.05 252.67 388.05 253.02 407.1" style="fill: rgb(181, 91, 82); transform-origin: 248.73px 397.575px;" id="elpq0td5fqw3e" class="animable"></polygon><polygon points="298.59 407.1 290.36 407.1 286.69 388.05 294.92 388.05 298.59 407.1" style="fill: rgb(181, 91, 82); transform-origin: 292.64px 397.575px;" id="elb4a68f1zib" class="animable"></polygon><path d="M289.8,406.15H299a.7.7,0,0,1,.69.56l1.44,7.31a1.24,1.24,0,0,1-1.24,1.46c-3.22-.05-4.78-.24-8.85-.24-2.5,0-7.66.26-11.11.26s-3.82-3.41-2.4-3.72c6.37-1.39,8.81-3.3,10.88-5.13A2.11,2.11,0,0,1,289.8,406.15Z" style="fill: rgb(38, 50, 56); transform-origin: 288.951px 410.825px;" id="elk2d4slh8mmd" class="animable"></path><path d="M244.87,406.15h9a.69.69,0,0,1,.68.56L256,414a1.24,1.24,0,0,1-1.22,1.47c-3.24-.06-7.92-.25-12-.25-4.76,0-5.15.26-10.73.26-3.38,0-4.23-3.41-2.81-3.72,6.47-1.41,8-1.56,13.64-5A3.88,3.88,0,0,1,244.87,406.15Z" style="fill: rgb(38, 50, 56); transform-origin: 242.302px 410.815px;" id="elat2c7ucqrhh" class="animable"></path><path d="M184.1,138.67l-5.32-.08-1,6.86a18.35,18.35,0,0,0,10.08-1l-.09-2.23A3.71,3.71,0,0,0,184.1,138.67Z" style="fill: rgb(181, 91, 82); transform-origin: 182.82px 142.169px;" id="eljh64dkrc44m" class="animable"></path><polygon points="170.46 138.91 171.49 143.24 177.76 145.45 178.78 138.59 170.46 138.91" style="fill: rgb(181, 91, 82); transform-origin: 174.62px 142.02px;" id="el7esbcxkifcu" class="animable"></polygon><g id="ela2e8pvtxrk"><polygon points="244.44 388.06 244.62 397.88 252.85 397.88 252.67 388.06 244.44 388.06" style="opacity: 0.2; transform-origin: 248.645px 392.97px;" class="animable" id="el7zyg189y1pn"></polygon></g><g id="el12a21mj1zz0b"><polygon points="294.92 388.06 286.69 388.06 288.59 397.88 296.82 397.88 294.92 388.06" style="opacity: 0.2; transform-origin: 291.755px 392.97px;" class="animable" id="elpo0krux7iql"></polygon></g><path d="M234.73,141.47c-2.28,8.72-6.37,30.72-1.9,65.71h44c.43-6.13-2.37-33.86,2.58-62.73a8.74,8.74,0,0,0-7.62-10.21c-1.71-.19-3.52-.35-5.31-.44a152.9,152.9,0,0,0-18.43.6,45.49,45.49,0,0,0-7.73,1.42A7.92,7.92,0,0,0,234.73,141.47Z" style="fill: rgb(255, 255, 255); transform-origin: 255.186px 170.46px;" id="el6cu56lkk9fk" class="animable"></path><path d="M264.46,116.31c-1.33,6-2.1,13.47,2,17.49,0,0-2.57,6.1-13.75,6.1-10.22,0-5-6.1-5-6.1,6.75-1.6,6.61-9.9,5.55-14.58Z" style="fill: rgb(181, 91, 82); transform-origin: 256.419px 128.105px;" id="el4tq7clk6pct" class="animable"></path><path d="M252.2,139.07l-2.42,2.67a.7.7,0,0,0-.15.7l.77,2.36a.68.68,0,0,0,.62.47l2.61.13a.72.72,0,0,0,.63-.32l1.56-2.29a.71.71,0,0,0,0-.86l-2.52-2.87A.7.7,0,0,0,252.2,139.07Z" style="fill: #1D7C68; transform-origin: 252.779px 142.099px;" id="el9oeixhthk5i" class="animable"></path><path d="M251.59,145.25s-4,29.44-4.09,34.57a49.66,49.66,0,0,0,2.26,14.28s2.75-5.2,3.22-14.5-.1-29.13.11-34.35Z" style="fill: #1D7C68; transform-origin: 250.336px 169.675px;" id="elk431li8jxhl" class="animable"></path><g id="el58pmtyhmc7p"><path d="M253.32,119.23c.63,2.74.93,6.72-.29,9.88.8.35,4.1-.92,5.47-1.79,3.05-1.94,4.23-3.84,5.35-7.89.18-1.07.38-2.11.61-3.12Z" style="opacity: 0.2; transform-origin: 258.745px 122.74px;" class="animable" id="elnmm3lh07o7i"></path></g><path d="M242.88,113.38a7.55,7.55,0,0,0,4.09,4.19c2.49,1,4.1-1.18,3.7-3.73-.35-2.29-2.08-5.59-4.72-5.52A3.59,3.59,0,0,0,242.88,113.38Z" style="fill: rgb(181, 91, 82); transform-origin: 246.647px 113.069px;" id="el8utfxvx9s6" class="animable"></path><g id="ells3rnd9jys"><path d="M242.88,113.38a7.55,7.55,0,0,0,4.09,4.19c2.49,1,4.1-1.18,3.7-3.73-.35-2.29-2.08-5.59-4.72-5.52A3.59,3.59,0,0,0,242.88,113.38Z" style="opacity: 0.2; transform-origin: 246.647px 113.069px;" class="animable" id="elov2wi18hq3m"></path></g><path d="M253,104.37c-.47,3.52-2.67,6.14-4.91,5.84s-3.67-3.4-3.19-6.93,2.67-6.15,4.91-5.85S253.5,100.84,253,104.37Z" style="fill: rgb(38, 50, 56); transform-origin: 248.953px 103.82px;" id="eluz63kh7tor" class="animable"></path><path d="M268.4,108.51c-2,8-2.78,12.76-7.59,16.22-7.22,5.21-16.37-.15-16.75-8.53-.35-7.54,3-19.34,11.4-21.24A10.89,10.89,0,0,1,268.4,108.51Z" style="fill: rgb(181, 91, 82); transform-origin: 256.42px 110.734px;" id="elzn4abgjdzmr" class="animable"></path><path d="M255.12,92.17c-4.79,1-10.09,4.91-5.52,7.76s14.86,3.29,14.86,3.29-3.4,8,1.25,12.13c1.55-.77-1.76,6.21-1.76,6.21a7.28,7.28,0,0,0,4-3.36c2.78-.71,11-14,5.52-17.76C272.43,92.69,261.55,90.78,255.12,92.17Z" style="fill: rgb(38, 50, 56); transform-origin: 261.583px 106.656px;" id="el6ws99o2cja" class="animable"></path><path d="M266.68,113.33l-.11,0-7.2-3.3a.26.26,0,1,1,.21-.47l7.21,3.3a.26.26,0,0,1,.13.34A.26.26,0,0,1,266.68,113.33Z" style="fill: rgb(255, 255, 255); transform-origin: 263.061px 111.425px;" id="elzbrw8dlxg2" class="animable"></path><path d="M270.33,118a7.9,7.9,0,0,1-5.37,2.59c-2.71.14-3.41-2.45-2.11-4.71,1.17-2,4-4.56,6.44-3.63S272,116.11,270.33,118Z" style="fill: rgb(181, 91, 82); transform-origin: 266.804px 116.324px;" id="ells21qoy3rde" class="animable"></path><path d="M232.83,207.18s-2.64,61.5-2.36,86.59c.29,26.09,11.14,102.2,11.14,102.2h13.93s-1.25-74.59,0-100.21c1.36-27.94,6.22-88.58,6.22-88.58Z" style="fill: #1D7C68; transform-origin: 246.105px 301.575px;" id="ellalnr80c2k" class="animable"></path><path d="M256.19,389.82c.07,0,.26,6.44.26,6.44H240.39l-.92-7Z" style="fill: rgb(38, 50, 56); transform-origin: 247.96px 392.76px;" id="elr6t9bgntha" class="animable"></path><g id="elr7cogqsj68"><path d="M251.68,223.46c-.48,30.52.9,49.06,4.31,64,.84-14.56,2.21-33.81,3.42-49.8Z" style="opacity: 0.2; transform-origin: 255.499px 255.46px;" class="animable" id="el3k9hhjzxb23"></path></g><path d="M248.44,207.18s7.8,62.86,12.34,86.41c5,25.79,24,102.38,24,102.38h15.07s-11.89-74.5-14.47-100c-2.79-27.71-8.57-88.75-8.57-88.75Z" style="fill: #1D7C68; transform-origin: 274.145px 301.575px;" id="elmxqmqg8mo8g" class="animable"></path><path d="M299.49,390.16c.07,0,1.12,6.1,1.12,6.1H284.05l-1.82-6.72Z" style="fill: rgb(38, 50, 56); transform-origin: 291.42px 392.9px;" id="elcnz7rdi3zcj" class="animable"></path><path d="M255.89,108.72c-.13.66-.57,1.13-1,1.06s-.67-.66-.55-1.32.57-1.13,1-1.06S256,108.06,255.89,108.72Z" style="fill: rgb(38, 50, 56); transform-origin: 255.113px 108.59px;" id="el4vdr4rs1gta" class="animable"></path><path d="M247.82,106.82c-.12.66-.57,1.13-1,1.06s-.67-.66-.55-1.32.57-1.13,1-1.06S247.94,106.16,247.82,106.82Z" style="fill: rgb(38, 50, 56); transform-origin: 247.045px 106.69px;" id="elptgwzsqut8" class="animable"></path><path d="M251.18,108.47a24.69,24.69,0,0,1-4.74,4.57,3.74,3.74,0,0,0,2.84,1.46Z" style="fill: rgb(160, 39, 36); transform-origin: 248.81px 111.485px;" id="elx4kxq97v74d" class="animable"></path><path d="M251.2,116.55a.2.2,0,0,1-.15-.23.2.2,0,0,1,.23-.16,5.33,5.33,0,0,0,4.57-1.32.19.19,0,1,1,.28.26A5.63,5.63,0,0,1,251.2,116.55Z" style="fill: rgb(38, 50, 56); transform-origin: 253.614px 115.714px;" id="elrtgyzzacv3m" class="animable"></path><path d="M259.8,106.58a.37.37,0,0,1-.26-.23,3,3,0,0,0-2-1.89.39.39,0,0,1-.3-.46.4.4,0,0,1,.46-.31,3.71,3.71,0,0,1,2.61,2.36.41.41,0,0,1-.23.51A.4.4,0,0,1,259.8,106.58Z" style="fill: rgb(38, 50, 56); transform-origin: 258.782px 105.14px;" id="el9tng0xw09x7" class="animable"></path><path d="M245.75,103.67a.31.31,0,0,1-.15-.08.4.4,0,0,1,0-.55,4,4,0,0,1,3.25-1.51.38.38,0,0,1,.33.43.39.39,0,0,1-.43.35h0a3.12,3.12,0,0,0-2.55,1.23A.41.41,0,0,1,245.75,103.67Z" style="fill: rgb(38, 50, 56); transform-origin: 247.337px 102.61px;" id="el2278kmwey6n" class="animable"></path><path d="M255.74,113.4a4,4,0,0,1-.59-.05,3.61,3.61,0,0,1-2.32-1.53,4.66,4.66,0,0,1-.7-3.5,4.22,4.22,0,0,1,4.61-3.68,3.64,3.64,0,0,1,2.32,1.53,4.7,4.7,0,0,1,.7,3.5h0A4.33,4.33,0,0,1,255.74,113.4Zm.4-8.29a3.8,3.8,0,0,0-3.5,3.3,4.19,4.19,0,0,0,.61,3.12,3.11,3.11,0,0,0,2,1.31,3.69,3.69,0,0,0,4-3.26,4.19,4.19,0,0,0-.62-3.12,3.09,3.09,0,0,0-2-1.31A2.92,2.92,0,0,0,256.14,105.11Zm3.36,4.52h0Z" style="fill: rgb(255, 255, 255); transform-origin: 255.944px 109.009px;" id="el3yjjfdguvvo" class="animable"></path><path d="M252.38,108.62a.26.26,0,0,1-.21-.11,1.5,1.5,0,0,0-1.84-.75.27.27,0,0,1-.34-.14.26.26,0,0,1,.13-.34,2.05,2.05,0,0,1,2.48.94.26.26,0,0,1-.08.36A.23.23,0,0,1,252.38,108.62Z" style="fill: rgb(255, 255, 255); transform-origin: 251.305px 107.891px;" id="eliw2hsjjp85b" class="animable"></path><path d="M246.47,111.29a4,4,0,0,1-.6-.05,3.61,3.61,0,0,1-2.32-1.53,4.7,4.7,0,0,1-.7-3.5,4.21,4.21,0,0,1,4.61-3.67,3.56,3.56,0,0,1,2.32,1.52,4.72,4.72,0,0,1,.7,3.51h0A4.32,4.32,0,0,1,246.47,111.29Zm.39-8.29a3.8,3.8,0,0,0-3.5,3.3,4.15,4.15,0,0,0,.62,3.12,3.09,3.09,0,0,0,2,1.31,3.69,3.69,0,0,0,4-3.26,4.16,4.16,0,0,0-.62-3.12,3.13,3.13,0,0,0-2-1.31A2.92,2.92,0,0,0,246.86,103Zm3.37,4.52Z" style="fill: rgb(255, 255, 255); transform-origin: 246.665px 106.904px;" id="eljlsea97iztf" class="animable"></path><path d="M287,407.58a2.47,2.47,0,0,1-1.57-.41,1.17,1.17,0,0,1-.38-1,.67.67,0,0,1,.35-.56c.91-.46,3.53,1.17,3.83,1.35a.18.18,0,0,1,.08.2.19.19,0,0,1-.15.16A9.65,9.65,0,0,1,287,407.58Zm-1.18-1.7a.62.62,0,0,0-.25.05.25.25,0,0,0-.13.23.79.79,0,0,0,.25.71c.44.38,1.51.43,2.92.15A7.73,7.73,0,0,0,285.86,405.88Z" style="fill: #1D7C68; transform-origin: 287.179px 406.558px;" id="elklqgjfooyvd" class="animable"></path><path d="M289.16,407.3a.14.14,0,0,1-.09,0c-.84-.46-2.45-2.26-2.25-3.18a.66.66,0,0,1,.63-.51,1.06,1.06,0,0,1,.83.25c.93.78,1.07,3.15,1.08,3.26a.24.24,0,0,1-.2.21ZM287.58,404h-.09c-.25,0-.28.14-.29.19-.11.54.9,1.91,1.73,2.55a4.61,4.61,0,0,0-.91-2.58A.67.67,0,0,0,287.58,404Z" style="fill: #1D7C68; transform-origin: 288.081px 405.466px;" id="elxvjam1p4yu" class="animable"></path><path d="M241.42,407.59a3.06,3.06,0,0,1-2-.51,1.05,1.05,0,0,1-.34-.95.62.62,0,0,1,.33-.51c1-.57,4.28,1.11,4.65,1.31a.19.19,0,0,1-.06.36A14,14,0,0,1,241.42,407.59ZM240,405.88a.94.94,0,0,0-.37.07.24.24,0,0,0-.12.21.68.68,0,0,0,.22.63c.49.45,1.84.53,3.67.22A10.6,10.6,0,0,0,240,405.88Z" style="fill: #1D7C68; transform-origin: 241.617px 406.553px;" id="elejszv5dlrmd" class="animable"></path><path d="M244,407.3l-.08,0c-1-.45-2.9-2.22-2.73-3.16,0-.21.2-.49.74-.54a1.37,1.37,0,0,1,1.07.33c1,.86,1.19,3.08,1.2,3.17a.23.23,0,0,1-.08.18A.28.28,0,0,1,244,407.3ZM242.05,404h-.12c-.35,0-.38.17-.39.22-.1.55,1.2,1.95,2.2,2.56a4.5,4.5,0,0,0-1-2.54A1,1,0,0,0,242.05,404Z" style="fill: #1D7C68; transform-origin: 242.69px 405.445px;" id="elmaj5ovqiiyg" class="animable"></path><path d="M267,133.25l9.5,1.14a6.33,6.33,0,0,1,5.58,6.5c-.48,14.81-2.44,35.16-.87,66.29.79,15.7,11.76,100.95,11.76,100.95l-21.61,3.79A550.68,550.68,0,0,1,249.76,211.4a219,219,0,0,1-.16-44.6Z" style="fill: #1D7C68; transform-origin: 270.755px 222.585px;" id="elfkm7l5yyh4r" class="animable"></path><g id="elbu11v7wwsgo"><path d="M267,133.25l9.5,1.14a6.33,6.33,0,0,1,5.58,6.5c-.48,14.81-2.44,35.16-.87,66.29.79,15.7,11.76,100.95,11.76,100.95l-21.61,3.79A550.68,550.68,0,0,1,249.76,211.4a219,219,0,0,1-.16-44.6Z" style="fill: rgb(255, 255, 255); opacity: 0.8; transform-origin: 270.755px 222.585px;" class="animable" id="elm1trefat1xf"></path></g><g id="elsxrzdzqowkk"><path d="M274.76,152.15c0,2.22,1.7,13.52,5.91,21.32.12-5.32.31-10.18.53-14.64Z" style="fill: #1D7C68; opacity: 0.2; transform-origin: 277.98px 162.81px;" class="animable" id="elmsdwt9qb6qq"></path></g><g id="elfq2k8g5607v"><path d="M233.87,150.17c-1.22,2.33-4.74,12.21-6.53,23,.82-.57,1.6-1.16,2.35-1.76a56.25,56.25,0,0,0,7.58-7.63l.44-.54Z" style="fill: #1D7C68; opacity: 0.2; transform-origin: 232.525px 161.67px;" class="animable" id="el0sjus44w7jb"></path></g><path d="M246.93,134.22l-5.61.68a11.4,11.4,0,0,0-10,10.89c-.64,16.62-1.94,49.82-2.65,61.39-1,15.69-.29,100.95-.29,100.95l13.47,2.36s3.42-46.94,7.95-99.09a407.73,407.73,0,0,0,.83-46.52Z" style="fill: #1D7C68; transform-origin: 239.54px 222.355px;" id="elazpum7gnzon" class="animable"></path><g id="elq53bjfyfubj"><path d="M246.93,134.22l-5.61.68a11.4,11.4,0,0,0-10,10.89c-.64,16.62-1.94,49.82-2.65,61.39-1,15.69-.29,100.95-.29,100.95l13.47,2.36s3.42-46.94,7.95-99.09a407.73,407.73,0,0,0,.83-46.52Z" style="fill: rgb(255, 255, 255); opacity: 0.8; transform-origin: 239.54px 222.355px;" class="animable" id="elwfwcsuy63f"></path></g><path d="M252.73,138.83a29.56,29.56,0,0,1,3,6.42s13.13-4.51,12.66-11.74c0,0-2-1.18-3.2-2.14C265.18,131.37,264.59,135.93,252.73,138.83Z" style="fill: rgb(245, 245, 245); transform-origin: 260.566px 138.31px;" id="el8tvvti4sihd" class="animable"></path><path d="M252.73,138.83a25.27,25.27,0,0,0-3.73,5.72,9.58,9.58,0,0,1-3.31-10.75,24.41,24.41,0,0,1,3.61-1.14S248.35,137.28,252.73,138.83Z" style="fill: rgb(245, 245, 245); transform-origin: 248.954px 138.605px;" id="el11uxn1s2akj9" class="animable"></path><g id="elau8z4o1c2wr"><polygon points="266.37 211.55 281.42 224.48 271.14 219.45 266.37 211.55" style="fill: #1D7C68; opacity: 0.2; transform-origin: 273.895px 218.015px;" class="animable" id="elr0lwpt6rnd"></polygon></g><path d="M281.48,138.18c.64.89,1.12,1.59,1.66,2.38l1.53,2.31q1.5,2.32,2.91,4.69c1.89,3.17,3.67,6.41,5.31,9.8a79.78,79.78,0,0,1,4.31,10.73,46.56,46.56,0,0,1,1.48,6,35.2,35.2,0,0,1,.51,6.66,42.45,42.45,0,0,1-2.41,12.34,70.13,70.13,0,0,1-4.72,10.59,101.57,101.57,0,0,1-5.85,9.53q-1.56,2.29-3.22,4.5c-.55.74-1.12,1.48-1.7,2.21s-1.13,1.41-1.85,2.25L268.87,213c.4-.48,1-1.16,1.44-1.78l1.48-1.92c1-1.3,1.92-2.62,2.83-4a86.77,86.77,0,0,0,4.93-8.28,54.45,54.45,0,0,0,3.57-8.49,26.72,26.72,0,0,0,1.41-8,24.86,24.86,0,0,0-1.61-7.75,59.54,59.54,0,0,0-3.81-8.42c-1.52-2.8-3.21-5.58-5-8.29-.91-1.35-1.85-2.69-2.81-4l-1.46-1.95c-.48-.62-1-1.32-1.43-1.81Z" style="fill: #1D7C68; transform-origin: 283.803px 180.175px;" id="elmc158q36lme" class="animable"></path><g id="elzggxouvj4yr"><path d="M281.48,138.18c.64.89,1.12,1.59,1.66,2.38l1.53,2.31q1.5,2.32,2.91,4.69c1.89,3.17,3.67,6.41,5.31,9.8a79.78,79.78,0,0,1,4.31,10.73,46.56,46.56,0,0,1,1.48,6,35.2,35.2,0,0,1,.51,6.66,42.45,42.45,0,0,1-2.41,12.34,70.13,70.13,0,0,1-4.72,10.59,101.57,101.57,0,0,1-5.85,9.53q-1.56,2.29-3.22,4.5c-.55.74-1.12,1.48-1.7,2.21s-1.13,1.41-1.85,2.25L268.87,213c.4-.48,1-1.16,1.44-1.78l1.48-1.92c1-1.3,1.92-2.62,2.83-4a86.77,86.77,0,0,0,4.93-8.28,54.45,54.45,0,0,0,3.57-8.49,26.72,26.72,0,0,0,1.41-8,24.86,24.86,0,0,0-1.61-7.75,59.54,59.54,0,0,0-3.81-8.42c-1.52-2.8-3.21-5.58-5-8.29-.91-1.35-1.85-2.69-2.81-4l-1.46-1.95c-.48-.62-1-1.32-1.43-1.81Z" style="fill: rgb(255, 255, 255); opacity: 0.8; transform-origin: 283.803px 180.175px;" class="animable" id="elxjofurxuccq"></path></g><path d="M268,155.52a3.53,3.53,0,0,1-4,2.06,2.51,2.51,0,0,1-1.75-3.49,3.52,3.52,0,0,1,4-2.05A2.5,2.5,0,0,1,268,155.52Z" style="fill: rgb(38, 50, 56); transform-origin: 265.125px 154.809px;" id="elbj049fj27g7" class="animable"></path><g id="el5iy0wtzntu3"><path d="M268,155.52a3.53,3.53,0,0,1-4,2.06,2.51,2.51,0,0,1-1.75-3.49,3.52,3.52,0,0,1,4-2.05A2.5,2.5,0,0,1,268,155.52Z" style="fill: rgb(255, 255, 255); opacity: 0.2; transform-origin: 265.125px 154.809px;" class="animable" id="ely6rotn0e06o"></path></g><path d="M264.71,154a.39.39,0,0,1-.23-.07.39.39,0,0,1-.09-.54c7.44-10.35,5.36-19.55,5.34-19.64a.39.39,0,1,1,.75-.18c0,.09,2.2,9.62-5.46,20.27A.36.36,0,0,1,264.71,154Z" style="fill: rgb(38, 50, 56); transform-origin: 267.546px 143.607px;" id="el7o36tegzd25" class="animable"></path><path d="M238.77,148.75a.4.4,0,0,1-.39-.36c-.81-10.16,4.57-13.91,4.8-14.06a.4.4,0,0,1,.54.1.39.39,0,0,1-.11.54c-.05,0-5.23,3.68-4.45,13.36a.39.39,0,0,1-.36.41Z" style="fill: rgb(38, 50, 56); transform-origin: 241.041px 141.508px;" id="elt9sviv1xfa" class="animable"></path><path d="M266.91,155.25a3.54,3.54,0,0,1-4,2.06,2.5,2.5,0,0,1-1.75-3.49,3.52,3.52,0,0,1,4-2A2.51,2.51,0,0,1,266.91,155.25Z" style="fill: rgb(38, 50, 56); transform-origin: 264.021px 154.561px;" id="elwp9ygwqobsf" class="animable"></path><g id="elyvklgevadx"><path d="M266.91,155.25a3.54,3.54,0,0,1-4,2.06,2.5,2.5,0,0,1-1.75-3.49,3.52,3.52,0,0,1,4-2A2.51,2.51,0,0,1,266.91,155.25Z" style="fill: rgb(255, 255, 255); opacity: 0.4; transform-origin: 264.021px 154.561px;" class="animable" id="elixp7s5owwo"></path></g><g id="el4wjybaiscwn"><path d="M265.23,154.71a1.86,1.86,0,0,1-2.11,1.08,1.32,1.32,0,0,1-.92-1.83,1.87,1.87,0,0,1,2.11-1.08A1.32,1.32,0,0,1,265.23,154.71Z" style="fill: rgb(255, 255, 255); opacity: 0.4; transform-origin: 263.715px 154.336px;" class="animable" id="elevxglsrv815"></path></g><path d="M241.81,172.39a.39.39,0,0,1-.38-.39.38.38,0,0,1,.38-.39,3,3,0,0,0,2.9-2.73l.74-13a6.63,6.63,0,0,0-6.68-7.08,7.65,7.65,0,0,0-7.54,7.13l-.75,13a2.5,2.5,0,0,0,2.54,2.69.39.39,0,0,1,.39.39.4.4,0,0,1-.39.39,3.29,3.29,0,0,1-3.31-3.51l.75-13a8.43,8.43,0,0,1,8.31-7.86,7.4,7.4,0,0,1,7.45,7.91l-.74,13A3.72,3.72,0,0,1,241.81,172.39Z" style="fill: rgb(38, 50, 56); transform-origin: 237.97px 160.215px;" id="eloinsaugmj9" class="animable"></path><path d="M233.66,172c0,.62-.35,1.13-.7,1.13s-.62-.51-.58-1.13.35-1.14.71-1.14S233.7,171.37,233.66,172Z" style="fill: rgb(38, 50, 56); transform-origin: 233.02px 171.995px;" id="eld3vipu5pd2" class="animable"></path><path d="M242.46,172c0,.62-.35,1.13-.71,1.13s-.62-.51-.58-1.13.35-1.14.71-1.14S242.49,171.37,242.46,172Z" style="fill: rgb(38, 50, 56); transform-origin: 241.814px 171.995px;" id="elbhjpf5w340s" class="animable"></path></g><g id="freepik--Heart--inject-2" class="animable" style="transform-origin: 182.567px 108.106px;"><path d="M161.94,93l-.71-.51A16.86,16.86,0,0,1,180,86.38l-.27.84A16,16,0,0,0,161.94,93Z" style="fill: #1D7C68; transform-origin: 170.615px 89.2865px;" id="elql3org85cz" class="animable"></path><path d="M158.92,102l-.88,0a16.8,16.8,0,0,1,.81-4.7l.84.27A15.81,15.81,0,0,0,158.92,102Z" style="fill: #1D7C68; transform-origin: 158.865px 99.65px;" id="el35vtfz0k7u4" class="animable"></path><path d="M205.93,102.7a13.76,13.76,0,0,0-18.81-6.57,13.76,13.76,0,0,0-18.75-5.85c-6.67,3.58-9,12.06-5.53,18.81l9,17.57a7.3,7.3,0,0,0,9.84,3.17l17.64-9A14,14,0,0,0,205.93,102.7Z" style="fill: #1D7C68; transform-origin: 184.168px 109.642px;" id="el3hitql9h14q" class="animable"></path></g><defs>     <filter id="active" height="200%">         <feMorphology in="SourceAlpha" result="DILATED" operator="dilate" radius="2"></feMorphology>                <feFlood flood-color="#32DFEC" flood-opacity="1" result="PINK"></feFlood>        <feComposite in="PINK" in2="DILATED" operator="in" result="OUTLINE"></feComposite>        <feMerge>            <feMergeNode in="OUTLINE"></feMergeNode>            <feMergeNode in="SourceGraphic"></feMergeNode>        </feMerge>    </filter>    <filter id="hover" height="200%">        <feMorphology in="SourceAlpha" result="DILATED" operator="dilate" radius="2"></feMorphology>                <feFlood flood-color="#ff0000" flood-opacity="0.5" result="PINK"></feFlood>        <feComposite in="PINK" in2="DILATED" operator="in" result="OUTLINE"></feComposite>        <feMerge>            <feMergeNode in="OUTLINE"></feMergeNode>            <feMergeNode in="SourceGraphic"></feMergeNode>        </feMerge>            <feColorMatrix type="matrix" values="0   0   0   0   0                0   1   0   0   0                0   0   0   0   0                0   0   0   1   0 "></feColorMatrix>    </filter></defs></svg>